<?xml version="1.0" standalone="no"?>
<!DOCTYPE svg PUBLIC "-//W3C//DTD SVG 1.1//EN" "http://www.w3.org/Graphics/SVG/1.1/DTD/svg11.dtd" >
<svg xmlns="http://www.w3.org/2000/svg" xmlns:xlink="http://www.w3.org/1999/xlink" version="1.1">
<metadata>
Created by FontForge 20161003 at Sun Mar  4 19:14:46 2018
 By www-data
Copyright (c) 1988, 1990, 1993, 1996 Adobe Systems Incorporated.  All Rights Reserved.Helvetica is a trademark of Linotype-Hell AG and/or its subsidiaries.
</metadata>
<defs>
<font id="HelveticaNeueCE76BoldItalic" horiz-adv-x="611" >
  <font-face 
    font-family="HelveticaNeueCE76BoldItalic"
    font-weight="700"
    font-style="italic"
    font-stretch="normal"
    units-per-em="1000"
    panose-1="2 0 8 3 5 0 0 9 0 4"
    ascent="800"
    descent="-200"
    x-height="517"
    cap-height="714"
    bbox="-166 -289 1129 975"
    underline-thickness="50"
    underline-position="-175"
    slope="-12"
    unicode-range="U+0020-FB02"
  />
<missing-glyph horiz-adv-x="278" 
 />
    <glyph glyph-name=".notdef" horiz-adv-x="278" 
 />
    <glyph glyph-name=".null" horiz-adv-x="0" 
 />
    <glyph glyph-name="nonmarkingreturn" horiz-adv-x="333" 
 />
    <glyph glyph-name="space" unicode=" " horiz-adv-x="278" 
 />
    <glyph glyph-name="space" unicode="&#xa0;" horiz-adv-x="278" 
 />
    <glyph glyph-name="exclam" unicode="!" horiz-adv-x="296" 
d="M-4 0h158l33 154h-158zM301 714h-151l-41 -194l-25 -306h70l105 306z" />
    <glyph glyph-name="quotedbl" unicode="&#x22;" horiz-adv-x="481" 
d="M313 393h107v321h-107v-321zM127 393h107v321h-107v-321z" />
    <glyph glyph-name="numbersign" unicode="#" horiz-adv-x="556" 
d="M81 0h97l28 198h96l-27 -198h97l27 198h87l10 90h-84l17 124h87l10 90h-84l27 198h-97l-27 -198h-97l28 198h-97l-28 -198h-85l-10 -90h83l-18 -124h-85l-10 -90h83zM332 412l-17 -124h-97l18 124h96z" />
    <glyph glyph-name="dollar" unicode="$" horiz-adv-x="556" 
d="M312 296q14 -6 28 -13.5t25.5 -18t18.5 -25.5t7 -35q0 -29 -11 -48.5t-28 -32t-38 -18t-40 -5.5zM291 444q-34 11 -57.5 29.5t-23.5 52.5q0 22 10 39t25.5 27.5t34 16t36.5 5.5h7zM186 -104h49l17 87q50 0 99.5 13.5t88.5 42.5t63.5 74.5t24.5 109.5q0 52 -15.5 86.5
t-42 57t-61.5 36t-73 25.5l33 177q26 -11 42.5 -34.5t14.5 -64.5h137q4 48 -8 85t-35.5 64t-56 44t-70.5 25l17 86h-48l-16 -79h-3q-53 0 -101.5 -12.5t-86 -39t-60 -67.5t-22.5 -97q0 -50 14.5 -82.5t39 -54.5t57.5 -36t71 -27l11 -4l-40 -206q-40 7 -62.5 37.5t-20.5 97.5
h-137q-2 -122 48.5 -182.5t149.5 -71.5z" />
    <glyph glyph-name="percent" unicode="%" horiz-adv-x="963" 
d="M73 482q0 -69 37 -113.5t110 -44.5q49 0 87 20t64 53t39.5 76t13.5 89q0 76 -41.5 114t-116.5 38q-48 0 -84.5 -19.5t-60.5 -52t-36 -74.5t-12 -86zM175 464q0 23 4.5 53t15.5 57t30.5 46t48.5 19q23 0 35.5 -17.5t12.5 -38.5t-5 -52.5t-16 -60.5t-29 -50t-45 -21
q-29 0 -40.5 18.5t-11.5 46.5zM644 126q0 23 4.5 53t15.5 57t30.5 46t48.5 19q23 0 35.5 -17.5t12.5 -38.5t-5 -52.5t-16 -60.5t-29 -50t-45 -21q-29 0 -40.5 18.5t-11.5 46.5zM542 144q0 -69 37 -113.5t110 -44.5q49 0 87 20t64 53t39.5 76t13.5 89q0 76 -41.5 114
t-116.5 38q-48 0 -84.5 -19.5t-60.5 -52t-36 -74.5t-12 -86zM175 -22h86l537 744h-85z" />
    <glyph glyph-name="ampersand" unicode="&#x26;" horiz-adv-x="685" 
d="M365 156q-25 -20 -55 -36.5t-63 -16.5q-17 0 -34 5.5t-30.5 16t-21.5 25.5t-8 33q0 28 10 47.5t26 34t36.5 26.5t41.5 24zM459 0h156l-91 140q44 40 73 92.5t40 110.5h-127q-7 -28 -19.5 -54t-32.5 -47l-77 124q28 15 57.5 33.5t53 42t38.5 52.5t15 66q0 40 -15.5 70.5
t-41 51t-59.5 30.5t-71 10q-43 0 -79 -12.5t-62.5 -36.5t-41 -58.5t-14.5 -78.5q0 -34 15.5 -65.5t32.5 -60.5q-38 -15 -73 -35.5t-61.5 -48t-42.5 -63t-16 -80.5q0 -47 18 -83.5t48.5 -61.5t70 -38.5t82.5 -13.5q57 0 102.5 17t89.5 53zM288 554q0 37 23.5 55t53.5 18
q27 0 45 -18.5t18 -49.5q0 -18 -10.5 -34t-26 -29.5t-33 -24t-32.5 -17.5q-14 23 -26 47t-12 53z" />
    <glyph glyph-name="quotesingle" unicode="'" horiz-adv-x="278" 
d="M110 393h107v321h-107v-321z" />
    <glyph glyph-name="parenleft" unicode="(" horiz-adv-x="296" 
d="M262 731q-56 -71 -99.5 -137.5t-74 -136.5t-46.5 -148t-16 -171q0 -32 4.5 -74t13 -86.5t19.5 -86.5t25 -73h108q-15 65 -26.5 131t-11.5 132q0 89 11.5 169.5t38 158.5t70.5 157t109 165h-125z" />
    <glyph glyph-name="parenright" unicode=")" horiz-adv-x="296" 
d="M13 -182q55 70 99 137t74.5 137t46.5 148t16 171q0 31 -4.5 73.5t-13 87t-20 86.5t-24.5 73h-108q15 -65 26.5 -131t11.5 -132q0 -89 -11.5 -169.5t-38 -158.5t-70.5 -157t-109 -165h125z" />
    <glyph glyph-name="asterisk" unicode="*" horiz-adv-x="407" 
d="M313 710l-82 4l-17 -120l-109 55l-34 -73l108 -52l-89 -92l58 -56l86 97l55 -109l72 39l-57 105l120 18l-14 79l-121 -23z" />
    <glyph glyph-name="plus" unicode="+" horiz-adv-x="600" 
d="M48 199h199v-199h107v199h199v107h-199v199h-107v-199h-199v-107z" />
    <glyph glyph-name="comma" unicode="," horiz-adv-x="278" 
d="M-13 0h69q-8 -43 -26.5 -66t-62.5 -30l-15 -71q49 2 82.5 16.5t55.5 38t35 54.5t21.5 66t15 72.5t15.5 73.5h-158z" />
    <glyph glyph-name="hyphen" unicode="-" horiz-adv-x="407" 
d="M27 212h301l26 122h-301z" />
    <glyph glyph-name="hyphen" unicode="&#xad;" horiz-adv-x="407" 
d="M27 212h301l26 122h-301z" />
    <glyph glyph-name="period" unicode="." horiz-adv-x="278" 
d="M-13 0h158l33 154h-158z" />
    <glyph glyph-name="slash" unicode="/" horiz-adv-x="389" 
d="M-2 -17h114l279 748h-114z" />
    <glyph glyph-name="zero" unicode="0" horiz-adv-x="556" 
d="M-4 255q0 -54 12 -102.5t39 -85.5t69 -59t102 -22q88 0 152.5 43.5t107 111.5t63 149.5t20.5 158.5q0 59 -14.5 107.5t-43.5 83.5t-73 54.5t-103 19.5q-56 0 -102 -20t-83 -55t-64.5 -80.5t-45.5 -96.5t-27 -104.5t-9 -102.5zM138 226q0 24 3.5 61.5t11.5 78.5t21.5 82.5
t33.5 74.5t47 53.5t62 20.5q27 0 46.5 -10t32 -27t18 -40t5.5 -49q0 -24 -3.5 -60.5t-12 -77.5t-22.5 -82t-34 -74t-47.5 -53.5t-63.5 -20.5q-29 0 -48 10t-30 26.5t-15.5 39t-4.5 47.5z" />
    <glyph glyph-name="one" unicode="1" horiz-adv-x="556" 
d="M471 700h-116q-19 -41 -43.5 -67t-54 -41.5t-64 -22t-73.5 -8.5l-23 -107h171l-96 -454h151z" />
    <glyph glyph-name="two" unicode="2" horiz-adv-x="556" 
d="M179 448q1 29 10.5 55t26 46t40 31.5t52.5 11.5q45 0 76.5 -22.5t31.5 -75.5q0 -35 -18 -61t-44.5 -46.5t-57.5 -36.5t-56 -31q-51 -27 -100 -56t-88 -65.5t-64.5 -84t-29.5 -113.5h519l28 122h-345q27 29 67 54t84.5 50.5t88.5 52.5t79 59.5t57 73t22 91.5
q0 54 -18.5 94t-50.5 66t-74 38.5t-90 12.5q-60 0 -109.5 -18t-86 -52t-58.5 -83.5t-27 -112.5h135z" />
    <glyph glyph-name="three" unicode="3" horiz-adv-x="556" 
d="M216 317h51q42 0 70.5 -20.5t28.5 -66.5q0 -61 -39 -94t-96 -33q-63 0 -92 37.5t-22 99.5h-135q-8 -125 54.5 -189.5t190.5 -64.5q58 0 110.5 14t92 43.5t62.5 74.5t23 107q0 53 -22 89.5t-76 53.5v2q58 12 95 55.5t37 105.5q0 51 -20.5 86t-53 56.5t-74 31t-83.5 9.5
q-111 0 -183 -61t-88 -176h135q13 60 43.5 90t90.5 30q19 0 36.5 -5t30.5 -16t21 -27.5t8 -38.5q0 -27 -12.5 -45.5t-32 -29t-43 -14.5t-46.5 -4h-43z" />
    <glyph glyph-name="four" unicode="4" horiz-adv-x="556" 
d="M106 279l263 269h2l-57 -269h-208zM538 700h-138l-410 -409l-26 -129h325l-35 -162h135l35 162h93l25 117h-93z" />
    <glyph glyph-name="five" unicode="5" horiz-adv-x="556" 
d="M556 700h-414l-122 -390h128q21 31 48 45t64 14q57 0 88 -30t31 -89q0 -32 -11 -59t-30 -46.5t-44.5 -30.5t-54.5 -11q-51 0 -84.5 24.5t-34.5 76.5h-137q4 -113 69.5 -165.5t176.5 -52.5q63 0 116.5 19.5t92.5 56t61 88.5t22 117q0 49 -16 87.5t-43 65.5t-62 41.5
t-74 14.5q-27 0 -47.5 -3t-36.5 -9t-28.5 -14t-24.5 -18l-2 2l46 149h298z" />
    <glyph glyph-name="six" unicode="6" horiz-adv-x="556" 
d="M150 221q0 28 9 54t25.5 45.5t40 31t53.5 11.5q50 0 80.5 -29.5t30.5 -88.5q0 -61 -35 -101.5t-97 -40.5q-47 0 -77 33.5t-30 84.5zM577 519q-2 51 -20 88t-47 60.5t-68.5 35t-85.5 11.5q-81 0 -144.5 -35t-108 -95t-67.5 -140.5t-23 -172.5q0 -62 13.5 -114t43.5 -90
t77 -59.5t114 -21.5q57 0 106.5 21t86 57.5t57 86t20.5 105.5q0 49 -14.5 88.5t-41.5 67.5t-65.5 43t-85.5 15q-45 0 -86 -17.5t-68 -56.5l-2 2q11 34 25.5 70.5t35.5 67.5t51 51t71 20q39 0 63.5 -24t25.5 -64h137z" />
    <glyph glyph-name="seven" unicode="7" horiz-adv-x="556" 
d="M591 700h-497l-28 -132h344q-56 -51 -109 -119t-99 -143.5t-81 -154.5t-53 -151h151q19 75 53 156t79 158t99.5 145.5t114.5 118.5z" />
    <glyph glyph-name="eight" unicode="8" horiz-adv-x="556" 
d="M122 201q0 30 10.5 53t29 38.5t43.5 23t53 7.5q22 0 44 -7t40 -20.5t29 -35t11 -49.5q0 -55 -37 -86.5t-100 -31.5q-24 0 -46 7.5t-39.5 21.5t-27.5 34t-10 45zM68 509q0 -45 25.5 -79t61.5 -51v-2q-37 -9 -69 -24t-55.5 -37.5t-37 -53t-13.5 -70.5q0 -45 19.5 -83
t54 -65t82 -42.5t104.5 -15.5q54 0 105 15t91 44t64 70.5t24 95.5q0 26 -8.5 52t-23.5 48t-35 37t-42 20v2q30 6 55 21.5t42.5 37t27.5 47t10 50.5q0 39 -15.5 73t-44 59.5t-68.5 40.5t-90 15q-56 0 -104 -14t-83.5 -40.5t-56 -64.5t-20.5 -86zM195 509q0 46 31 72t86 26
q22 0 42 -5.5t35.5 -17t24.5 -29.5t9 -43q0 -22 -9.5 -39.5t-25.5 -29.5t-36.5 -18.5t-42.5 -6.5q-18 0 -38 4.5t-37 15.5t-28 28t-11 43z" />
    <glyph glyph-name="nine" unicode="9" horiz-adv-x="556" 
d="M415 479q0 -29 -9 -54.5t-25.5 -45t-40 -31t-53.5 -11.5q-50 0 -80.5 29.5t-30.5 88.5q0 61 35 101.5t97 40.5q23 0 42.5 -9t34 -24.5t22.5 -37.5t8 -47zM-12 181q2 -51 20 -88t47 -60.5t68.5 -35t85.5 -11.5q81 0 144.5 35t108 95t67.5 140.5t23 172.5q0 62 -13.5 114
t-43.5 90t-77 59.5t-114 21.5q-57 0 -106.5 -21t-86 -57.5t-57 -86t-20.5 -105.5q0 -49 14.5 -88.5t41.5 -67.5t65.5 -43t85.5 -15q45 0 86 17.5t68 56.5l2 -2q-11 -34 -25.5 -71t-35.5 -67.5t-51 -50.5t-71 -20q-39 0 -63.5 24t-25.5 64h-137z" />
    <glyph glyph-name="colon" unicode=":" horiz-adv-x="278" 
d="M-13 0h158l33 154h-158zM252 508h-158l-33 -154h158z" />
    <glyph glyph-name="semicolon" unicode=";" horiz-adv-x="278" 
d="M-13 0h69q-8 -43 -26.5 -66t-62.5 -30l-15 -71q49 2 82.5 16.5t55.5 38t35 54.5t21.5 66t15 72.5t15.5 73.5h-158zM61 354h158l33 154h-158z" />
    <glyph glyph-name="semicolon" unicode="&#x37e;" horiz-adv-x="278" 
d="M-13 0h69q-8 -43 -26.5 -66t-62.5 -30l-15 -71q49 2 82.5 16.5t55.5 38t35 54.5t21.5 66t15 72.5t15.5 73.5h-158zM61 354h158l33 154h-158z" />
    <glyph glyph-name="less" unicode="&#x3c;" horiz-adv-x="600" 
d="M554 514l-508 -202v-118l508 -202v115l-367 146l367 146v115z" />
    <glyph glyph-name="equal" unicode="=" horiz-adv-x="600" 
d="M553 413h-505v-107h505v107zM553 199h-505v-107h505v107z" />
    <glyph glyph-name="greater" unicode="&#x3e;" horiz-adv-x="600" 
d="M46 -8l508 202v118l-508 202v-115l367 -146l-367 -146v-115z" />
    <glyph glyph-name="question" unicode="?" horiz-adv-x="574" 
d="M216 491q3 24 12 46.5t23.5 39.5t35 27t47.5 10q35 0 61 -19t26 -59q0 -35 -21 -59t-50 -41q-36 -19 -63.5 -37t-48 -41t-33.5 -56t-20 -82h132q3 27 13 47t25 36t34 28.5t42 24.5q28 16 53 34t44 41t30.5 51t11.5 64q0 48 -18 83t-48 57.5t-69.5 33.5t-82.5 11
q-57 0 -106 -15t-86.5 -45t-60 -75t-25.5 -105h142zM123 0h158l33 154h-158z" />
    <glyph glyph-name="at" unicode="@" horiz-adv-x="800" 
d="M291 319q0 25 9 51t25.5 47.5t39.5 35t50 13.5q32 0 54.5 -24t22.5 -61q0 -26 -9 -53t-25.5 -48.5t-39 -35.5t-49.5 -14q-35 0 -56.5 24.5t-21.5 64.5zM622 545h-82l-16 -54q-17 39 -51 54.5t-66 15.5q-50 0 -90 -22t-68.5 -58t-44 -82t-15.5 -93q0 -35 12.5 -66
t34 -54.5t50 -37t60.5 -13.5t61 14t47 44h2q2 -25 21.5 -41t51.5 -16q24 0 63.5 16.5t78 51.5t66 90t27.5 132q0 69 -29 125.5t-77 96t-111 61.5t-131 22q-78 0 -147 -29t-121 -79t-82 -118.5t-30 -147.5q0 -80 30 -148.5t82.5 -118.5t122.5 -78.5t150 -28.5q94 0 174 42
t131 120h-84q-39 -39 -95.5 -60.5t-119.5 -21.5q-65 0 -119 21t-93 59.5t-61 92t-22 119.5q0 63 20 117.5t57 94t89 62t117 22.5q56 0 105 -16t85.5 -47.5t57.5 -77t21 -105.5q0 -40 -10.5 -74t-27 -58.5t-37 -38t-41.5 -13.5q-9 0 -13 6.5t-4 16.5t2.5 21.5t5.5 21.5z" />
    <glyph glyph-name="A" unicode="A" horiz-adv-x="685" 
d="M395 560h2l35 -284h-191zM-77 0h166l90 159h267l23 -159h156l-119 714h-161z" />
    <glyph glyph-name="B" unicode="B" horiz-adv-x="722" 
d="M215 318h154q21 0 43 -2t40 -10.5t29.5 -24.5t11.5 -44q0 -57 -34.5 -86t-88.5 -29h-197zM-4 0h381q54 0 103 15t87 44t60.5 73t22.5 102q0 52 -27.5 91.5t-78.5 53.5v2q31 4 56 19t42.5 37.5t26.5 51t9 58.5q0 51 -16 83.5t-46 51t-73 25.5t-97 7h-300zM272 592h166
q38 0 60.5 -16t22.5 -57q0 -47 -31.5 -70.5t-74.5 -23.5h-178z" />
    <glyph glyph-name="C" unicode="C" horiz-adv-x="741" 
d="M713 466q1 65 -20 114.5t-59.5 83t-91.5 50.5t-115 17q-90 0 -162.5 -35t-123 -94.5t-77.5 -137.5t-27 -165q0 -152 83 -234t234 -82q58 0 107.5 15t90 47.5t73 84.5t56.5 127h-157q-5 -28 -20 -54t-37 -45.5t-50 -31t-61 -11.5q-43 0 -73.5 15t-50 40.5t-29 58.5
t-9.5 70q0 51 14 104.5t42.5 97t73 71t104.5 27.5q57 0 92.5 -33.5t35.5 -99.5h157z" />
    <glyph glyph-name="D" unicode="D" horiz-adv-x="741" 
d="M-4 0h299q103 0 180.5 33t129 91.5t77.5 138.5t26 173q0 132 -76.5 205t-226.5 73h-258zM277 582h118q42 0 71.5 -12.5t48.5 -35.5t27.5 -54.5t8.5 -70.5q0 -57 -16.5 -107t-48 -88t-78 -60t-106.5 -22h-121z" />
    <glyph glyph-name="E" unicode="E" horiz-adv-x="667" 
d="M-4 0h551l28 132h-394l37 175h359l26 122h-359l32 153h388l27 132h-545z" />
    <glyph glyph-name="F" unicode="F" horiz-adv-x="593" 
d="M-4 0h157l63 295h305l26 122h-306l35 165h350l29 132h-508z" />
    <glyph glyph-name="G" unicode="G" horiz-adv-x="759" 
d="M536 0h99l82 386h-303l-25 -117h165q-10 -34 -25.5 -62.5t-39 -48.5t-56 -31.5t-77.5 -11.5q-43 0 -73.5 15t-50 40.5t-29 58.5t-9.5 70q0 51 14 104.5t42.5 97t73 71t104.5 27.5q66 0 104 -28t41 -93h157q0 66 -24 113.5t-65 78.5t-96 46t-118 15q-90 0 -162.5 -35
t-123 -94.5t-77.5 -137.5t-27 -165q0 -152 83 -234t234 -82q50 0 97.5 21t82.5 69h2v-73z" />
    <glyph glyph-name="H" unicode="H" horiz-adv-x="741" 
d="M-4 0h158l65 308h289l-65 -308h158l151 714h-158l-58 -274h-289l58 274h-158z" />
    <glyph glyph-name="I" unicode="I" horiz-adv-x="296" 
d="M-4 0h158l151 714h-158z" />
    <glyph glyph-name="J" unicode="J" horiz-adv-x="556" 
d="M565 714h-158l-99 -477q-6 -24 -12 -46.5t-17.5 -39t-30 -26.5t-48.5 -10t-53.5 17t-23.5 50q0 17 4.5 39t9.5 45h-143q-5 -28 -9 -54.5t-4 -55.5q0 -47 18 -80t48.5 -53.5t69.5 -30t81 -9.5q58 0 101.5 14.5t75 43t52 69t32.5 93.5z" />
    <glyph glyph-name="K" unicode="K" horiz-adv-x="722" 
d="M-4 0h158l47 226l109 95l163 -321h177l-219 420l343 294h-208l-324 -299h-2l62 299h-157z" />
    <glyph glyph-name="L" unicode="L" horiz-adv-x="574" 
d="M-4 0h503l28 132h-345l122 582h-158z" />
    <glyph glyph-name="M" unicode="M" horiz-adv-x="907" 
d="M-4 0h149l107 568h2l69 -568h120l302 568h2l-130 -568h147l151 714h-219l-275 -517h-2l-55 517h-217z" />
    <glyph glyph-name="N" unicode="N" horiz-adv-x="741" 
d="M-4 0h147l102 501h2l196 -501h157l151 714h-144l-102 -508h-2l-194 508h-162z" />
    <glyph glyph-name="O" unicode="O" horiz-adv-x="778" 
d="M194 299q0 51 14 104.5t42.5 97t73 71t104.5 27.5q43 0 73.5 -15t49.5 -40t27.5 -59t8.5 -71q0 -51 -14.5 -104t-43.5 -96.5t-72 -71t-101 -27.5q-43 0 -73.5 15t-50 40.5t-29 58.5t-9.5 70zM37 299q0 -152 83 -234t234 -82q94 0 166.5 36t122 97t75.5 141t26 168
q0 75 -22.5 132t-63.5 96t-100 58.5t-131 19.5q-90 0 -162.5 -35t-123 -94.5t-77.5 -137.5t-27 -165z" />
    <glyph glyph-name="P" unicode="P" horiz-adv-x="667" 
d="M277 592h134q21 0 40.5 -4t35.5 -13.5t25.5 -27t9.5 -44.5q0 -64 -34.5 -94.5t-94.5 -30.5h-160zM-4 0h157l54 256h194q55 0 105.5 17t89 49t61 78.5t22.5 105.5t-18.5 99t-51.5 64t-78.5 34.5t-99.5 10.5h-286z" />
    <glyph glyph-name="Q" unicode="Q" horiz-adv-x="778" 
d="M362 189l56 -63q-30 -11 -62 -11q-43 0 -73.5 15t-50 40.5t-29 58.5t-9.5 70q0 51 14 104.5t42.5 97t73 71t104.5 27.5q43 0 73.5 -15t49.5 -40t27.5 -59t8.5 -71q0 -59 -19.5 -120.5t-58.5 -106.5l-63 71zM682 -9l-76 86q68 63 103 154t35 194q0 75 -22.5 132t-63.5 96
t-100 58.5t-131 19.5q-90 0 -162.5 -35t-123 -94.5t-77.5 -137.5t-27 -165q0 -152 83 -234t234 -82q45 0 85 8.5t75 25.5l84 -96z" />
    <glyph glyph-name="R" unicode="R" horiz-adv-x="722" 
d="M-4 0h157l59 279h148q23 0 42 -3.5t32.5 -13.5t21 -26.5t7.5 -42.5q0 -36 -4 -72.5t-4 -72.5q0 -12 2 -23.5t5 -24.5h153q-6 16 -8 37.5t-2 45.5q0 33 2.5 66.5t2.5 57.5q0 21 -3.5 41t-11.5 36.5t-22.5 29t-36.5 19.5v2q36 5 66 22t52 42.5t34 58.5t12 69q0 52 -15 88
t-43 58t-67.5 32t-87.5 9h-341zM278 592h149q23 0 44 -3t37 -12t25.5 -26.5t9.5 -46.5q0 -30 -13.5 -51.5t-36 -35t-52 -20t-60.5 -6.5h-145z" />
    <glyph glyph-name="S" unicode="S" horiz-adv-x="648" 
d="M5 237q0 -130 74 -192t223 -62q51 0 103 13t93.5 41t68 73t26.5 109q0 48 -14 81t-39.5 56t-60.5 37.5t-77 25.5q-18 4 -47 10.5t-56.5 18t-47 28.5t-19.5 44q0 25 11 42t29 27.5t40 15t45 4.5q27 0 51 -5.5t41.5 -18.5t27 -33.5t8.5 -50.5h149q0 62 -21.5 105.5
t-58 71.5t-85 40.5t-103.5 12.5q-52 0 -102.5 -12.5t-90.5 -39t-65 -68.5t-25 -102q0 -46 15.5 -78t41 -53.5t57.5 -36t66 -24.5q33 -10 65.5 -19t58 -20.5t41.5 -28.5t16 -43q0 -27 -12.5 -46t-32 -31t-43.5 -18t-48 -6q-34 0 -63 6.5t-50 21.5t-32 40.5t-9 63.5h-149z" />
    <glyph glyph-name="T" unicode="T" 
d="M156 0h158l122 582h214l28 132h-596l-28 -132h224z" />
    <glyph glyph-name="U" unicode="U" horiz-adv-x="741" 
d="M750 714h-157l-89 -423q-9 -41 -19 -73.5t-29 -55t-49 -35t-78 -12.5q-41 0 -67 10t-41 24.5t-20.5 31t-5.5 30.5q0 9 1.5 20.5t4 24.5t5 24.5t4.5 20.5l87 413h-157l-87 -413q-5 -26 -10 -52.5t-5 -53.5q0 -59 24.5 -99t64 -65.5t90 -36.5t102.5 -11q83 0 141 20.5
t98 60.5t64.5 99t40.5 136z" />
    <glyph glyph-name="V" unicode="V" horiz-adv-x="630" 
d="M712 714h-163l-271 -536h-2l-47 536h-157l82 -714h177z" />
    <glyph glyph-name="W" unicode="W" horiz-adv-x="944" 
d="M1013 714h-157l-218 -521h-2l-18 521h-150l-226 -523h-2l-10 523h-157l49 -714h158l222 510h2l18 -510h156z" />
    <glyph glyph-name="X" unicode="X" horiz-adv-x="667" 
d="M-70 0h190l204 255l112 -255h173l-177 369l297 345h-186l-183 -236l-101 236h-171l167 -338z" />
    <glyph glyph-name="Y" unicode="Y" horiz-adv-x="648" 
d="M175 0h158l55 270l348 444h-185l-222 -304l-107 304h-161l171 -437z" />
    <glyph glyph-name="Z" unicode="Z" horiz-adv-x="648" 
d="M-43 0h601l26 132h-403l481 456l26 126h-564l-29 -132h366l-477 -452z" />
    <glyph glyph-name="bracketleft" unicode="[" horiz-adv-x="333" 
d="M-37 -182h258l24 112h-126l145 689h125l24 112h-258z" />
    <glyph glyph-name="backslash" unicode="\" horiz-adv-x="389" 
d="M178 731h-114l147 -748h114z" />
    <glyph glyph-name="bracketright" unicode="]" horiz-adv-x="333" 
d="M338 731h-258l-24 -112h126l-145 -689h-125l-24 -112h258z" />
    <glyph glyph-name="asciicircum" unicode="^" horiz-adv-x="600" 
d="M61 315h117l122 275l122 -275h117l-172 385h-134z" />
    <glyph glyph-name="underscore" unicode="_" horiz-adv-x="500" 
d="M0 -125h500v50h-500v-50z" />
    <glyph glyph-name="grave" unicode="`" horiz-adv-x="259" 
d="M164 581h100l-58 142h-152z" />
    <glyph glyph-name="a" unicode="a" horiz-adv-x="574" 
d="M346 198q-6 -21 -15 -42t-24.5 -37.5t-38 -27t-55.5 -10.5q-31 0 -54.5 14.5t-23.5 43.5q0 24 9 39.5t23.5 24.5t33.5 13.5t39 6.5q31 2 62 5.5t58 19.5zM193 360q7 39 37 57.5t68 18.5q13 0 29 -2.5t29.5 -9.5t22.5 -19.5t9 -31.5q0 -25 -12 -37.5t-36.5 -19t-61.5 -9.5
t-87 -9q-93 -11 -145.5 -56t-52.5 -120q0 -27 10.5 -51.5t31.5 -43.5t52.5 -30t73.5 -11q44 0 86.5 16t71.5 49v-51h142q-5 15 -5 30t1.5 35.5t5.5 34.5l46 208q5 24 8 47t3 40q1 43 -19.5 70t-52.5 41.5t-70.5 19.5t-72.5 5q-44 0 -85 -8.5t-74.5 -28.5t-56 -52.5
t-29.5 -81.5h133z" />
    <glyph glyph-name="b" unicode="b" 
d="M325 424q55 0 78 -33t23 -82q0 -33 -8.5 -71t-27 -70.5t-47.5 -53.5t-69 -21q-49 0 -76 30.5t-27 78.5q0 34 8.5 73t27 72t47.5 55t71 22zM-12 0h131l17 81h2q19 -54 63.5 -74.5t98.5 -20.5q66 0 116 28.5t84 74t51 104t17 118.5q0 45 -10.5 85t-33 70t-58 47.5
t-84.5 17.5q-51 0 -85.5 -16.5t-67.5 -52.5h-2l53 252h-142z" />
    <glyph glyph-name="c" unicode="c" horiz-adv-x="556" 
d="M534 338q-1 51 -19.5 88t-50 60t-73.5 34t-89 11q-70 0 -124 -25.5t-91.5 -70t-57 -103t-19.5 -124.5q0 -114 60.5 -168t169.5 -54q101 0 168 53t99 150h-142q-12 -38 -39.5 -67t-75.5 -29q-27 0 -45.5 9t-30.5 24t-17 35.5t-5 43.5q0 33 7.5 71.5t24.5 71.5t44.5 54.5
t68.5 21.5q47 0 71 -20t24 -66h142z" />
    <glyph glyph-name="d" unicode="d" 
d="M350 0h137l151 714h-142l-57 -266h-2q-8 21 -23.5 37t-35 26t-42 15t-44.5 5q-72 0 -125 -29.5t-88 -77.5t-52 -109t-17 -125q0 -94 51.5 -149t145.5 -55q48 0 89.5 19t65.5 61l2 -2zM307 424q52 0 77 -31t25 -81q0 -33 -9.5 -71.5t-29 -71.5t-48.5 -54.5t-69 -21.5
q-25 0 -44 9t-31.5 25t-19 37t-6.5 44q0 34 9 72t28 70t48.5 53t69.5 21z" />
    <glyph glyph-name="e" unicode="e" horiz-adv-x="574" 
d="M528 224q8 40 8 81q0 56 -17.5 98.5t-49 71t-76 42.5t-98.5 14q-66 0 -119 -26.5t-89.5 -71t-56.5 -102t-20 -119.5q0 -55 16.5 -97.5t46.5 -71t72.5 -43t94.5 -14.5q56 0 98.5 11.5t74.5 34t55 55.5t40 77h-142q-8 -12 -17.5 -25t-22 -23t-29 -16.5t-37.5 -6.5
q-58 0 -86 28t-28 73v13t1 17h381zM162 314q8 22 19.5 42t28.5 35t40 24t53 9q31 0 50 -9.5t29 -25.5t13.5 -35.5t3.5 -39.5h-237z" />
    <glyph glyph-name="f" unicode="f" horiz-adv-x="352" 
d="M17 0h142l89 422h102l20 95h-101q6 22 10 40t11.5 30.5t22 19t40.5 6.5q11 0 23 -1t23 -2l22 102q-23 4 -46.5 6t-46.5 2q-56 0 -90.5 -13t-55.5 -39t-33 -64t-22 -87h-85l-20 -95h84z" />
    <glyph glyph-name="g" unicode="g" 
d="M304 424q52 0 77 -31.5t25 -80.5q0 -33 -9.5 -68t-28 -63.5t-47 -47t-66.5 -18.5q-25 0 -43 9t-30 25t-17.5 36.5t-5.5 43.5q0 31 9.5 65.5t27.5 63t45 47.5t63 19zM590 517h-136l-16 -79h-2q-22 51 -63 72t-95 21q-62 0 -110.5 -27.5t-82 -72t-51 -100t-17.5 -112.5
q0 -48 14 -86.5t39.5 -66.5t62.5 -43t83 -15q87 0 142 73l2 -2q-11 -38 -22 -71t-27 -57t-38.5 -38t-56.5 -14q-17 0 -34 4t-30.5 13t-21.5 23t-7 34h-142q0 -47 20 -79t51.5 -52t71 -29t78.5 -9q64 0 111.5 13t82 40t56.5 69t35 101z" />
    <glyph glyph-name="h" unicode="h" 
d="M-12 0h142l58 275q6 27 17 53t29 46t42.5 32.5t56.5 12.5q25 0 46.5 -15t21.5 -38q0 -5 -1 -13.5t-2 -17.5t-3 -17.5t-3 -14.5l-63 -303h142l64 303q1 7 4 18.5t5 24.5t4 25.5t2 20.5q0 68 -38.5 103.5t-112.5 35.5q-35 0 -63 -7.5t-49 -18.5t-36 -24t-23 -24h-2l53 257
h-142z" />
    <glyph glyph-name="i" unicode="i" horiz-adv-x="259" 
d="M-12 0h143l110 517h-143zM283 714h-143l-26 -117h143z" />
    <glyph glyph-name="j" unicode="j" horiz-adv-x="259" 
d="M-132 -177q17 -1 34.5 -3t34.5 -2q48 0 80.5 10t54.5 30t35 51t22 72l113 536h-142l-103 -489q-3 -11 -6 -26.5t-9 -30.5t-15.5 -25.5t-23.5 -10.5q-13 0 -25.5 0.5t-25.5 1.5zM283 714h-143l-26 -117h143z" />
    <glyph glyph-name="k" unicode="k" horiz-adv-x="556" 
d="M-12 0h142l35 168l74 63l85 -231h156l-133 321l232 196h-175l-204 -193l-2 2l82 388h-142z" />
    <glyph glyph-name="l" unicode="l" horiz-adv-x="259" 
d="M-12 0h142l152 714h-142z" />
    <glyph glyph-name="m" unicode="m" horiz-adv-x="907" 
d="M-12 0h142l58 277q5 24 16 49t27.5 45.5t38.5 34t51 13.5q27 0 44.5 -16t17.5 -39q0 -8 -1 -17t-3 -20l-68 -327h143l58 277q5 24 16 49t27.5 45.5t38.5 34t51 13.5q27 0 44.5 -16t17.5 -39q0 -8 -1 -17t-3 -20l-68 -327h142l64 304q5 23 10 47.5t5 48.5q0 33 -13 58
t-35 41t-50.5 24t-58.5 8q-25 0 -50.5 -6.5t-48.5 -18.5t-43 -28.5t-33 -36.5q-9 47 -43.5 68.5t-81.5 21.5q-56 0 -102.5 -21.5t-78.5 -65.5h-2l16 73h-136z" />
    <glyph glyph-name="n" unicode="n" 
d="M-12 0h142l58 275q6 27 17 53t29 46t42.5 32.5t56.5 12.5q25 0 46.5 -15t21.5 -38q0 -5 -1 -13.5t-2 -17.5t-3 -17.5t-3 -14.5l-63 -303h142l64 303q1 7 4 18.5t5 24.5t4 25.5t2 20.5q0 68 -38.5 103.5t-112.5 35.5q-112 0 -181 -86h-2l16 72h-136z" />
    <glyph glyph-name="o" unicode="o" horiz-adv-x="593" 
d="M10 209q0 -111 64.5 -167t172.5 -56q70 0 126 25.5t95 69.5t59.5 103.5t20.5 127.5q0 56 -17.5 97t-49.5 68t-76.5 40.5t-97.5 13.5q-69 0 -124 -25.5t-93.5 -69.5t-59 -102.5t-20.5 -124.5zM152 209q0 33 9 70.5t27 69.5t46.5 53.5t67.5 21.5q56 0 80 -31t24 -83
q0 -33 -9 -71t-27.5 -70.5t-47 -54t-68.5 -21.5q-25 0 -44 9.5t-32 25.5t-19.5 37t-6.5 44z" />
    <glyph glyph-name="p" unicode="p" 
d="M323 424q25 0 44 -9.5t31.5 -25t19 -36.5t6.5 -44q0 -34 -9 -72t-28 -70t-48.5 -53t-69.5 -21q-52 0 -77 31t-25 81q0 33 9.5 71.5t29 71.5t48.5 54.5t69 21.5zM-59 -182h142l54 251h3q8 -21 23.5 -37t35 -26t41.5 -15t45 -5q72 0 124.5 29.5t87.5 77.5t52 109t17 125
q0 94 -51 149t-145 55q-48 0 -89.5 -19t-65.5 -61l-2 2l14 64h-137z" />
    <glyph glyph-name="q" unicode="q" 
d="M590 517h-131l-17 -81h-2q-19 54 -63.5 74.5t-98.5 20.5q-66 0 -116 -28.5t-84 -74t-51 -104t-17 -118.5q0 -45 11 -85t34 -70t59 -47.5t86 -17.5q54 0 88.5 15t57.5 40h2l-47 -223h142zM308 424q49 0 76 -30.5t27 -78.5q0 -35 -9.5 -74t-29 -72t-48.5 -54.5t-67 -21.5
q-29 0 -49 9t-32.5 24.5t-18 36.5t-5.5 45q0 33 9 71t27.5 70.5t48 53.5t71.5 21z" />
    <glyph glyph-name="r" unicode="r" horiz-adv-x="389" 
d="M-12 0h142l48 229q7 33 18.5 63.5t31 54.5t48 38t69.5 14q15 0 30 -3l30 -6l29 138q-23 3 -44 3q-57 0 -105.5 -27.5t-72.5 -81.5l-2 2l21 93h-135z" />
    <glyph glyph-name="s" unicode="s" horiz-adv-x="519" 
d="M484 366q1 50 -16.5 82t-46.5 50.5t-68 25.5t-81 7q-38 0 -78 -8.5t-74 -28t-55.5 -50.5t-21.5 -77q0 -30 7.5 -51.5t22 -36.5t35 -25t47.5 -19l109 -35q23 -8 37 -19t14 -38q0 -18 -8 -29.5t-21 -19t-29 -10.5t-32 -3q-18 0 -36.5 4.5t-33 13t-23.5 21.5t-9 31v17h-132
v-21q0 -45 20 -76t52 -50t71 -27t77 -8q45 0 89 9.5t79 30.5t56.5 54.5t21.5 81.5q0 33 -10.5 56.5t-29 40.5t-43.5 29.5t-53 21.5l-71 23q-36 11 -50.5 23t-14.5 29q0 28 24.5 39.5t62.5 11.5q41 0 60 -18.5t20 -51.5h132z" />
    <glyph glyph-name="t" unicode="t" horiz-adv-x="370" 
d="M310 674h-142l-32 -157h-91l-22 -95h93l-58 -277q-3 -14 -5 -26.5t-2 -22.5q-1 -32 11 -52t31 -32t43.5 -16.5t49.5 -4.5q23 0 45 1.5t44 3.5l24 110q-26 -3 -51 -3q-8 0 -16.5 0.5t-15.5 4.5t-11.5 11.5t-4.5 21.5q0 3 1 9.5t3 14.5l53 257h101l22 95h-102z" />
    <glyph glyph-name="u" unicode="u" 
d="M586 517h-142l-58 -275q-6 -27 -17 -53t-29 -46t-42.5 -32.5t-56.5 -12.5q-25 0 -46.5 15t-21.5 38q0 5 1 13.5t2 17.5t2.5 17.5t3.5 14.5l63 303h-142l-64 -303q-2 -7 -4.5 -18.5t-4.5 -24.5t-4 -25.5t-2 -20.5q0 -68 38.5 -103.5t112.5 -35.5q112 0 181 86h2l-16 -72
h136z" />
    <glyph glyph-name="v" unicode="v" horiz-adv-x="519" 
d="M543 517h-150l-183 -368h-2l-32 368h-146l68 -517h162z" />
    <glyph glyph-name="w" unicode="w" horiz-adv-x="815" 
d="M834 517h-150l-166 -361h-2l-16 361h-144l-159 -364h-2l-20 364h-145l57 -517h149l160 363h2l18 -363h148z" />
    <glyph glyph-name="x" unicode="x" horiz-adv-x="519" 
d="M531 517h-159l-117 -149l-57 149h-152l117 -240l-240 -277h161l138 170l75 -170h150l-131 269z" />
    <glyph glyph-name="y" unicode="y" horiz-adv-x="519" 
d="M543 517h-150l-179 -370h-2l-45 370h-146l92 -512q-7 -10 -13 -22.5t-16 -23t-25 -17.5t-40 -7q-14 0 -29 3t-29 3l-24 -118q19 -1 38 -3t38 -2q40 0 69.5 4.5t52.5 16.5t42 33.5t37 54.5z" />
    <glyph glyph-name="z" unicode="z" horiz-adv-x="500" 
d="M-51 0h469l23 107h-285l325 305l22 105h-434l-23 -107h249l-324 -305z" />
    <glyph glyph-name="braceleft" unicode="{" horiz-adv-x="333" 
d="M411 731h-127q-17 0 -40 -8.5t-45.5 -25t-40.5 -42t-25 -59.5l-39 -188q-5 -25 -18.5 -42.5t-30 -28t-33.5 -15t-29 -4.5l-18 -87q11 0 24.5 -3.5t25 -11.5t19.5 -21t8 -31q0 -4 -0.5 -7.5t-1.5 -8.5l-41 -195q-3 -15 -3 -28q0 -27 9.5 -47t24.5 -33.5t32 -20t32 -6.5
h127l23 112h-54q-23 0 -32.5 10.5t-9.5 24.5q0 9 1 19t3 19l33 160q3 16 3 31q0 22 -9 36.5t-21.5 23.5t-26 13.5t-22.5 5.5v3q12 1 30 6t36.5 17.5t34 35t23.5 59.5l32 152q5 29 20.5 51t48.5 22h54z" />
    <glyph glyph-name="bar" unicode="|" horiz-adv-x="222" 
d="M58 -214h107v1000h-107v-1000z" />
    <glyph glyph-name="braceright" unicode="}" horiz-adv-x="333" 
d="M-110 -182h127q17 0 40 8.5t45.5 25t40.5 42t25 59.5l39 188q5 25 18.5 42.5t30 28t33.5 15t29 4.5l18 87q-11 0 -24.5 3.5t-25 11.5t-19.5 21t-8 31q0 4 0.5 7.5t1.5 8.5l41 195q3 15 3 28q0 27 -9.5 47t-24.5 33.5t-32 20t-32 6.5h-127l-23 -112h54q23 0 32.5 -10.5
t9.5 -24.5q0 -9 -1 -19t-3 -19l-33 -160q-3 -17 -3 -31q0 -22 9 -37t21.5 -24t26 -13t22.5 -5v-3q-12 -2 -30 -6.5t-36.5 -17t-34.5 -35t-23 -59.5l-32 -152q-5 -29 -20.5 -51t-48.5 -22h-54z" />
    <glyph glyph-name="asciitilde" unicode="~" horiz-adv-x="600" 
d="M493 344l-18 -26t-19.5 -23t-23 -16.5t-27.5 -6.5q-20 0 -47 12t-55 24q-29 13 -57 22.5t-54 9.5q-25 0 -44.5 -7.5t-34.5 -19.5t-26.5 -27.5t-19.5 -31.5l40 -93q6 13 13.5 26t18 23t23 16.5t29.5 6.5q35 0 63 -10.5t52 -24.5q25 -14 49.5 -23.5t52.5 -9.5
q23 0 41.5 7.5t33 19.5t27 27.5t23.5 31.5z" />
    <glyph glyph-name="quotesinglbase" horiz-adv-x="278" 
d="M-13 0h69q-8 -43 -26.5 -66t-62.5 -31l-15 -70q48 2 82 15.5t56.5 36t35 52.5t19.5 63l32 154h-158z" />
    <glyph glyph-name="quotesinglbase" unicode="&#x201a;" horiz-adv-x="278" 
d="M-13 0h69q-8 -43 -26.5 -66t-62.5 -31l-15 -70q48 2 82 15.5t56.5 36t35 52.5t19.5 63l32 154h-158z" />
    <glyph glyph-name="quotedblbase" horiz-adv-x="481" 
d="M-11 0h69q-8 -43 -26.5 -66t-62.5 -31l-15 -70q48 2 82 15.5t56.5 36t35 52.5t19.5 63l32 154h-158zM200 0h69q-8 -43 -26.5 -66t-62.5 -31l-15 -70q48 2 82 15.5t56.5 36t35 52.5t19.5 63l32 154h-158z" />
    <glyph glyph-name="quotedblbase" unicode="&#x201e;" horiz-adv-x="481" 
d="M-11 0h69q-8 -43 -26.5 -66t-62.5 -31l-15 -70q48 2 82 15.5t56.5 36t35 52.5t19.5 63l32 154h-158zM200 0h69q-8 -43 -26.5 -66t-62.5 -31l-15 -70q48 2 82 15.5t56.5 36t35 52.5t19.5 63l32 154h-158z" />
    <glyph glyph-name="ellipsis" unicode="&#x85;" horiz-adv-x="1000" 
d="M349 0h158l33 154h-158zM682 0h158l33 154h-158zM16 0h158l33 154h-158z" />
    <glyph glyph-name="ellipsis" unicode="&#x2026;" horiz-adv-x="1000" 
d="M349 0h158l33 154h-158zM682 0h158l33 154h-158zM16 0h158l33 154h-158z" />
    <glyph glyph-name="dagger" horiz-adv-x="593" 
d="M124 -166h132l118 566h188l25 117h-188l41 197h-132l-41 -197h-188l-25 -117h188z" />
    <glyph glyph-name="dagger" unicode="&#x2020;" horiz-adv-x="593" 
d="M124 -166h132l118 566h188l25 117h-188l41 197h-132l-41 -197h-188l-25 -117h188z" />
    <glyph glyph-name="daggerdbl" horiz-adv-x="593" 
d="M124 -166h132l41 193h188l24 117h-188l54 256h188l25 117h-188l41 197h-132l-41 -197h-188l-23 -117h186l-54 -256h-188l-24 -117h188z" />
    <glyph glyph-name="daggerdbl" unicode="&#x2021;" horiz-adv-x="593" 
d="M124 -166h132l41 193h188l24 117h-188l54 256h188l25 117h-188l41 197h-132l-41 -197h-188l-23 -117h186l-54 -256h-188l-24 -117h188z" />
    <glyph glyph-name="perthousand" horiz-adv-x="1130" 
d="M404 120q0 -60 31 -97t94 -37q46 0 79.5 19t55 49.5t32 70t10.5 80.5q0 61 -34.5 93t-95.5 32q-43 0 -75 -18t-53.5 -48t-32.5 -67.5t-11 -76.5zM494 113q0 16 4.5 42t14 50.5t24.5 42t37 17.5t32 -17t10 -37q0 -17 -4 -44.5t-13.5 -53t-25 -44t-37.5 -18.5
q-12 0 -20.5 6t-13 15t-6.5 20t-2 21zM755 120q0 -60 31 -97t94 -37q46 0 79.5 19t55 49.5t32 70t10.5 80.5q0 61 -34.5 93t-95.5 32q-43 0 -75 -18t-53.5 -48t-32.5 -67.5t-11 -76.5zM845 113q0 16 4.5 42t14 50.5t24.5 42t37 17.5t32 -17t10 -37q0 -17 -4 -44.5t-13.5 -53
t-25 -44t-37.5 -18.5q-12 0 -20.5 6t-13 15t-6.5 20t-2 21zM70 504q0 -60 31 -97t94 -37q46 0 79.5 19t55 49.5t32 70t10.5 80.5q0 61 -34.5 93t-95.5 32q-43 0 -75 -18t-53.5 -48t-32.5 -67.5t-11 -76.5zM160 497q0 16 4.5 42t14 50.5t24.5 42t37 17.5t32 -17t10 -37
q0 -17 -4 -44.5t-13.5 -53t-25 -44t-37.5 -18.5q-12 0 -20.5 6t-13 15t-6.5 20t-2 21zM76 -22h86l537 744h-85z" />
    <glyph glyph-name="perthousand" unicode="&#x2030;" horiz-adv-x="1130" 
d="M404 120q0 -60 31 -97t94 -37q46 0 79.5 19t55 49.5t32 70t10.5 80.5q0 61 -34.5 93t-95.5 32q-43 0 -75 -18t-53.5 -48t-32.5 -67.5t-11 -76.5zM494 113q0 16 4.5 42t14 50.5t24.5 42t37 17.5t32 -17t10 -37q0 -17 -4 -44.5t-13.5 -53t-25 -44t-37.5 -18.5
q-12 0 -20.5 6t-13 15t-6.5 20t-2 21zM755 120q0 -60 31 -97t94 -37q46 0 79.5 19t55 49.5t32 70t10.5 80.5q0 61 -34.5 93t-95.5 32q-43 0 -75 -18t-53.5 -48t-32.5 -67.5t-11 -76.5zM845 113q0 16 4.5 42t14 50.5t24.5 42t37 17.5t32 -17t10 -37q0 -17 -4 -44.5t-13.5 -53
t-25 -44t-37.5 -18.5q-12 0 -20.5 6t-13 15t-6.5 20t-2 21zM70 504q0 -60 31 -97t94 -37q46 0 79.5 19t55 49.5t32 70t10.5 80.5q0 61 -34.5 93t-95.5 32q-43 0 -75 -18t-53.5 -48t-32.5 -67.5t-11 -76.5zM160 497q0 16 4.5 42t14 50.5t24.5 42t37 17.5t32 -17t10 -37
q0 -17 -4 -44.5t-13.5 -53t-25 -44t-37.5 -18.5q-12 0 -20.5 6t-13 15t-6.5 20t-2 21zM76 -22h86l537 744h-85z" />
    <glyph glyph-name="Scaron" horiz-adv-x="648" 
d="M5 237q0 -130 74 -192t223 -62q51 0 103 13t93.5 41t68 73t26.5 109q0 48 -14 81t-39.5 56t-60.5 37.5t-77 25.5q-18 4 -47 10.5t-56.5 18t-47 28.5t-19.5 44q0 25 11 42t29 27.5t40 15t45 4.5q27 0 51 -5.5t41.5 -18.5t27 -33.5t8.5 -50.5h149q0 62 -21.5 105.5
t-58 71.5t-85 40.5t-103.5 12.5q-52 0 -102.5 -12.5t-90.5 -39t-65 -68.5t-25 -102q0 -46 15.5 -78t41 -53.5t57.5 -36t66 -24.5q33 -10 65.5 -19t58 -20.5t41.5 -28.5t16 -43q0 -27 -12.5 -46t-32 -31t-43.5 -18t-48 -6q-34 0 -63 6.5t-50 21.5t-32 40.5t-9 63.5h-149z
M572 904h-109l-87 -83l-50 83h-100l83 -142h126z" />
    <glyph glyph-name="Scaron" unicode="&#x160;" horiz-adv-x="648" 
d="M5 237q0 -130 74 -192t223 -62q51 0 103 13t93.5 41t68 73t26.5 109q0 48 -14 81t-39.5 56t-60.5 37.5t-77 25.5q-18 4 -47 10.5t-56.5 18t-47 28.5t-19.5 44q0 25 11 42t29 27.5t40 15t45 4.5q27 0 51 -5.5t41.5 -18.5t27 -33.5t8.5 -50.5h149q0 62 -21.5 105.5
t-58 71.5t-85 40.5t-103.5 12.5q-52 0 -102.5 -12.5t-90.5 -39t-65 -68.5t-25 -102q0 -46 15.5 -78t41 -53.5t57.5 -36t66 -24.5q33 -10 65.5 -19t58 -20.5t41.5 -28.5t16 -43q0 -27 -12.5 -46t-32 -31t-43.5 -18t-48 -6q-34 0 -63 6.5t-50 21.5t-32 40.5t-9 63.5h-149z
M572 904h-109l-87 -83l-50 83h-100l83 -142h126z" />
    <glyph glyph-name="guilsinglleft" horiz-adv-x="259" 
d="M145 80l22 107l-77 85l110 68l26 123l-181 -115l-28 -130z" />
    <glyph glyph-name="guilsinglleft" unicode="&#x2039;" horiz-adv-x="259" 
d="M145 80l22 107l-77 85l110 68l26 123l-181 -115l-28 -130z" />
    <glyph glyph-name="Sacute" horiz-adv-x="648" 
d="M5 237q0 -130 74 -192t223 -62q51 0 103 13t93.5 41t68 73t26.5 109q0 48 -14 81t-39.5 56t-60.5 37.5t-77 25.5q-18 4 -47 10.5t-56.5 18t-47 28.5t-19.5 44q0 25 11 42t29 27.5t40 15t45 4.5q27 0 51 -5.5t41.5 -18.5t27 -33.5t8.5 -50.5h149q0 62 -21.5 105.5
t-58 71.5t-85 40.5t-103.5 12.5q-52 0 -102.5 -12.5t-90.5 -39t-65 -68.5t-25 -102q0 -46 15.5 -78t41 -53.5t57.5 -36t66 -24.5q33 -10 65.5 -19t58 -20.5t41.5 -28.5t16 -43q0 -27 -12.5 -46t-32 -31t-43.5 -18t-48 -6q-34 0 -63 6.5t-50 21.5t-32 40.5t-9 63.5h-149z
M545 904h-152l-88 -142h100z" />
    <glyph glyph-name="Sacute" unicode="&#x15a;" horiz-adv-x="648" 
d="M5 237q0 -130 74 -192t223 -62q51 0 103 13t93.5 41t68 73t26.5 109q0 48 -14 81t-39.5 56t-60.5 37.5t-77 25.5q-18 4 -47 10.5t-56.5 18t-47 28.5t-19.5 44q0 25 11 42t29 27.5t40 15t45 4.5q27 0 51 -5.5t41.5 -18.5t27 -33.5t8.5 -50.5h149q0 62 -21.5 105.5
t-58 71.5t-85 40.5t-103.5 12.5q-52 0 -102.5 -12.5t-90.5 -39t-65 -68.5t-25 -102q0 -46 15.5 -78t41 -53.5t57.5 -36t66 -24.5q33 -10 65.5 -19t58 -20.5t41.5 -28.5t16 -43q0 -27 -12.5 -46t-32 -31t-43.5 -18t-48 -6q-34 0 -63 6.5t-50 21.5t-32 40.5t-9 63.5h-149z
M545 904h-152l-88 -142h100z" />
    <glyph glyph-name="Tcaron" 
d="M156 0h158l122 582h214l28 132h-596l-28 -132h224zM577 904h-109l-87 -83l-50 83h-100l83 -142h126z" />
    <glyph glyph-name="Tcaron" unicode="&#x164;" 
d="M156 0h158l122 582h214l28 132h-596l-28 -132h224zM577 904h-109l-87 -83l-50 83h-100l83 -142h126z" />
    <glyph glyph-name="Zcaron" horiz-adv-x="648" 
d="M-43 0h601l26 132h-403l481 456l26 126h-564l-29 -132h366l-477 -452zM608 904h-109l-87 -83l-50 83h-100l83 -142h126z" />
    <glyph glyph-name="Zcaron" unicode="&#x17d;" horiz-adv-x="648" 
d="M-43 0h601l26 132h-403l481 456l26 126h-564l-29 -132h366l-477 -452zM608 904h-109l-87 -83l-50 83h-100l83 -142h126z" />
    <glyph glyph-name="Zacute" horiz-adv-x="648" 
d="M-43 0h601l26 132h-403l481 456l26 126h-564l-29 -132h366l-477 -452zM569 904h-152l-88 -142h100z" />
    <glyph glyph-name="Zacute" unicode="&#x179;" horiz-adv-x="648" 
d="M-43 0h601l26 132h-403l481 456l26 126h-564l-29 -132h366l-477 -452zM569 904h-152l-88 -142h100z" />
    <glyph glyph-name="quoteleft" horiz-adv-x="278" 
d="M268 547h-69q8 43 26.5 66t62.5 31l15 70q-48 -2 -82 -16t-56.5 -36.5t-35 -52t-19.5 -62.5l-32 -154h158z" />
    <glyph glyph-name="quoteleft" unicode="&#x2018;" horiz-adv-x="278" 
d="M268 547h-69q8 43 26.5 66t62.5 31l15 70q-48 -2 -82 -16t-56.5 -36.5t-35 -52t-19.5 -62.5l-32 -154h158z" />
    <glyph glyph-name="quoteright" horiz-adv-x="278" 
d="M110 560h69q-8 -43 -26.5 -66t-62.5 -31l-15 -70q48 2 82 15.5t56.5 36t35 52.5t19.5 63l32 154h-158z" />
    <glyph glyph-name="quoteright" unicode="&#x2019;" horiz-adv-x="278" 
d="M110 560h69q-8 -43 -26.5 -66t-62.5 -31l-15 -70q48 2 82 15.5t56.5 36t35 52.5t19.5 63l32 154h-158z" />
    <glyph glyph-name="quotedblleft" horiz-adv-x="481" 
d="M256 547h-69q8 43 26.5 66t62.5 31l15 70q-48 -2 -82 -16t-56.5 -36.5t-35 -52t-19.5 -62.5l-32 -154h158zM467 547h-69q8 43 26.5 66t62.5 31l15 70q-48 -2 -82 -16t-56.5 -36.5t-35 -52t-19.5 -62.5l-32 -154h158z" />
    <glyph glyph-name="quotedblleft" unicode="&#x201c;" horiz-adv-x="481" 
d="M256 547h-69q8 43 26.5 66t62.5 31l15 70q-48 -2 -82 -16t-56.5 -36.5t-35 -52t-19.5 -62.5l-32 -154h158zM467 547h-69q8 43 26.5 66t62.5 31l15 70q-48 -2 -82 -16t-56.5 -36.5t-35 -52t-19.5 -62.5l-32 -154h158z" />
    <glyph glyph-name="quotedblright" horiz-adv-x="481" 
d="M309 560h69q-8 -43 -26.5 -66t-62.5 -31l-15 -70q48 2 82 15.5t56.5 36t35 52.5t19.5 63l32 154h-158zM98 560h69q-8 -43 -26.5 -66t-62.5 -31l-15 -70q48 2 82 15.5t56.5 36t35 52.5t19.5 63l32 154h-158z" />
    <glyph glyph-name="quotedblright" unicode="&#x201d;" horiz-adv-x="481" 
d="M309 560h69q-8 -43 -26.5 -66t-62.5 -31l-15 -70q48 2 82 15.5t56.5 36t35 52.5t19.5 63l32 154h-158zM98 560h69q-8 -43 -26.5 -66t-62.5 -31l-15 -70q48 2 82 15.5t56.5 36t35 52.5t19.5 63l32 154h-158z" />
    <glyph glyph-name="bullet" horiz-adv-x="500" 
d="M72 357q0 -37 14 -69.5t38 -57t56.5 -38.5t69.5 -14t69.5 14t57 38.5t38.5 57t14 69.5t-14 69.5t-38.5 56.5t-57 38t-69.5 14t-69.5 -14t-56.5 -38t-38 -56.5t-14 -69.5z" />
    <glyph glyph-name="bullet" unicode="&#x2022;" horiz-adv-x="500" 
d="M72 357q0 -37 14 -69.5t38 -57t56.5 -38.5t69.5 -14t69.5 14t57 38.5t38.5 57t14 69.5t-14 69.5t-38.5 56.5t-57 38t-69.5 14t-69.5 -14t-56.5 -38t-38 -56.5t-14 -69.5z" />
    <glyph glyph-name="endash" horiz-adv-x="500" 
d="M-29 212h500l26 122h-500z" />
    <glyph glyph-name="endash" unicode="&#x2013;" horiz-adv-x="500" 
d="M-29 212h500l26 122h-500z" />
    <glyph glyph-name="emdash" horiz-adv-x="1000" 
d="M101 212h740l26 122h-740z" />
    <glyph glyph-name="emdash" unicode="&#x2014;" horiz-adv-x="1000" 
d="M101 212h740l26 122h-740z" />
    <glyph glyph-name="trademark" horiz-adv-x="990" 
d="M928 714h-135l-103 -271l-103 271h-136v-412h96v292h2l106 -292h69l106 292h2v-292h96v412zM398 714h-336v-80h117v-332h102v332h117v80z" />
    <glyph glyph-name="trademark" unicode="&#x2122;" horiz-adv-x="990" 
d="M928 714h-135l-103 -271l-103 271h-136v-412h96v292h2l106 -292h69l106 292h2v-292h96v412zM398 714h-336v-80h117v-332h102v332h117v80z" />
    <glyph glyph-name="scaron" horiz-adv-x="519" 
d="M484 366q1 50 -16.5 82t-46.5 50.5t-68 25.5t-81 7q-38 0 -78 -8.5t-74 -28t-55.5 -50.5t-21.5 -77q0 -30 7.5 -51.5t22 -36.5t35 -25t47.5 -19l109 -35q23 -8 37 -19t14 -38q0 -18 -8 -29.5t-21 -19t-29 -10.5t-32 -3q-18 0 -36.5 4.5t-33 13t-23.5 21.5t-9 31v17h-132
v-21q0 -45 20 -76t52 -50t71 -27t77 -8q45 0 89 9.5t79 30.5t56.5 54.5t21.5 81.5q0 33 -10.5 56.5t-29 40.5t-43.5 29.5t-53 21.5l-71 23q-36 11 -50.5 23t-14.5 29q0 28 24.5 39.5t62.5 11.5q41 0 60 -18.5t20 -51.5h132zM471 723h-109l-87 -83l-50 83h-100l83 -142h126z
" />
    <glyph glyph-name="scaron" unicode="&#x161;" horiz-adv-x="519" 
d="M484 366q1 50 -16.5 82t-46.5 50.5t-68 25.5t-81 7q-38 0 -78 -8.5t-74 -28t-55.5 -50.5t-21.5 -77q0 -30 7.5 -51.5t22 -36.5t35 -25t47.5 -19l109 -35q23 -8 37 -19t14 -38q0 -18 -8 -29.5t-21 -19t-29 -10.5t-32 -3q-18 0 -36.5 4.5t-33 13t-23.5 21.5t-9 31v17h-132
v-21q0 -45 20 -76t52 -50t71 -27t77 -8q45 0 89 9.5t79 30.5t56.5 54.5t21.5 81.5q0 33 -10.5 56.5t-29 40.5t-43.5 29.5t-53 21.5l-71 23q-36 11 -50.5 23t-14.5 29q0 28 24.5 39.5t62.5 11.5q41 0 60 -18.5t20 -51.5h132zM471 723h-109l-87 -83l-50 83h-100l83 -142h126z
" />
    <glyph glyph-name="guilsinglright" horiz-adv-x="259" 
d="M76 463l-22 -107l77 -85l-110 -68l-26 -123l181 115l28 130z" />
    <glyph glyph-name="guilsinglright" unicode="&#x203a;" horiz-adv-x="259" 
d="M76 463l-22 -107l77 -85l-110 -68l-26 -123l181 115l28 130z" />
    <glyph glyph-name="sacute" horiz-adv-x="519" 
d="M484 366q1 50 -16.5 82t-46.5 50.5t-68 25.5t-81 7q-38 0 -78 -8.5t-74 -28t-55.5 -50.5t-21.5 -77q0 -30 7.5 -51.5t22 -36.5t35 -25t47.5 -19l109 -35q23 -8 37 -19t14 -38q0 -18 -8 -29.5t-21 -19t-29 -10.5t-32 -3q-18 0 -36.5 4.5t-33 13t-23.5 21.5t-9 31v17h-132
v-21q0 -45 20 -76t52 -50t71 -27t77 -8q45 0 89 9.5t79 30.5t56.5 54.5t21.5 81.5q0 33 -10.5 56.5t-29 40.5t-43.5 29.5t-53 21.5l-71 23q-36 11 -50.5 23t-14.5 29q0 28 24.5 39.5t62.5 11.5q41 0 60 -18.5t20 -51.5h132zM450 723h-152l-88 -142h100z" />
    <glyph glyph-name="sacute" unicode="&#x15b;" horiz-adv-x="519" 
d="M484 366q1 50 -16.5 82t-46.5 50.5t-68 25.5t-81 7q-38 0 -78 -8.5t-74 -28t-55.5 -50.5t-21.5 -77q0 -30 7.5 -51.5t22 -36.5t35 -25t47.5 -19l109 -35q23 -8 37 -19t14 -38q0 -18 -8 -29.5t-21 -19t-29 -10.5t-32 -3q-18 0 -36.5 4.5t-33 13t-23.5 21.5t-9 31v17h-132
v-21q0 -45 20 -76t52 -50t71 -27t77 -8q45 0 89 9.5t79 30.5t56.5 54.5t21.5 81.5q0 33 -10.5 56.5t-29 40.5t-43.5 29.5t-53 21.5l-71 23q-36 11 -50.5 23t-14.5 29q0 28 24.5 39.5t62.5 11.5q41 0 60 -18.5t20 -51.5h132zM450 723h-152l-88 -142h100z" />
    <glyph glyph-name="tcaron" horiz-adv-x="432" 
d="M310 674h-142l-32 -157h-91l-22 -95h93l-58 -277q-3 -14 -5 -26.5t-2 -22.5q-1 -32 11 -52t31 -32t43.5 -16.5t49.5 -4.5q23 0 45 1.5t44 3.5l24 110q-26 -3 -51 -3q-8 0 -16.5 0.5t-15.5 4.5t-11.5 11.5t-4.5 21.5q0 3 1 9.5t3 14.5l53 257h101l22 95h-102zM378 671h54
q-7 -33 -21 -51t-49 -23l-11 -56q57 2 87.5 25.5t46.5 59.5t22.5 79t17.5 85h-122z" />
    <glyph glyph-name="tcaron" unicode="&#x165;" horiz-adv-x="432" 
d="M310 674h-142l-32 -157h-91l-22 -95h93l-58 -277q-3 -14 -5 -26.5t-2 -22.5q-1 -32 11 -52t31 -32t43.5 -16.5t49.5 -4.5q23 0 45 1.5t44 3.5l24 110q-26 -3 -51 -3q-8 0 -16.5 0.5t-15.5 4.5t-11.5 11.5t-4.5 21.5q0 3 1 9.5t3 14.5l53 257h101l22 95h-102zM378 671h54
q-7 -33 -21 -51t-49 -23l-11 -56q57 2 87.5 25.5t46.5 59.5t22.5 79t17.5 85h-122z" />
    <glyph glyph-name="zcaron" horiz-adv-x="500" 
d="M-51 0h469l23 107h-285l325 305l22 105h-434l-23 -107h249l-324 -305zM498 723h-109l-87 -83l-50 83h-100l83 -142h126z" />
    <glyph glyph-name="zcaron" unicode="&#x17e;" horiz-adv-x="500" 
d="M-51 0h469l23 107h-285l325 305l22 105h-434l-23 -107h249l-324 -305zM498 723h-109l-87 -83l-50 83h-100l83 -142h126z" />
    <glyph glyph-name="zacute" horiz-adv-x="500" 
d="M-51 0h469l23 107h-285l325 305l22 105h-434l-23 -107h249l-324 -305zM483 723h-152l-88 -142h100z" />
    <glyph glyph-name="zacute" unicode="&#x17a;" horiz-adv-x="500" 
d="M-51 0h469l23 107h-285l325 305l22 105h-434l-23 -107h249l-324 -305zM483 723h-152l-88 -142h100z" />
    <glyph glyph-name="caron" unicode="&#xa1;" horiz-adv-x="259" 
d="M377 723h-109l-87 -83l-50 83h-100l83 -142h126z" />
    <glyph glyph-name="caron" unicode="&#x2c7;" horiz-adv-x="259" 
d="M377 723h-109l-87 -83l-50 83h-100l83 -142h126z" />
    <glyph glyph-name="breve" unicode="&#xa2;" horiz-adv-x="259" 
d="M38 727q0 -67 40.5 -106.5t109.5 -39.5q76 0 122.5 38t66.5 108h-66q-18 -34 -43.5 -52.5t-70.5 -18.5q-38 0 -64.5 17t-29.5 54h-65z" />
    <glyph glyph-name="breve" unicode="&#x2d8;" horiz-adv-x="259" 
d="M38 727q0 -67 40.5 -106.5t109.5 -39.5q76 0 122.5 38t66.5 108h-66q-18 -34 -43.5 -52.5t-70.5 -18.5q-38 0 -64.5 17t-29.5 54h-65z" />
    <glyph glyph-name="Lslash" unicode="&#xa3;" horiz-adv-x="574" 
d="M-4 0h503l28 132h-346l41 194l202 139l26 115l-204 -140l58 274h-158l-84 -401l-85 -58l-21 -111l82 56z" />
    <glyph glyph-name="Lslash" unicode="&#x141;" horiz-adv-x="574" 
d="M-4 0h503l28 132h-346l41 194l202 139l26 115l-204 -140l58 274h-158l-84 -401l-85 -58l-21 -111l82 56z" />
    <glyph glyph-name="currency" unicode="&#xa4;" horiz-adv-x="556" 
d="M20 149l56 -56l56 58q26 -24 64.5 -36.5t82.5 -12.5q42 0 80 13t63 37l57 -58l55 55l-55 56q23 28 34.5 66t11.5 80t-11.5 80.5t-33.5 62.5l56 55l-61 61l-58 -57q-23 20 -60 32.5t-77 12.5q-42 0 -81.5 -12.5t-64.5 -33.5l-57 56l-57 -57l57 -58q-25 -25 -36.5 -63.5
t-11.5 -80.5t12.5 -78.5t35.5 -63.5zM280 491q29 0 51 -12t37 -31.5t22.5 -45t7.5 -51.5q0 -27 -7.5 -52.5t-22.5 -45.5t-37 -32t-52 -12t-52.5 11.5t-38.5 31t-24 45t-8 52.5q0 28 8 53.5t23.5 45t39 31.5t53.5 12z" />
    <glyph glyph-name="Aogonek" unicode="&#xa5;" horiz-adv-x="685" 
d="M395 560h2l35 -284h-191zM-77 0h166l90 159h267l23 -159h46q-48 -19 -76 -37.5t-43 -35t-19 -31t-4 -24.5q0 -32 13 -50t31 -27t36 -11t27 -2q34 0 69 15t65 53l-48 22q-14 -19 -28 -24.5t-30 -5.5q-15 0 -27 9.5t-12 24.5q0 12 4.5 25.5t17 28.5t35 32t57.5 38h42
l-119 714h-161z" />
    <glyph glyph-name="Aogonek" unicode="&#x104;" horiz-adv-x="685" 
d="M395 560h2l35 -284h-191zM-77 0h166l90 159h267l23 -159h46q-48 -19 -76 -37.5t-43 -35t-19 -31t-4 -24.5q0 -32 13 -50t31 -27t36 -11t27 -2q34 0 69 15t65 53l-48 22q-14 -19 -28 -24.5t-30 -5.5q-15 0 -27 9.5t-12 24.5q0 12 4.5 25.5t17 28.5t35 32t57.5 38h42
l-119 714h-161z" />
    <glyph glyph-name="brokenbar" unicode="&#xa6;" horiz-adv-x="222" 
d="M58 -89h107v250h-107v-250zM165 661h-107v-250h107v250z" />
    <glyph glyph-name="section" unicode="&#xa7;" horiz-adv-x="593" 
d="M213 256q-11 10 -21.5 18t-18.5 17.5t-12.5 21t-4.5 28.5q0 13 5.5 24.5t14.5 20t20.5 13.5t23.5 5q13 0 21.5 -2t15 -6t14 -11t18.5 -16l63 -53q12 -10 24.5 -20t23 -21.5t17 -25t6.5 -31.5q0 -29 -21 -46.5t-48 -17.5q-10 0 -19.5 4.5t-18.5 11.5t-16.5 14t-14.5 13z
M8 17q-2 -50 13.5 -87t44.5 -62t69 -37.5t87 -12.5q43 0 84 11.5t72.5 34t51 56t19.5 77.5q0 23 -7.5 46.5t-22.5 40.5q23 6 46.5 18.5t42 32t30.5 46.5t12 60q0 52 -29 89t-69 67l-92 66q-10 6 -23.5 16.5t-25.5 23t-20.5 26t-8.5 27.5q0 32 22 50t55 18q40 0 58.5 -24
t16.5 -59h127q6 48 -8 83.5t-41.5 59t-66.5 35t-82 12.5q-38 0 -77.5 -10.5t-71.5 -32t-53 -53.5t-21 -74q0 -28 7.5 -44.5t24.5 -39.5q-63 -8 -103 -51t-40 -106q0 -46 26 -84t64 -64l101 -73q12 -8 27 -19t28.5 -25t22.5 -29.5t9 -30.5q0 -20 -7.5 -33.5t-20 -21.5
t-28.5 -11.5t-33 -3.5q-41 0 -63.5 27t-19.5 65h-127z" />
    <glyph glyph-name="dieresis" unicode="&#xa8;" horiz-adv-x="259" 
d="M213 597h131l24 117h-131zM17 597h131l24 117h-131z" />
    <glyph glyph-name="copyright" unicode="&#xa9;" horiz-adv-x="800" 
d="M16 357q0 -85 31.5 -154t84.5 -118t122.5 -75.5t145.5 -26.5t145.5 26.5t122.5 75.5t84.5 118t31.5 154t-31.5 154.5t-84.5 118t-122.5 75t-145.5 26.5t-145.5 -26.5t-122.5 -75t-84.5 -118t-31.5 -154.5zM118 357q0 64 22 118t60 93t89.5 61t110.5 22q58 0 109.5 -22
t89.5 -61t60.5 -93t22.5 -118t-22.5 -118t-60.5 -93t-89.5 -61t-109.5 -22q-59 0 -110.5 22t-89.5 61t-60 93t-22 118zM515 295q-5 -36 -32 -57t-69 -21q-27 0 -49 11.5t-37.5 31t-24 46t-8.5 55.5q0 62 30 102t87 40q39 0 67 -20t36 -55h78q-5 38 -21 67t-40 48.5t-55 29.5
t-65 10q-50 0 -89.5 -17t-67 -47t-42 -71t-14.5 -89q0 -47 15.5 -87.5t43.5 -70.5t67.5 -47t88.5 -17q33 0 63.5 10.5t55 31t41 49.5t22.5 67h-81z" />
    <glyph glyph-name="Scedilla" unicode="&#xaa;" horiz-adv-x="648" 
d="M5 237q0 -121 64 -182.5t193 -69.5l-47 -68l21 -24q19 7 40 7q17 0 28.5 -6.5t11.5 -25.5q0 -18 -11 -26t-29 -8q-26 0 -47 5.5t-37 12.5l-21 -48q14 -5 26.5 -9t26 -7t30.5 -4.5t41 -1.5q22 0 43 4.5t37.5 16t26.5 31t10 48.5q0 18 -8 31.5t-21 22t-29.5 12.5t-33.5 4
q-24 0 -34 -5h-2l25 37q50 0 100.5 13t91.5 41.5t66.5 73t25.5 107.5q0 48 -14 81t-39.5 56t-60.5 37.5t-77 25.5q-18 4 -47 10.5t-56.5 18t-47 28.5t-19.5 44q0 25 11 42t29 27.5t40 15t45 4.5q27 0 51 -5.5t41.5 -18.5t27 -33.5t8.5 -50.5h149q0 62 -21.5 105.5t-58 71.5
t-85 40.5t-103.5 12.5q-52 0 -102.5 -12.5t-90.5 -39t-65 -68.5t-25 -102q0 -46 15.5 -78t41 -53.5t57.5 -36t66 -24.5q33 -10 65.5 -19t58 -20.5t41.5 -28.5t16 -43q0 -27 -12.5 -46t-32 -31t-43.5 -18t-48 -6q-34 0 -63 6.5t-50 21.5t-32 40.5t-9 63.5h-149z" />
    <glyph glyph-name="Scedilla" unicode="&#xf6c1;" horiz-adv-x="648" 
d="M5 237q0 -121 64 -182.5t193 -69.5l-47 -68l21 -24q19 7 40 7q17 0 28.5 -6.5t11.5 -25.5q0 -18 -11 -26t-29 -8q-26 0 -47 5.5t-37 12.5l-21 -48q14 -5 26.5 -9t26 -7t30.5 -4.5t41 -1.5q22 0 43 4.5t37.5 16t26.5 31t10 48.5q0 18 -8 31.5t-21 22t-29.5 12.5t-33.5 4
q-24 0 -34 -5h-2l25 37q50 0 100.5 13t91.5 41.5t66.5 73t25.5 107.5q0 48 -14 81t-39.5 56t-60.5 37.5t-77 25.5q-18 4 -47 10.5t-56.5 18t-47 28.5t-19.5 44q0 25 11 42t29 27.5t40 15t45 4.5q27 0 51 -5.5t41.5 -18.5t27 -33.5t8.5 -50.5h149q0 62 -21.5 105.5t-58 71.5
t-85 40.5t-103.5 12.5q-52 0 -102.5 -12.5t-90.5 -39t-65 -68.5t-25 -102q0 -46 15.5 -78t41 -53.5t57.5 -36t66 -24.5q33 -10 65.5 -19t58 -20.5t41.5 -28.5t16 -43q0 -27 -12.5 -46t-32 -31t-43.5 -18t-48 -6q-34 0 -63 6.5t-50 21.5t-32 40.5t-9 63.5h-149z" />
    <glyph glyph-name="Scedilla" unicode="&#x15e;" horiz-adv-x="648" 
d="M5 237q0 -121 64 -182.5t193 -69.5l-47 -68l21 -24q19 7 40 7q17 0 28.5 -6.5t11.5 -25.5q0 -18 -11 -26t-29 -8q-26 0 -47 5.5t-37 12.5l-21 -48q14 -5 26.5 -9t26 -7t30.5 -4.5t41 -1.5q22 0 43 4.5t37.5 16t26.5 31t10 48.5q0 18 -8 31.5t-21 22t-29.5 12.5t-33.5 4
q-24 0 -34 -5h-2l25 37q50 0 100.5 13t91.5 41.5t66.5 73t25.5 107.5q0 48 -14 81t-39.5 56t-60.5 37.5t-77 25.5q-18 4 -47 10.5t-56.5 18t-47 28.5t-19.5 44q0 25 11 42t29 27.5t40 15t45 4.5q27 0 51 -5.5t41.5 -18.5t27 -33.5t8.5 -50.5h149q0 62 -21.5 105.5t-58 71.5
t-85 40.5t-103.5 12.5q-52 0 -102.5 -12.5t-90.5 -39t-65 -68.5t-25 -102q0 -46 15.5 -78t41 -53.5t57.5 -36t66 -24.5q33 -10 65.5 -19t58 -20.5t41.5 -28.5t16 -43q0 -27 -12.5 -46t-32 -31t-43.5 -18t-48 -6q-34 0 -63 6.5t-50 21.5t-32 40.5t-9 63.5h-149z" />
    <glyph glyph-name="guillemotleft" unicode="&#xab;" horiz-adv-x="463" 
d="M345 80l22 107l-77 85l110 68l26 123l-181 -115l-28 -130zM149 80l22 107l-77 85l110 68l26 123l-181 -115l-28 -130z" />
    <glyph glyph-name="registered" unicode="&#xae;" horiz-adv-x="800" 
d="M208 545q0 -43 16 -77.5t42.5 -59t61 -38t72.5 -13.5t73 13.5t61.5 38t42 59t15.5 77.5q0 42 -15.5 76.5t-42 59t-61.5 37.5t-73 13t-72.5 -13t-61 -37.5t-42.5 -59t-16 -76.5zM259 545q0 32 11 58.5t30 46t45 30.5t55 11t55 -11t45 -30.5t30 -46t11 -58.5t-11 -59.5
t-30 -47t-45 -30.5t-55 -11t-55 11t-45 30.5t-30 47t-11 59.5zM326 440h41v90h26l51 -90h44l-56 92q23 2 39 14.5t16 41.5q0 34 -21.5 48t-60.5 14h-79v-210zM367 617h35q14 0 28.5 -4.5t14.5 -21.5q0 -19 -11.5 -24t-29.5 -5h-37v55z" />
    <glyph glyph-name="Zdotaccent" unicode="&#xaf;" horiz-adv-x="648" 
d="M-43 0h601l26 132h-403l481 456l26 126h-564l-29 -132h366l-477 -452zM340 778h131l24 117h-131z" />
    <glyph glyph-name="Zdotaccent" unicode="&#x17b;" horiz-adv-x="648" 
d="M-43 0h601l26 132h-403l481 456l26 126h-564l-29 -132h366l-477 -452zM340 778h131l24 117h-131z" />
    <glyph glyph-name="degree" unicode="&#xb0;" horiz-adv-x="400" 
d="M82 566q0 -31 11.5 -58t31.5 -47t47 -31.5t58 -11.5t58 11.5t47 31.5t31.5 47t11.5 58t-11.5 58t-31.5 47t-47 31.5t-58 11.5t-58 -11.5t-47 -31.5t-31.5 -47t-11.5 -58zM147 566q0 18 7 34t18.5 28t26.5 19t31 7t31 -7t26.5 -19t18.5 -28t7 -34t-7 -34t-18.5 -28
t-26.5 -19t-31 -7t-31 7t-26.5 19t-18.5 28t-7 34z" />
    <glyph glyph-name="plusminus" unicode="&#xb1;" horiz-adv-x="600" 
d="M48 268h199v-131h107v131h199v107h-199v131h-107v-131h-199v-107zM48 0h505v107h-505v-107z" />
    <glyph glyph-name="ogonek" unicode="&#xb2;" horiz-adv-x="259" 
d="M202 -128q-14 -19 -28 -24.5t-30 -5.5q-15 0 -27 9.5t-12 24.5q0 13 5 26.5t18 28.5t36 33t59 39h-65q-50 -19 -79.5 -38t-45 -36t-20 -32t-4.5 -25q0 -32 13 -50t31 -27t36 -11t27 -2q34 0 69 15t65 53z" />
    <glyph glyph-name="ogonek" unicode="&#x2db;" horiz-adv-x="259" 
d="M202 -128q-14 -19 -28 -24.5t-30 -5.5q-15 0 -27 9.5t-12 24.5q0 13 5 26.5t18 28.5t36 33t59 39h-65q-50 -19 -79.5 -38t-45 -36t-20 -32t-4.5 -25q0 -32 13 -50t31 -27t36 -11t27 -2q34 0 69 15t65 53z" />
    <glyph glyph-name="lslash" unicode="&#xb3;" horiz-adv-x="259" 
d="M130 0l87 407l83 63l26 121l-83 -63l39 186h-142l-67 -314l-71 -54l-26 -122l71 54l-59 -278h142z" />
    <glyph glyph-name="lslash" unicode="&#x142;" horiz-adv-x="259" 
d="M130 0l87 407l83 63l26 121l-83 -63l39 186h-142l-67 -314l-71 -54l-26 -122l71 54l-59 -278h142z" />
    <glyph glyph-name="acute" unicode="&#xb4;" horiz-adv-x="259" 
d="M374 723h-152l-88 -142h100z" />
    <glyph glyph-name="mu" unicode="&#xb5;" 
d="M586 517h-142l-58 -275q-6 -27 -17 -53t-29 -46t-42.5 -32.5t-56.5 -12.5q-25 0 -46.5 15t-21.5 38q0 5 1 13.5t2 17.5t2.5 17.5t3.5 14.5l63 303h-142l-150 -699h142l36 173q23 -5 44 -5q112 0 181 86h2l-16 -72h136z" />
    <glyph glyph-name="mu" unicode="&#x3bc;" 
d="M586 517h-142l-58 -275q-6 -27 -17 -53t-29 -46t-42.5 -32.5t-56.5 -12.5q-25 0 -46.5 15t-21.5 38q0 5 1 13.5t2 17.5t2.5 17.5t3.5 14.5l63 303h-142l-150 -699h142l36 173q23 -5 44 -5q112 0 181 86h2l-16 -72h136z" />
    <glyph glyph-name="paragraph" unicode="&#xb6;" horiz-adv-x="600" 
d="M146 -166h96l169 800h111l-169 -800h96l185 880h-282q-52 0 -97.5 -9.5t-81.5 -31t-61 -56.5t-36 -87q-8 -40 0 -72.5t31 -56t60.5 -36t88.5 -12.5z" />
    <glyph glyph-name="periodcentered" unicode="&#xb7;" horiz-adv-x="278" 
d="M43 287q0 -17 7 -32.5t18.5 -27t27 -18t33.5 -6.5q16 0 31.5 7t26.5 19t18 27t7 31q0 35 -25 60t-59 25q-17 0 -32.5 -6.5t-27 -18t-18.5 -27t-7 -33.5z" />
    <glyph glyph-name="periodcentered" unicode="&#x22c5;" horiz-adv-x="278" 
d="M43 287q0 -17 7 -32.5t18.5 -27t27 -18t33.5 -6.5q16 0 31.5 7t26.5 19t18 27t7 31q0 35 -25 60t-59 25q-17 0 -32.5 -6.5t-27 -18t-18.5 -27t-7 -33.5z" />
    <glyph glyph-name="cedilla" unicode="&#xb8;" horiz-adv-x="259" 
d="M12 -196q14 -5 26.5 -9t26 -7t30.5 -4.5t41 -1.5q22 0 43 4.5t37.5 16t26.5 31t10 48.5q0 18 -8 31.5t-21 22t-29.5 12.5t-33.5 4q-24 0 -34 -5h-2l39 55h-49l-59 -85l21 -24q19 7 40 7q17 0 28.5 -6.5t11.5 -25.5q0 -18 -11 -26t-29 -8q-26 0 -47 5.5t-37 12.5z" />
    <glyph glyph-name="aogonek" unicode="&#xb9;" horiz-adv-x="574" 
d="M346 198q-6 -21 -15 -42t-24.5 -37.5t-38 -27t-55.5 -10.5q-31 0 -54.5 14.5t-23.5 43.5q0 24 9 39.5t23.5 24.5t33.5 13.5t39 6.5q31 2 62 5.5t58 19.5zM193 360q7 39 37 57.5t68 18.5q13 0 29 -2.5t29.5 -9.5t22.5 -19.5t9 -31.5q0 -25 -12 -37.5t-36.5 -19t-61.5 -9.5
t-87 -9q-93 -11 -145.5 -56t-52.5 -120q0 -27 10.5 -51.5t31.5 -43.5t52.5 -30t73.5 -11q44 0 86.5 16t71.5 49v-51h43q-48 -19 -76 -37.5t-42.5 -35t-18.5 -31t-4 -24.5q0 -32 13 -50t31 -27t36 -11t27 -2q34 0 69 15t65 53l-48 22q-14 -19 -28 -24.5t-30 -5.5
q-15 0 -27 9.5t-12 24.5q0 12 4.5 25.5t17 28.5t34.5 32t57 38h31q-5 15 -5 30t1.5 35.5t5.5 34.5l46 208q5 24 8 47t3 40q1 43 -19.5 70t-52.5 41.5t-70.5 19.5t-72.5 5q-44 0 -85 -8.5t-74.5 -28.5t-56 -52.5t-29.5 -81.5h133z" />
    <glyph glyph-name="aogonek" unicode="&#x105;" horiz-adv-x="574" 
d="M346 198q-6 -21 -15 -42t-24.5 -37.5t-38 -27t-55.5 -10.5q-31 0 -54.5 14.5t-23.5 43.5q0 24 9 39.5t23.5 24.5t33.5 13.5t39 6.5q31 2 62 5.5t58 19.5zM193 360q7 39 37 57.5t68 18.5q13 0 29 -2.5t29.5 -9.5t22.5 -19.5t9 -31.5q0 -25 -12 -37.5t-36.5 -19t-61.5 -9.5
t-87 -9q-93 -11 -145.5 -56t-52.5 -120q0 -27 10.5 -51.5t31.5 -43.5t52.5 -30t73.5 -11q44 0 86.5 16t71.5 49v-51h43q-48 -19 -76 -37.5t-42.5 -35t-18.5 -31t-4 -24.5q0 -32 13 -50t31 -27t36 -11t27 -2q34 0 69 15t65 53l-48 22q-14 -19 -28 -24.5t-30 -5.5
q-15 0 -27 9.5t-12 24.5q0 12 4.5 25.5t17 28.5t34.5 32t57 38h31q-5 15 -5 30t1.5 35.5t5.5 34.5l46 208q5 24 8 47t3 40q1 43 -19.5 70t-52.5 41.5t-70.5 19.5t-72.5 5q-44 0 -85 -8.5t-74.5 -28.5t-56 -52.5t-29.5 -81.5h133z" />
    <glyph glyph-name="scedilla" unicode="&#xba;" horiz-adv-x="519" 
d="M-9 168v-21q0 -40 16 -68.5t41.5 -47.5t58.5 -29.5t68 -13.5l-49 -71l21 -24q19 7 40 7q17 0 28.5 -6.5t11.5 -25.5q0 -18 -11 -26t-29 -8q-26 0 -47 5.5t-37 12.5l-21 -48q14 -5 26.5 -9t26 -7t30.5 -4.5t41 -1.5q22 0 43 4.5t37.5 16t26.5 31t10 48.5q0 18 -8 31.5
t-21 22t-29.5 12.5t-33.5 4q-24 0 -34 -5h-2l28 40q43 1 85 11t75 31t53.5 53.5t20.5 79.5q0 33 -10.5 56.5t-29 40.5t-43.5 29.5t-53 21.5l-71 23q-36 11 -50.5 23t-14.5 29q0 28 24.5 39.5t62.5 11.5q41 0 60 -18.5t20 -51.5h132q1 50 -16.5 82t-46.5 50.5t-68 25.5t-81 7
q-38 0 -78 -8.5t-74 -28t-55.5 -50.5t-21.5 -77q0 -30 7.5 -51.5t22 -36.5t35 -25t47.5 -19l109 -35q23 -8 37 -19t14 -38q0 -18 -8 -29.5t-21 -19t-29 -10.5t-32 -3q-18 0 -36.5 4.5t-33 13t-23.5 21.5t-9 31v17h-132z" />
    <glyph glyph-name="scedilla" unicode="&#xf6c2;" horiz-adv-x="519" 
d="M-9 168v-21q0 -40 16 -68.5t41.5 -47.5t58.5 -29.5t68 -13.5l-49 -71l21 -24q19 7 40 7q17 0 28.5 -6.5t11.5 -25.5q0 -18 -11 -26t-29 -8q-26 0 -47 5.5t-37 12.5l-21 -48q14 -5 26.5 -9t26 -7t30.5 -4.5t41 -1.5q22 0 43 4.5t37.5 16t26.5 31t10 48.5q0 18 -8 31.5
t-21 22t-29.5 12.5t-33.5 4q-24 0 -34 -5h-2l28 40q43 1 85 11t75 31t53.5 53.5t20.5 79.5q0 33 -10.5 56.5t-29 40.5t-43.5 29.5t-53 21.5l-71 23q-36 11 -50.5 23t-14.5 29q0 28 24.5 39.5t62.5 11.5q41 0 60 -18.5t20 -51.5h132q1 50 -16.5 82t-46.5 50.5t-68 25.5t-81 7
q-38 0 -78 -8.5t-74 -28t-55.5 -50.5t-21.5 -77q0 -30 7.5 -51.5t22 -36.5t35 -25t47.5 -19l109 -35q23 -8 37 -19t14 -38q0 -18 -8 -29.5t-21 -19t-29 -10.5t-32 -3q-18 0 -36.5 4.5t-33 13t-23.5 21.5t-9 31v17h-132z" />
    <glyph glyph-name="scedilla" unicode="&#x15f;" horiz-adv-x="519" 
d="M-9 168v-21q0 -40 16 -68.5t41.5 -47.5t58.5 -29.5t68 -13.5l-49 -71l21 -24q19 7 40 7q17 0 28.5 -6.5t11.5 -25.5q0 -18 -11 -26t-29 -8q-26 0 -47 5.5t-37 12.5l-21 -48q14 -5 26.5 -9t26 -7t30.5 -4.5t41 -1.5q22 0 43 4.5t37.5 16t26.5 31t10 48.5q0 18 -8 31.5
t-21 22t-29.5 12.5t-33.5 4q-24 0 -34 -5h-2l28 40q43 1 85 11t75 31t53.5 53.5t20.5 79.5q0 33 -10.5 56.5t-29 40.5t-43.5 29.5t-53 21.5l-71 23q-36 11 -50.5 23t-14.5 29q0 28 24.5 39.5t62.5 11.5q41 0 60 -18.5t20 -51.5h132q1 50 -16.5 82t-46.5 50.5t-68 25.5t-81 7
q-38 0 -78 -8.5t-74 -28t-55.5 -50.5t-21.5 -77q0 -30 7.5 -51.5t22 -36.5t35 -25t47.5 -19l109 -35q23 -8 37 -19t14 -38q0 -18 -8 -29.5t-21 -19t-29 -10.5t-32 -3q-18 0 -36.5 4.5t-33 13t-23.5 21.5t-9 31v17h-132z" />
    <glyph glyph-name="guillemotright" unicode="&#xbb;" horiz-adv-x="463" 
d="M87 463l-22 -107l77 -85l-110 -68l-26 -123l181 115l28 130zM283 463l-22 -107l77 -85l-110 -68l-26 -123l181 115l28 130z" />
    <glyph glyph-name="Lcaron" unicode="&#xbc;" horiz-adv-x="574" 
d="M-4 0h503l28 132h-345l122 582h-158zM442 904h-109l-87 -83l-50 83h-100l83 -142h126z" />
    <glyph glyph-name="Lcaron" unicode="&#x13d;" horiz-adv-x="574" 
d="M-4 0h503l28 132h-345l122 582h-158zM442 904h-109l-87 -83l-50 83h-100l83 -142h126z" />
    <glyph glyph-name="hungarumlaut" unicode="&#xbd;" horiz-adv-x="259" 
d="M234 723h-152l-88 -142h100zM434 723h-152l-88 -142h100z" />
    <glyph glyph-name="hungarumlaut" unicode="&#x2dd;" horiz-adv-x="259" 
d="M234 723h-152l-88 -142h100zM434 723h-152l-88 -142h100z" />
    <glyph glyph-name="lcaron" unicode="&#xbe;" horiz-adv-x="392" 
d="M-12 0h142l152 714h-142zM324 595h54q-7 -33 -21 -51t-49 -23l-11 -56q57 2 87.5 25.5t46.5 59.5t22.5 79t17.5 85h-122z" />
    <glyph glyph-name="lcaron" unicode="&#x13e;" horiz-adv-x="392" 
d="M-12 0h142l152 714h-142zM324 595h54q-7 -33 -21 -51t-49 -23l-11 -56q57 2 87.5 25.5t46.5 59.5t22.5 79t17.5 85h-122z" />
    <glyph glyph-name="zdotaccent" unicode="&#xbf;" horiz-adv-x="500" 
d="M-51 0h469l23 107h-285l325 305l22 105h-434l-23 -107h249l-324 -305zM236 597h131l24 117h-131z" />
    <glyph glyph-name="zdotaccent" unicode="&#x17c;" horiz-adv-x="500" 
d="M-51 0h469l23 107h-285l325 305l22 105h-434l-23 -107h249l-324 -305zM236 597h131l24 117h-131z" />
    <glyph glyph-name="Racute" unicode="&#xc0;" horiz-adv-x="722" 
d="M-4 0h157l59 279h148q23 0 42 -3.5t32.5 -13.5t21 -26.5t7.5 -42.5q0 -36 -4 -72.5t-4 -72.5q0 -12 2 -23.5t5 -24.5h153q-6 16 -8 37.5t-2 45.5q0 33 2.5 66.5t2.5 57.5q0 21 -3.5 41t-11.5 36.5t-22.5 29t-36.5 19.5v2q36 5 66 22t52 42.5t34 58.5t12 69q0 52 -15 88
t-43 58t-67.5 32t-87.5 9h-341zM278 592h149q23 0 44 -3t37 -12t25.5 -26.5t9.5 -46.5q0 -30 -13.5 -51.5t-36 -35t-52 -20t-60.5 -6.5h-145zM582 904h-152l-88 -142h100z" />
    <glyph glyph-name="Racute" unicode="&#x154;" horiz-adv-x="722" 
d="M-4 0h157l59 279h148q23 0 42 -3.5t32.5 -13.5t21 -26.5t7.5 -42.5q0 -36 -4 -72.5t-4 -72.5q0 -12 2 -23.5t5 -24.5h153q-6 16 -8 37.5t-2 45.5q0 33 2.5 66.5t2.5 57.5q0 21 -3.5 41t-11.5 36.5t-22.5 29t-36.5 19.5v2q36 5 66 22t52 42.5t34 58.5t12 69q0 52 -15 88
t-43 58t-67.5 32t-87.5 9h-341zM278 592h149q23 0 44 -3t37 -12t25.5 -26.5t9.5 -46.5q0 -30 -13.5 -51.5t-36 -35t-52 -20t-60.5 -6.5h-145zM582 904h-152l-88 -142h100z" />
    <glyph glyph-name="Aacute" unicode="&#xc1;" horiz-adv-x="685" 
d="M395 560h2l35 -284h-191zM-77 0h166l90 159h267l23 -159h156l-119 714h-161zM627 904h-152l-88 -142h100z" />
    <glyph glyph-name="Acircumflex" unicode="&#xc2;" horiz-adv-x="685" 
d="M395 560h2l35 -284h-191zM-77 0h166l90 159h267l23 -159h156l-119 714h-161zM262 762h109l87 81l50 -81h100l-83 142h-126z" />
    <glyph glyph-name="Abreve" unicode="&#xc3;" horiz-adv-x="685" 
d="M395 560h2l35 -284h-191zM-77 0h166l90 159h267l23 -159h156l-119 714h-161zM291 908q0 -67 40.5 -106.5t109.5 -39.5q76 0 122.5 38t66.5 108h-66q-18 -34 -43.5 -52.5t-70.5 -18.5q-38 0 -64.5 17t-29.5 54h-65z" />
    <glyph glyph-name="Abreve" unicode="&#x102;" horiz-adv-x="685" 
d="M395 560h2l35 -284h-191zM-77 0h166l90 159h267l23 -159h156l-119 714h-161zM291 908q0 -67 40.5 -106.5t109.5 -39.5q76 0 122.5 38t66.5 108h-66q-18 -34 -43.5 -52.5t-70.5 -18.5q-38 0 -64.5 17t-29.5 54h-65z" />
    <glyph glyph-name="Adieresis" unicode="&#xc4;" horiz-adv-x="685" 
d="M395 560h2l35 -284h-191zM-77 0h166l90 159h267l23 -159h156l-119 714h-161zM453 778h131l24 117h-131zM257 778h131l24 117h-131z" />
    <glyph glyph-name="Lacute" unicode="&#xc5;" horiz-adv-x="574" 
d="M-4 0h503l28 132h-345l122 582h-158zM408 904h-152l-88 -142h100z" />
    <glyph glyph-name="Lacute" unicode="&#x139;" horiz-adv-x="574" 
d="M-4 0h503l28 132h-345l122 582h-158zM408 904h-152l-88 -142h100z" />
    <glyph glyph-name="Cacute" unicode="&#xc6;" horiz-adv-x="741" 
d="M713 466q1 65 -20 114.5t-59.5 83t-91.5 50.5t-115 17q-90 0 -162.5 -35t-123 -94.5t-77.5 -137.5t-27 -165q0 -152 83 -234t234 -82q58 0 107.5 15t90 47.5t73 84.5t56.5 127h-157q-5 -28 -20 -54t-37 -45.5t-50 -31t-61 -11.5q-43 0 -73.5 15t-50 40.5t-29 58.5
t-9.5 70q0 51 14 104.5t42.5 97t73 71t104.5 27.5q57 0 92.5 -33.5t35.5 -99.5h157zM642 904h-152l-88 -142h100z" />
    <glyph glyph-name="Cacute" unicode="&#x106;" horiz-adv-x="741" 
d="M713 466q1 65 -20 114.5t-59.5 83t-91.5 50.5t-115 17q-90 0 -162.5 -35t-123 -94.5t-77.5 -137.5t-27 -165q0 -152 83 -234t234 -82q58 0 107.5 15t90 47.5t73 84.5t56.5 127h-157q-5 -28 -20 -54t-37 -45.5t-50 -31t-61 -11.5q-43 0 -73.5 15t-50 40.5t-29 58.5
t-9.5 70q0 51 14 104.5t42.5 97t73 71t104.5 27.5q57 0 92.5 -33.5t35.5 -99.5h157zM642 904h-152l-88 -142h100z" />
    <glyph glyph-name="Ccedilla" unicode="&#xc7;" horiz-adv-x="741" 
d="M713 466q1 65 -20 114.5t-59.5 83t-91.5 50.5t-115 17q-90 0 -162.5 -35t-123 -94.5t-77.5 -137.5t-27 -165q0 -139 70 -219.5t199 -92.5l-49 -70l21 -24q19 7 40 7q17 0 28.5 -6.5t11.5 -25.5q0 -18 -11 -26t-29 -8q-26 0 -47 5.5t-37 12.5l-21 -48q14 -5 26.5 -9t26 -7
t30.5 -4.5t41 -1.5q22 0 43 4.5t37.5 16t26.5 31t10 48.5q0 18 -8 31.5t-21 22t-29.5 12.5t-33.5 4q-24 0 -34 -5h-2l26 36h2q58 0 107.5 15t90 47.5t73 84.5t56.5 127h-157q-5 -28 -20 -54t-37 -45.5t-50 -31t-61 -11.5q-43 0 -73.5 15t-50 40.5t-29 58.5t-9.5 70
q0 51 14 104.5t42.5 97t73 71t104.5 27.5q57 0 92.5 -33.5t35.5 -99.5h157z" />
    <glyph glyph-name="Ccaron" unicode="&#xc8;" horiz-adv-x="741" 
d="M713 466q1 65 -20 114.5t-59.5 83t-91.5 50.5t-115 17q-90 0 -162.5 -35t-123 -94.5t-77.5 -137.5t-27 -165q0 -152 83 -234t234 -82q58 0 107.5 15t90 47.5t73 84.5t56.5 127h-157q-5 -28 -20 -54t-37 -45.5t-50 -31t-61 -11.5q-43 0 -73.5 15t-50 40.5t-29 58.5
t-9.5 70q0 51 14 104.5t42.5 97t73 71t104.5 27.5q57 0 92.5 -33.5t35.5 -99.5h157zM645 904h-109l-87 -83l-50 83h-100l83 -142h126z" />
    <glyph glyph-name="Ccaron" unicode="&#x10c;" horiz-adv-x="741" 
d="M713 466q1 65 -20 114.5t-59.5 83t-91.5 50.5t-115 17q-90 0 -162.5 -35t-123 -94.5t-77.5 -137.5t-27 -165q0 -152 83 -234t234 -82q58 0 107.5 15t90 47.5t73 84.5t56.5 127h-157q-5 -28 -20 -54t-37 -45.5t-50 -31t-61 -11.5q-43 0 -73.5 15t-50 40.5t-29 58.5
t-9.5 70q0 51 14 104.5t42.5 97t73 71t104.5 27.5q57 0 92.5 -33.5t35.5 -99.5h157zM645 904h-109l-87 -83l-50 83h-100l83 -142h126z" />
    <glyph glyph-name="Eacute" unicode="&#xc9;" horiz-adv-x="667" 
d="M-4 0h551l28 132h-394l37 175h359l26 122h-359l32 153h388l27 132h-545zM605 904h-152l-88 -142h100z" />
    <glyph glyph-name="Eogonek" unicode="&#xca;" horiz-adv-x="667" 
d="M-4 0h483q-48 -19 -76 -37.5t-43 -35t-19 -31t-4 -24.5q0 -32 13 -50t31 -27t36 -11t27 -2q34 0 69 15t65 53l-48 22q-14 -19 -28 -24.5t-30 -5.5q-15 0 -27 9.5t-12 24.5q0 12 4.5 25.5t17 28.5t35 32t57.5 38l28 132h-394l37 175h359l26 122h-359l32 153h388l27 132
h-545z" />
    <glyph glyph-name="Eogonek" unicode="&#x118;" horiz-adv-x="667" 
d="M-4 0h483q-48 -19 -76 -37.5t-43 -35t-19 -31t-4 -24.5q0 -32 13 -50t31 -27t36 -11t27 -2q34 0 69 15t65 53l-48 22q-14 -19 -28 -24.5t-30 -5.5q-15 0 -27 9.5t-12 24.5q0 12 4.5 25.5t17 28.5t35 32t57.5 38l28 132h-394l37 175h359l26 122h-359l32 153h388l27 132
h-545z" />
    <glyph glyph-name="Edieresis" unicode="&#xcb;" horiz-adv-x="667" 
d="M-4 0h551l28 132h-394l37 175h359l26 122h-359l32 153h388l27 132h-545zM444 778h131l24 117h-131zM248 778h131l24 117h-131z" />
    <glyph glyph-name="Ecaron" unicode="&#xcc;" horiz-adv-x="667" 
d="M-4 0h551l28 132h-394l37 175h359l26 122h-359l32 153h388l27 132h-545zM608 904h-109l-87 -83l-50 83h-100l83 -142h126z" />
    <glyph glyph-name="Ecaron" unicode="&#x11a;" horiz-adv-x="667" 
d="M-4 0h551l28 132h-394l37 175h359l26 122h-359l32 153h388l27 132h-545zM608 904h-109l-87 -83l-50 83h-100l83 -142h126z" />
    <glyph glyph-name="Iacute" unicode="&#xcd;" horiz-adv-x="296" 
d="M-4 0h158l151 714h-158zM408 904h-152l-88 -142h100z" />
    <glyph glyph-name="Icircumflex" unicode="&#xce;" horiz-adv-x="296" 
d="M-4 0h158l151 714h-158zM61 762h109l87 81l50 -81h100l-83 142h-126z" />
    <glyph glyph-name="Dcaron" unicode="&#xcf;" horiz-adv-x="741" 
d="M-4 0h299q103 0 180.5 33t129 91.5t77.5 138.5t26 173q0 132 -76.5 205t-226.5 73h-258zM277 582h118q42 0 71.5 -12.5t48.5 -35.5t27.5 -54.5t8.5 -70.5q0 -57 -16.5 -107t-48 -88t-78 -60t-106.5 -22h-121zM618 904h-109l-87 -83l-50 83h-100l83 -142h126z" />
    <glyph glyph-name="Dcaron" unicode="&#x10e;" horiz-adv-x="741" 
d="M-4 0h299q103 0 180.5 33t129 91.5t77.5 138.5t26 173q0 132 -76.5 205t-226.5 73h-258zM277 582h118q42 0 71.5 -12.5t48.5 -35.5t27.5 -54.5t8.5 -70.5q0 -57 -16.5 -107t-48 -88t-78 -60t-106.5 -22h-121zM618 904h-109l-87 -83l-50 83h-100l83 -142h126z" />
    <glyph glyph-name="Dcroat" unicode="&#xd0;" horiz-adv-x="741" 
d="M-4 0h299q103 0 180.5 33t129 91.5t77.5 138.5t26 173q0 132 -76.5 205t-226.5 73h-258l-60 -287h-83l-25 -117h82zM277 582h118q42 0 71.5 -12.5t48.5 -35.5t27.5 -54.5t8.5 -70.5q0 -57 -16.5 -107t-48 -88t-78 -60t-106.5 -22h-121l37 178h169l25 117h-168z" />
    <glyph glyph-name="Dcroat" unicode="&#x110;" horiz-adv-x="741" 
d="M-4 0h299q103 0 180.5 33t129 91.5t77.5 138.5t26 173q0 132 -76.5 205t-226.5 73h-258l-60 -287h-83l-25 -117h82zM277 582h118q42 0 71.5 -12.5t48.5 -35.5t27.5 -54.5t8.5 -70.5q0 -57 -16.5 -107t-48 -88t-78 -60t-106.5 -22h-121l37 178h169l25 117h-168z" />
    <glyph glyph-name="Nacute" unicode="&#xd1;" horiz-adv-x="741" 
d="M-4 0h147l102 501h2l196 -501h157l151 714h-144l-102 -508h-2l-194 508h-162zM618 904h-152l-88 -142h100z" />
    <glyph glyph-name="Nacute" unicode="&#x143;" horiz-adv-x="741" 
d="M-4 0h147l102 501h2l196 -501h157l151 714h-144l-102 -508h-2l-194 508h-162zM618 904h-152l-88 -142h100z" />
    <glyph glyph-name="Ncaron" unicode="&#xd2;" horiz-adv-x="741" 
d="M-4 0h147l102 501h2l196 -501h157l151 714h-144l-102 -508h-2l-194 508h-162zM645 904h-109l-87 -83l-50 83h-100l83 -142h126z" />
    <glyph glyph-name="Ncaron" unicode="&#x147;" horiz-adv-x="741" 
d="M-4 0h147l102 501h2l196 -501h157l151 714h-144l-102 -508h-2l-194 508h-162zM645 904h-109l-87 -83l-50 83h-100l83 -142h126z" />
    <glyph glyph-name="Oacute" unicode="&#xd3;" horiz-adv-x="778" 
d="M194 299q0 51 14 104.5t42.5 97t73 71t104.5 27.5q43 0 73.5 -15t49.5 -40t27.5 -59t8.5 -71q0 -51 -14.5 -104t-43.5 -96.5t-72 -71t-101 -27.5q-43 0 -73.5 15t-50 40.5t-29 58.5t-9.5 70zM37 299q0 -152 83 -234t234 -82q94 0 166.5 36t122 97t75.5 141t26 168
q0 75 -22.5 132t-63.5 96t-100 58.5t-131 19.5q-90 0 -162.5 -35t-123 -94.5t-77.5 -137.5t-27 -165zM634 904h-152l-88 -142h100z" />
    <glyph glyph-name="Ocircumflex" unicode="&#xd4;" horiz-adv-x="778" 
d="M194 299q0 51 14 104.5t42.5 97t73 71t104.5 27.5q43 0 73.5 -15t49.5 -40t27.5 -59t8.5 -71q0 -51 -14.5 -104t-43.5 -96.5t-72 -71t-101 -27.5q-43 0 -73.5 15t-50 40.5t-29 58.5t-9.5 70zM37 299q0 -152 83 -234t234 -82q94 0 166.5 36t122 97t75.5 141t26 168
q0 75 -22.5 132t-63.5 96t-100 58.5t-131 19.5q-90 0 -162.5 -35t-123 -94.5t-77.5 -137.5t-27 -165zM269 762h109l87 81l50 -81h100l-83 142h-126z" />
    <glyph glyph-name="Ohungarumlaut" unicode="&#xd5;" horiz-adv-x="778" 
d="M194 299q0 51 14 104.5t42.5 97t73 71t104.5 27.5q43 0 73.5 -15t49.5 -40t27.5 -59t8.5 -71q0 -51 -14.5 -104t-43.5 -96.5t-72 -71t-101 -27.5q-43 0 -73.5 15t-50 40.5t-29 58.5t-9.5 70zM37 299q0 -152 83 -234t234 -82q94 0 166.5 36t122 97t75.5 141t26 168
q0 75 -22.5 132t-63.5 96t-100 58.5t-131 19.5q-90 0 -162.5 -35t-123 -94.5t-77.5 -137.5t-27 -165zM530 904h-152l-88 -142h100zM730 904h-152l-88 -142h100z" />
    <glyph glyph-name="Ohungarumlaut" unicode="&#x150;" horiz-adv-x="778" 
d="M194 299q0 51 14 104.5t42.5 97t73 71t104.5 27.5q43 0 73.5 -15t49.5 -40t27.5 -59t8.5 -71q0 -51 -14.5 -104t-43.5 -96.5t-72 -71t-101 -27.5q-43 0 -73.5 15t-50 40.5t-29 58.5t-9.5 70zM37 299q0 -152 83 -234t234 -82q94 0 166.5 36t122 97t75.5 141t26 168
q0 75 -22.5 132t-63.5 96t-100 58.5t-131 19.5q-90 0 -162.5 -35t-123 -94.5t-77.5 -137.5t-27 -165zM530 904h-152l-88 -142h100zM730 904h-152l-88 -142h100z" />
    <glyph glyph-name="Odieresis" unicode="&#xd6;" horiz-adv-x="778" 
d="M194 299q0 51 14 104.5t42.5 97t73 71t104.5 27.5q43 0 73.5 -15t49.5 -40t27.5 -59t8.5 -71q0 -51 -14.5 -104t-43.5 -96.5t-72 -71t-101 -27.5q-43 0 -73.5 15t-50 40.5t-29 58.5t-9.5 70zM37 299q0 -152 83 -234t234 -82q94 0 166.5 36t122 97t75.5 141t26 168
q0 75 -22.5 132t-63.5 96t-100 58.5t-131 19.5q-90 0 -162.5 -35t-123 -94.5t-77.5 -137.5t-27 -165zM473 778h131l24 117h-131zM277 778h131l24 117h-131z" />
    <glyph glyph-name="multiply" unicode="&#xd7;" horiz-adv-x="600" 
d="M140 17l161 161l160 -161l76 76l-161 160l161 160l-76 76l-160 -160l-159 160l-76 -76l159 -160l-161 -160z" />
    <glyph glyph-name="Rcaron" unicode="&#xd8;" horiz-adv-x="722" 
d="M-4 0h157l59 279h148q23 0 42 -3.5t32.5 -13.5t21 -26.5t7.5 -42.5q0 -36 -4 -72.5t-4 -72.5q0 -12 2 -23.5t5 -24.5h153q-6 16 -8 37.5t-2 45.5q0 33 2.5 66.5t2.5 57.5q0 21 -3.5 41t-11.5 36.5t-22.5 29t-36.5 19.5v2q36 5 66 22t52 42.5t34 58.5t12 69q0 52 -15 88
t-43 58t-67.5 32t-87.5 9h-341zM278 592h149q23 0 44 -3t37 -12t25.5 -26.5t9.5 -46.5q0 -30 -13.5 -51.5t-36 -35t-52 -20t-60.5 -6.5h-145zM609 904h-109l-87 -83l-50 83h-100l83 -142h126z" />
    <glyph glyph-name="Rcaron" unicode="&#x158;" horiz-adv-x="722" 
d="M-4 0h157l59 279h148q23 0 42 -3.5t32.5 -13.5t21 -26.5t7.5 -42.5q0 -36 -4 -72.5t-4 -72.5q0 -12 2 -23.5t5 -24.5h153q-6 16 -8 37.5t-2 45.5q0 33 2.5 66.5t2.5 57.5q0 21 -3.5 41t-11.5 36.5t-22.5 29t-36.5 19.5v2q36 5 66 22t52 42.5t34 58.5t12 69q0 52 -15 88
t-43 58t-67.5 32t-87.5 9h-341zM278 592h149q23 0 44 -3t37 -12t25.5 -26.5t9.5 -46.5q0 -30 -13.5 -51.5t-36 -35t-52 -20t-60.5 -6.5h-145zM609 904h-109l-87 -83l-50 83h-100l83 -142h126z" />
    <glyph glyph-name="Uring" unicode="&#xd9;" horiz-adv-x="741" 
d="M750 714h-157l-89 -423q-9 -41 -19 -73.5t-29 -55t-49 -35t-78 -12.5q-41 0 -67 10t-41 24.5t-20.5 31t-5.5 30.5q0 9 1.5 20.5t4 24.5t5 24.5t4.5 20.5l87 413h-157l-87 -413q-5 -26 -10 -52.5t-5 -53.5q0 -59 24.5 -99t64 -65.5t90 -36.5t102.5 -11q83 0 141 20.5
t98 60.5t64.5 99t40.5 136zM408 853q0 29 17 49.5t46 20.5t46.5 -20.5t17.5 -49.5t-17.5 -49.5t-46.5 -20.5t-46 20.5t-17 49.5zM349 853q0 -25 9.5 -47.5t26 -39t39 -26t47.5 -9.5t47.5 9.5t39.5 26t26.5 39t9.5 47.5t-9.5 47.5t-26.5 39t-39.5 26t-47.5 9.5t-47.5 -9.5
t-39 -26t-26 -39t-9.5 -47.5z" />
    <glyph glyph-name="Uring" unicode="&#x16e;" horiz-adv-x="741" 
d="M750 714h-157l-89 -423q-9 -41 -19 -73.5t-29 -55t-49 -35t-78 -12.5q-41 0 -67 10t-41 24.5t-20.5 31t-5.5 30.5q0 9 1.5 20.5t4 24.5t5 24.5t4.5 20.5l87 413h-157l-87 -413q-5 -26 -10 -52.5t-5 -53.5q0 -59 24.5 -99t64 -65.5t90 -36.5t102.5 -11q83 0 141 20.5
t98 60.5t64.5 99t40.5 136zM408 853q0 29 17 49.5t46 20.5t46.5 -20.5t17.5 -49.5t-17.5 -49.5t-46.5 -20.5t-46 20.5t-17 49.5zM349 853q0 -25 9.5 -47.5t26 -39t39 -26t47.5 -9.5t47.5 9.5t39.5 26t26.5 39t9.5 47.5t-9.5 47.5t-26.5 39t-39.5 26t-47.5 9.5t-47.5 -9.5
t-39 -26t-26 -39t-9.5 -47.5z" />
    <glyph glyph-name="Uacute" unicode="&#xda;" horiz-adv-x="741" 
d="M750 714h-157l-89 -423q-9 -41 -19 -73.5t-29 -55t-49 -35t-78 -12.5q-41 0 -67 10t-41 24.5t-20.5 31t-5.5 30.5q0 9 1.5 20.5t4 24.5t5 24.5t4.5 20.5l87 413h-157l-87 -413q-5 -26 -10 -52.5t-5 -53.5q0 -59 24.5 -99t64 -65.5t90 -36.5t102.5 -11q83 0 141 20.5
t98 60.5t64.5 99t40.5 136zM615 904h-152l-88 -142h100z" />
    <glyph glyph-name="Uhungarumlaut" unicode="&#xdb;" horiz-adv-x="741" 
d="M750 714h-157l-89 -423q-9 -41 -19 -73.5t-29 -55t-49 -35t-78 -12.5q-41 0 -67 10t-41 24.5t-20.5 31t-5.5 30.5q0 9 1.5 20.5t4 24.5t5 24.5t4.5 20.5l87 413h-157l-87 -413q-5 -26 -10 -52.5t-5 -53.5q0 -59 24.5 -99t64 -65.5t90 -36.5t102.5 -11q83 0 141 20.5
t98 60.5t64.5 99t40.5 136zM511 904h-152l-88 -142h100zM711 904h-152l-88 -142h100z" />
    <glyph glyph-name="Uhungarumlaut" unicode="&#x170;" horiz-adv-x="741" 
d="M750 714h-157l-89 -423q-9 -41 -19 -73.5t-29 -55t-49 -35t-78 -12.5q-41 0 -67 10t-41 24.5t-20.5 31t-5.5 30.5q0 9 1.5 20.5t4 24.5t5 24.5t4.5 20.5l87 413h-157l-87 -413q-5 -26 -10 -52.5t-5 -53.5q0 -59 24.5 -99t64 -65.5t90 -36.5t102.5 -11q83 0 141 20.5
t98 60.5t64.5 99t40.5 136zM511 904h-152l-88 -142h100zM711 904h-152l-88 -142h100z" />
    <glyph glyph-name="Udieresis" unicode="&#xdc;" horiz-adv-x="741" 
d="M750 714h-157l-89 -423q-9 -41 -19 -73.5t-29 -55t-49 -35t-78 -12.5q-41 0 -67 10t-41 24.5t-20.5 31t-5.5 30.5q0 9 1.5 20.5t4 24.5t5 24.5t4.5 20.5l87 413h-157l-87 -413q-5 -26 -10 -52.5t-5 -53.5q0 -59 24.5 -99t64 -65.5t90 -36.5t102.5 -11q83 0 141 20.5
t98 60.5t64.5 99t40.5 136zM478 778h131l24 117h-131zM282 778h131l24 117h-131z" />
    <glyph glyph-name="Yacute" unicode="&#xdd;" horiz-adv-x="648" 
d="M175 0h158l55 270l348 444h-185l-222 -304l-107 304h-161l171 -437zM569 904h-152l-88 -142h100z" />
    <glyph glyph-name="Tcommaaccent" unicode="&#xde;" 
d="M156 0h158l122 582h214l28 132h-596l-28 -132h224zM144 -159h54q-7 -33 -21 -51t-49 -23l-11 -56q57 2 87.5 25.5t46.5 59.5t22.5 79t17.5 85h-122z" />
    <glyph glyph-name="Tcommaaccent" unicode="&#x162;" 
d="M156 0h158l122 582h214l28 132h-596l-28 -132h224zM144 -159h54q-7 -33 -21 -51t-49 -23l-11 -56q57 2 87.5 25.5t46.5 59.5t22.5 79t17.5 85h-122z" />
    <glyph glyph-name="germandbls" unicode="&#xdf;" horiz-adv-x="593" 
d="M-12 0h142l104 493q6 25 13 47t19 38.5t31.5 26t49.5 9.5q29 0 52 -18.5t23 -50.5q0 -57 -32.5 -83t-86.5 -26h-22l-19 -90h20q51 1 81 -22.5t30 -78.5q0 -30 -10.5 -56t-29 -45t-44.5 -30t-56 -11q-11 0 -22 0.5t-22 1.5l-23 -111q20 -5 37.5 -6.5t34.5 -1.5
q57 0 107.5 18.5t88 52.5t59.5 82t22 108q0 56 -27.5 94.5t-82.5 51.5v2q61 14 100 57t39 108q0 46 -19.5 79t-50 53t-69 29.5t-76.5 9.5q-209 0 -251 -210z" />
    <glyph glyph-name="racute" unicode="&#xe0;" horiz-adv-x="389" 
d="M-12 0h142l48 229q7 33 18.5 63.5t31 54.5t48 38t69.5 14q15 0 30 -3l30 -6l29 138q-23 3 -44 3q-57 0 -105.5 -27.5t-72.5 -81.5l-2 2l21 93h-135zM439 723h-152l-88 -142h100z" />
    <glyph glyph-name="racute" unicode="&#x155;" horiz-adv-x="389" 
d="M-12 0h142l48 229q7 33 18.5 63.5t31 54.5t48 38t69.5 14q15 0 30 -3l30 -6l29 138q-23 3 -44 3q-57 0 -105.5 -27.5t-72.5 -81.5l-2 2l21 93h-135zM439 723h-152l-88 -142h100z" />
    <glyph glyph-name="aacute" unicode="&#xe1;" horiz-adv-x="574" 
d="M346 198q-6 -21 -15 -42t-24.5 -37.5t-38 -27t-55.5 -10.5q-31 0 -54.5 14.5t-23.5 43.5q0 24 9 39.5t23.5 24.5t33.5 13.5t39 6.5q31 2 62 5.5t58 19.5zM193 360q7 39 37 57.5t68 18.5q13 0 29 -2.5t29.5 -9.5t22.5 -19.5t9 -31.5q0 -25 -12 -37.5t-36.5 -19t-61.5 -9.5
t-87 -9q-93 -11 -145.5 -56t-52.5 -120q0 -27 10.5 -51.5t31.5 -43.5t52.5 -30t73.5 -11q44 0 86.5 16t71.5 49v-51h142q-5 15 -5 30t1.5 35.5t5.5 34.5l46 208q5 24 8 47t3 40q1 43 -19.5 70t-52.5 41.5t-70.5 19.5t-72.5 5q-44 0 -85 -8.5t-74.5 -28.5t-56 -52.5
t-29.5 -81.5h133zM532 723h-152l-88 -142h100z" />
    <glyph glyph-name="acircumflex" unicode="&#xe2;" horiz-adv-x="574" 
d="M346 198q-6 -21 -15 -42t-24.5 -37.5t-38 -27t-55.5 -10.5q-31 0 -54.5 14.5t-23.5 43.5q0 24 9 39.5t23.5 24.5t33.5 13.5t39 6.5q31 2 62 5.5t58 19.5zM193 360q7 39 37 57.5t68 18.5q13 0 29 -2.5t29.5 -9.5t22.5 -19.5t9 -31.5q0 -25 -12 -37.5t-36.5 -19t-61.5 -9.5
t-87 -9q-93 -11 -145.5 -56t-52.5 -120q0 -27 10.5 -51.5t31.5 -43.5t52.5 -30t73.5 -11q44 0 86.5 16t71.5 49v-51h142q-5 15 -5 30t1.5 35.5t5.5 34.5l46 208q5 24 8 47t3 40q1 43 -19.5 70t-52.5 41.5t-70.5 19.5t-72.5 5q-44 0 -85 -8.5t-74.5 -28.5t-56 -52.5
t-29.5 -81.5h133zM167 581h109l87 81l50 -81h100l-83 142h-126z" />
    <glyph glyph-name="abreve" unicode="&#xe3;" horiz-adv-x="574" 
d="M346 198q-6 -21 -15 -42t-24.5 -37.5t-38 -27t-55.5 -10.5q-31 0 -54.5 14.5t-23.5 43.5q0 24 9 39.5t23.5 24.5t33.5 13.5t39 6.5q31 2 62 5.5t58 19.5zM193 360q7 39 37 57.5t68 18.5q13 0 29 -2.5t29.5 -9.5t22.5 -19.5t9 -31.5q0 -25 -12 -37.5t-36.5 -19t-61.5 -9.5
t-87 -9q-93 -11 -145.5 -56t-52.5 -120q0 -27 10.5 -51.5t31.5 -43.5t52.5 -30t73.5 -11q44 0 86.5 16t71.5 49v-51h142q-5 15 -5 30t1.5 35.5t5.5 34.5l46 208q5 24 8 47t3 40q1 43 -19.5 70t-52.5 41.5t-70.5 19.5t-72.5 5q-44 0 -85 -8.5t-74.5 -28.5t-56 -52.5
t-29.5 -81.5h133zM196 727q0 -67 40.5 -106.5t109.5 -39.5q76 0 122.5 38t66.5 108h-66q-18 -34 -43.5 -52.5t-70.5 -18.5q-38 0 -64.5 17t-29.5 54h-65z" />
    <glyph glyph-name="abreve" unicode="&#x103;" horiz-adv-x="574" 
d="M346 198q-6 -21 -15 -42t-24.5 -37.5t-38 -27t-55.5 -10.5q-31 0 -54.5 14.5t-23.5 43.5q0 24 9 39.5t23.5 24.5t33.5 13.5t39 6.5q31 2 62 5.5t58 19.5zM193 360q7 39 37 57.5t68 18.5q13 0 29 -2.5t29.5 -9.5t22.5 -19.5t9 -31.5q0 -25 -12 -37.5t-36.5 -19t-61.5 -9.5
t-87 -9q-93 -11 -145.5 -56t-52.5 -120q0 -27 10.5 -51.5t31.5 -43.5t52.5 -30t73.5 -11q44 0 86.5 16t71.5 49v-51h142q-5 15 -5 30t1.5 35.5t5.5 34.5l46 208q5 24 8 47t3 40q1 43 -19.5 70t-52.5 41.5t-70.5 19.5t-72.5 5q-44 0 -85 -8.5t-74.5 -28.5t-56 -52.5
t-29.5 -81.5h133zM196 727q0 -67 40.5 -106.5t109.5 -39.5q76 0 122.5 38t66.5 108h-66q-18 -34 -43.5 -52.5t-70.5 -18.5q-38 0 -64.5 17t-29.5 54h-65z" />
    <glyph glyph-name="adieresis" unicode="&#xe4;" horiz-adv-x="574" 
d="M346 198q-6 -21 -15 -42t-24.5 -37.5t-38 -27t-55.5 -10.5q-31 0 -54.5 14.5t-23.5 43.5q0 24 9 39.5t23.5 24.5t33.5 13.5t39 6.5q31 2 62 5.5t58 19.5zM193 360q7 39 37 57.5t68 18.5q13 0 29 -2.5t29.5 -9.5t22.5 -19.5t9 -31.5q0 -25 -12 -37.5t-36.5 -19t-61.5 -9.5
t-87 -9q-93 -11 -145.5 -56t-52.5 -120q0 -27 10.5 -51.5t31.5 -43.5t52.5 -30t73.5 -11q44 0 86.5 16t71.5 49v-51h142q-5 15 -5 30t1.5 35.5t5.5 34.5l46 208q5 24 8 47t3 40q1 43 -19.5 70t-52.5 41.5t-70.5 19.5t-72.5 5q-44 0 -85 -8.5t-74.5 -28.5t-56 -52.5
t-29.5 -81.5h133zM371 597h131l24 117h-131zM175 597h131l24 117h-131z" />
    <glyph glyph-name="lacute" unicode="&#xe5;" horiz-adv-x="259" 
d="M-12 0h142l152 714h-142zM402 904h-152l-88 -142h100z" />
    <glyph glyph-name="lacute" unicode="&#x13a;" horiz-adv-x="259" 
d="M-12 0h142l152 714h-142zM402 904h-152l-88 -142h100z" />
    <glyph glyph-name="cacute" unicode="&#xe6;" horiz-adv-x="556" 
d="M534 338q-1 51 -19.5 88t-50 60t-73.5 34t-89 11q-70 0 -124 -25.5t-91.5 -70t-57 -103t-19.5 -124.5q0 -114 60.5 -168t169.5 -54q101 0 168 53t99 150h-142q-12 -38 -39.5 -67t-75.5 -29q-27 0 -45.5 9t-30.5 24t-17 35.5t-5 43.5q0 33 7.5 71.5t24.5 71.5t44.5 54.5
t68.5 21.5q47 0 71 -20t24 -66h142zM499 723h-152l-88 -142h100z" />
    <glyph glyph-name="cacute" unicode="&#x107;" horiz-adv-x="556" 
d="M534 338q-1 51 -19.5 88t-50 60t-73.5 34t-89 11q-70 0 -124 -25.5t-91.5 -70t-57 -103t-19.5 -124.5q0 -114 60.5 -168t169.5 -54q101 0 168 53t99 150h-142q-12 -38 -39.5 -67t-75.5 -29q-27 0 -45.5 9t-30.5 24t-17 35.5t-5 43.5q0 33 7.5 71.5t24.5 71.5t44.5 54.5
t68.5 21.5q47 0 71 -20t24 -66h142zM499 723h-152l-88 -142h100z" />
    <glyph glyph-name="ccedilla" unicode="&#xe7;" horiz-adv-x="556" 
d="M534 338q-1 51 -19.5 88t-50 60t-73.5 34t-89 11q-70 0 -124 -25.5t-91.5 -70t-57 -103t-19.5 -124.5q0 -107 53.5 -161t150.5 -59l-49 -71l21 -24q19 7 40 7q17 0 28.5 -6.5t11.5 -25.5q0 -18 -11 -26t-29 -8q-26 0 -47 5.5t-37 12.5l-21 -48q14 -5 26.5 -9t26 -7
t30.5 -4.5t41 -1.5q22 0 43 4.5t37.5 16t26.5 31t10 48.5q0 18 -8 31.5t-21 22t-29.5 12.5t-33.5 4q-24 0 -34 -5h-2l28 41q92 5 153 57t92 144h-142q-12 -38 -39.5 -67t-75.5 -29q-27 0 -45.5 9t-30.5 24t-17 35.5t-5 43.5q0 33 7.5 71.5t24.5 71.5t44.5 54.5t68.5 21.5
q47 0 71 -20t24 -66h142z" />
    <glyph glyph-name="ccaron" unicode="&#xe8;" horiz-adv-x="556" 
d="M534 338q-1 51 -19.5 88t-50 60t-73.5 34t-89 11q-70 0 -124 -25.5t-91.5 -70t-57 -103t-19.5 -124.5q0 -114 60.5 -168t169.5 -54q101 0 168 53t99 150h-142q-12 -38 -39.5 -67t-75.5 -29q-27 0 -45.5 9t-30.5 24t-17 35.5t-5 43.5q0 33 7.5 71.5t24.5 71.5t44.5 54.5
t68.5 21.5q47 0 71 -20t24 -66h142zM526 723h-109l-87 -83l-50 83h-100l83 -142h126z" />
    <glyph glyph-name="ccaron" unicode="&#x10d;" horiz-adv-x="556" 
d="M534 338q-1 51 -19.5 88t-50 60t-73.5 34t-89 11q-70 0 -124 -25.5t-91.5 -70t-57 -103t-19.5 -124.5q0 -114 60.5 -168t169.5 -54q101 0 168 53t99 150h-142q-12 -38 -39.5 -67t-75.5 -29q-27 0 -45.5 9t-30.5 24t-17 35.5t-5 43.5q0 33 7.5 71.5t24.5 71.5t44.5 54.5
t68.5 21.5q47 0 71 -20t24 -66h142zM526 723h-109l-87 -83l-50 83h-100l83 -142h126z" />
    <glyph glyph-name="eacute" unicode="&#xe9;" horiz-adv-x="574" 
d="M528 224q8 40 8 81q0 56 -17.5 98.5t-49 71t-76 42.5t-98.5 14q-66 0 -119 -26.5t-89.5 -71t-56.5 -102t-20 -119.5q0 -55 16.5 -97.5t46.5 -71t72.5 -43t94.5 -14.5q56 0 98.5 11.5t74.5 34t55 55.5t40 77h-142q-8 -12 -17.5 -25t-22 -23t-29 -16.5t-37.5 -6.5
q-58 0 -86 28t-28 73v13t1 17h381zM162 314q8 22 19.5 42t28.5 35t40 24t53 9q31 0 50 -9.5t29 -25.5t13.5 -35.5t3.5 -39.5h-237zM508 723h-152l-88 -142h100z" />
    <glyph glyph-name="eogonek" unicode="&#xea;" horiz-adv-x="574" 
d="M162 314q8 22 19.5 42t28.5 35t40 24t53 9q31 0 50 -9.5t29 -25.5t13.5 -35.5t3.5 -39.5h-237zM366 164q-8 -12 -17.5 -25t-22 -23t-29 -16.5t-37.5 -6.5q-58 0 -86 28t-28 73v13t1 17h381q8 40 8 81q0 56 -17.5 98.5t-49 71t-76 42.5t-98.5 14q-66 0 -119 -26.5
t-89.5 -71t-56.5 -102t-20 -119.5q0 -55 16.5 -97.5t46.5 -71t72.5 -43t94.5 -14.5q11 0 20.5 0.5t19.5 1.5q-38 -17 -60.5 -34t-34 -32t-15 -28t-3.5 -22q0 -32 13 -50t31 -27t36 -11t27 -2q34 0 69 15t65 53l-48 22q-14 -19 -28 -24.5t-30 -5.5q-15 0 -27 9.5t-12 24.5
q0 13 5 26.5t18 28.5t36 33t59 39q40 23 71.5 62t55.5 99h-142z" />
    <glyph glyph-name="eogonek" unicode="&#x119;" horiz-adv-x="574" 
d="M162 314q8 22 19.5 42t28.5 35t40 24t53 9q31 0 50 -9.5t29 -25.5t13.5 -35.5t3.5 -39.5h-237zM366 164q-8 -12 -17.5 -25t-22 -23t-29 -16.5t-37.5 -6.5q-58 0 -86 28t-28 73v13t1 17h381q8 40 8 81q0 56 -17.5 98.5t-49 71t-76 42.5t-98.5 14q-66 0 -119 -26.5
t-89.5 -71t-56.5 -102t-20 -119.5q0 -55 16.5 -97.5t46.5 -71t72.5 -43t94.5 -14.5q11 0 20.5 0.5t19.5 1.5q-38 -17 -60.5 -34t-34 -32t-15 -28t-3.5 -22q0 -32 13 -50t31 -27t36 -11t27 -2q34 0 69 15t65 53l-48 22q-14 -19 -28 -24.5t-30 -5.5q-15 0 -27 9.5t-12 24.5
q0 13 5 26.5t18 28.5t36 33t59 39q40 23 71.5 62t55.5 99h-142z" />
    <glyph glyph-name="edieresis" unicode="&#xeb;" horiz-adv-x="574" 
d="M528 224q8 40 8 81q0 56 -17.5 98.5t-49 71t-76 42.5t-98.5 14q-66 0 -119 -26.5t-89.5 -71t-56.5 -102t-20 -119.5q0 -55 16.5 -97.5t46.5 -71t72.5 -43t94.5 -14.5q56 0 98.5 11.5t74.5 34t55 55.5t40 77h-142q-8 -12 -17.5 -25t-22 -23t-29 -16.5t-37.5 -6.5
q-58 0 -86 28t-28 73v13t1 17h381zM162 314q8 22 19.5 42t28.5 35t40 24t53 9q31 0 50 -9.5t29 -25.5t13.5 -35.5t3.5 -39.5h-237zM371 597h131l24 117h-131zM175 597h131l24 117h-131z" />
    <glyph glyph-name="ecaron" unicode="&#xec;" horiz-adv-x="574" 
d="M528 224q8 40 8 81q0 56 -17.5 98.5t-49 71t-76 42.5t-98.5 14q-66 0 -119 -26.5t-89.5 -71t-56.5 -102t-20 -119.5q0 -55 16.5 -97.5t46.5 -71t72.5 -43t94.5 -14.5q56 0 98.5 11.5t74.5 34t55 55.5t40 77h-142q-8 -12 -17.5 -25t-22 -23t-29 -16.5t-37.5 -6.5
q-58 0 -86 28t-28 73v13t1 17h381zM162 314q8 22 19.5 42t28.5 35t40 24t53 9q31 0 50 -9.5t29 -25.5t13.5 -35.5t3.5 -39.5h-237zM517 723h-109l-87 -83l-50 83h-100l83 -142h126z" />
    <glyph glyph-name="ecaron" unicode="&#x11b;" horiz-adv-x="574" 
d="M528 224q8 40 8 81q0 56 -17.5 98.5t-49 71t-76 42.5t-98.5 14q-66 0 -119 -26.5t-89.5 -71t-56.5 -102t-20 -119.5q0 -55 16.5 -97.5t46.5 -71t72.5 -43t94.5 -14.5q56 0 98.5 11.5t74.5 34t55 55.5t40 77h-142q-8 -12 -17.5 -25t-22 -23t-29 -16.5t-37.5 -6.5
q-58 0 -86 28t-28 73v13t1 17h381zM162 314q8 22 19.5 42t28.5 35t40 24t53 9q31 0 50 -9.5t29 -25.5t13.5 -35.5t3.5 -39.5h-237zM517 723h-109l-87 -83l-50 83h-100l83 -142h126z" />
    <glyph glyph-name="iacute" unicode="&#xed;" horiz-adv-x="259" 
d="M-12 0h143l110 517h-143zM356 723h-152l-88 -142h100z" />
    <glyph glyph-name="icircumflex" unicode="&#xee;" horiz-adv-x="259" 
d="M-12 0h143l110 517h-143zM9 581h109l87 81l50 -81h100l-83 142h-126z" />
    <glyph glyph-name="dcaron" unicode="&#xef;" horiz-adv-x="748" 
d="M350 0h137l151 714h-142l-57 -266h-2q-8 21 -23.5 37t-35 26t-42 15t-44.5 5q-72 0 -125 -29.5t-88 -77.5t-52 -109t-17 -125q0 -94 51.5 -149t145.5 -55q48 0 89.5 19t65.5 61l2 -2zM307 424q52 0 77 -31t25 -81q0 -33 -9.5 -71.5t-29 -71.5t-48.5 -54.5t-69 -21.5
q-25 0 -44 9t-31.5 25t-19 37t-6.5 44q0 34 9 72t28 70t48.5 53t69.5 21zM680 595h54q-7 -33 -21 -51t-49 -23l-11 -56q57 2 87.5 25.5t46.5 59.5t22.5 79t17.5 85h-122z" />
    <glyph glyph-name="dcaron" unicode="&#x10f;" horiz-adv-x="748" 
d="M350 0h137l151 714h-142l-57 -266h-2q-8 21 -23.5 37t-35 26t-42 15t-44.5 5q-72 0 -125 -29.5t-88 -77.5t-52 -109t-17 -125q0 -94 51.5 -149t145.5 -55q48 0 89.5 19t65.5 61l2 -2zM307 424q52 0 77 -31t25 -81q0 -33 -9.5 -71.5t-29 -71.5t-48.5 -54.5t-69 -21.5
q-25 0 -44 9t-31.5 25t-19 37t-6.5 44q0 34 9 72t28 70t48.5 53t69.5 21zM680 595h54q-7 -33 -21 -51t-49 -23l-11 -56q57 2 87.5 25.5t46.5 59.5t22.5 79t17.5 85h-122z" />
    <glyph glyph-name="dcroat" unicode="&#xf0;" 
d="M307 424q52 0 77 -31t25 -81q0 -33 -9.5 -71.5t-29 -71.5t-48.5 -54.5t-69 -21.5q-25 0 -44 9t-31.5 25t-19 37t-6.5 44q0 34 9 72t28 70t48.5 53t69.5 21zM325 582h143l-29 -134h-2q-8 21 -23.5 37t-35 26t-42 15t-44.5 5q-72 0 -125 -29.5t-88 -77.5t-52 -109t-17 -125
q0 -94 51.5 -149t145.5 -55q48 0 89.5 19t65.5 61l2 -2l-14 -64h137l123 582h102l14 75h-100l12 57h-142l-12 -57h-145z" />
    <glyph glyph-name="dcroat" unicode="&#x111;" 
d="M307 424q52 0 77 -31t25 -81q0 -33 -9.5 -71.5t-29 -71.5t-48.5 -54.5t-69 -21.5q-25 0 -44 9t-31.5 25t-19 37t-6.5 44q0 34 9 72t28 70t48.5 53t69.5 21zM325 582h143l-29 -134h-2q-8 21 -23.5 37t-35 26t-42 15t-44.5 5q-72 0 -125 -29.5t-88 -77.5t-52 -109t-17 -125
q0 -94 51.5 -149t145.5 -55q48 0 89.5 19t65.5 61l2 -2l-14 -64h137l123 582h102l14 75h-100l12 57h-142l-12 -57h-145z" />
    <glyph glyph-name="nacute" unicode="&#xf1;" 
d="M-12 0h142l58 275q6 27 17 53t29 46t42.5 32.5t56.5 12.5q25 0 46.5 -15t21.5 -38q0 -5 -1 -13.5t-2 -17.5t-3 -17.5t-3 -14.5l-63 -303h142l64 303q1 7 4 18.5t5 24.5t4 25.5t2 20.5q0 68 -38.5 103.5t-112.5 35.5q-112 0 -181 -86h-2l16 72h-136zM534 723h-152
l-88 -142h100z" />
    <glyph glyph-name="nacute" unicode="&#x144;" 
d="M-12 0h142l58 275q6 27 17 53t29 46t42.5 32.5t56.5 12.5q25 0 46.5 -15t21.5 -38q0 -5 -1 -13.5t-2 -17.5t-3 -17.5t-3 -14.5l-63 -303h142l64 303q1 7 4 18.5t5 24.5t4 25.5t2 20.5q0 68 -38.5 103.5t-112.5 35.5q-112 0 -181 -86h-2l16 72h-136zM534 723h-152
l-88 -142h100z" />
    <glyph glyph-name="ncaron" unicode="&#xf2;" 
d="M-12 0h142l58 275q6 27 17 53t29 46t42.5 32.5t56.5 12.5q25 0 46.5 -15t21.5 -38q0 -5 -1 -13.5t-2 -17.5t-3 -17.5t-3 -14.5l-63 -303h142l64 303q1 7 4 18.5t5 24.5t4 25.5t2 20.5q0 68 -38.5 103.5t-112.5 35.5q-112 0 -181 -86h-2l16 72h-136zM553 723h-109l-87 -83
l-50 83h-100l83 -142h126z" />
    <glyph glyph-name="ncaron" unicode="&#x148;" 
d="M-12 0h142l58 275q6 27 17 53t29 46t42.5 32.5t56.5 12.5q25 0 46.5 -15t21.5 -38q0 -5 -1 -13.5t-2 -17.5t-3 -17.5t-3 -14.5l-63 -303h142l64 303q1 7 4 18.5t5 24.5t4 25.5t2 20.5q0 68 -38.5 103.5t-112.5 35.5q-112 0 -181 -86h-2l16 72h-136zM553 723h-109l-87 -83
l-50 83h-100l83 -142h126z" />
    <glyph glyph-name="oacute" unicode="&#xf3;" horiz-adv-x="593" 
d="M10 209q0 -111 64.5 -167t172.5 -56q70 0 126 25.5t95 69.5t59.5 103.5t20.5 127.5q0 56 -17.5 97t-49.5 68t-76.5 40.5t-97.5 13.5q-69 0 -124 -25.5t-93.5 -69.5t-59 -102.5t-20.5 -124.5zM152 209q0 33 9 70.5t27 69.5t46.5 53.5t67.5 21.5q56 0 80 -31t24 -83
q0 -33 -9 -71t-27.5 -70.5t-47 -54t-68.5 -21.5q-25 0 -44 9.5t-32 25.5t-19.5 37t-6.5 44zM505 723h-152l-88 -142h100z" />
    <glyph glyph-name="ocircumflex" unicode="&#xf4;" horiz-adv-x="593" 
d="M10 209q0 -111 64.5 -167t172.5 -56q70 0 126 25.5t95 69.5t59.5 103.5t20.5 127.5q0 56 -17.5 97t-49.5 68t-76.5 40.5t-97.5 13.5q-69 0 -124 -25.5t-93.5 -69.5t-59 -102.5t-20.5 -124.5zM152 209q0 33 9 70.5t27 69.5t46.5 53.5t67.5 21.5q56 0 80 -31t24 -83
q0 -33 -9 -71t-27.5 -70.5t-47 -54t-68.5 -21.5q-25 0 -44 9.5t-32 25.5t-19.5 37t-6.5 44zM152 581h109l87 81l50 -81h100l-83 142h-126z" />
    <glyph glyph-name="ohungarumlaut" unicode="&#xf5;" horiz-adv-x="593" 
d="M10 209q0 -111 64.5 -167t172.5 -56q70 0 126 25.5t95 69.5t59.5 103.5t20.5 127.5q0 56 -17.5 97t-49.5 68t-76.5 40.5t-97.5 13.5q-69 0 -124 -25.5t-93.5 -69.5t-59 -102.5t-20.5 -124.5zM152 209q0 33 9 70.5t27 69.5t46.5 53.5t67.5 21.5q56 0 80 -31t24 -83
q0 -33 -9 -71t-27.5 -70.5t-47 -54t-68.5 -21.5q-25 0 -44 9.5t-32 25.5t-19.5 37t-6.5 44zM401 723h-152l-88 -142h100zM601 723h-152l-88 -142h100z" />
    <glyph glyph-name="ohungarumlaut" unicode="&#x151;" horiz-adv-x="593" 
d="M10 209q0 -111 64.5 -167t172.5 -56q70 0 126 25.5t95 69.5t59.5 103.5t20.5 127.5q0 56 -17.5 97t-49.5 68t-76.5 40.5t-97.5 13.5q-69 0 -124 -25.5t-93.5 -69.5t-59 -102.5t-20.5 -124.5zM152 209q0 33 9 70.5t27 69.5t46.5 53.5t67.5 21.5q56 0 80 -31t24 -83
q0 -33 -9 -71t-27.5 -70.5t-47 -54t-68.5 -21.5q-25 0 -44 9.5t-32 25.5t-19.5 37t-6.5 44zM401 723h-152l-88 -142h100zM601 723h-152l-88 -142h100z" />
    <glyph glyph-name="odieresis" unicode="&#xf6;" horiz-adv-x="593" 
d="M10 209q0 -111 64.5 -167t172.5 -56q70 0 126 25.5t95 69.5t59.5 103.5t20.5 127.5q0 56 -17.5 97t-49.5 68t-76.5 40.5t-97.5 13.5q-69 0 -124 -25.5t-93.5 -69.5t-59 -102.5t-20.5 -124.5zM152 209q0 33 9 70.5t27 69.5t46.5 53.5t67.5 21.5q56 0 80 -31t24 -83
q0 -33 -9 -71t-27.5 -70.5t-47 -54t-68.5 -21.5q-25 0 -44 9.5t-32 25.5t-19.5 37t-6.5 44zM356 597h131l24 117h-131zM160 597h131l24 117h-131z" />
    <glyph glyph-name="divide" unicode="&#xf7;" horiz-adv-x="600" 
d="M48 199h505v107h-505v-107zM216 460q0 -17 7 -32.5t18.5 -27t27 -18t33.5 -6.5q16 0 31.5 7t26.5 19t18 27t7 31q0 35 -25 60t-59 25q-17 0 -32.5 -6.5t-27 -18t-18.5 -27t-7 -33.5zM216 45q0 -17 7 -32.5t18.5 -27t27 -18.5t33.5 -7q16 0 31.5 7.5t26.5 19.5t18 27t7 31
q0 35 -25 59.5t-59 24.5q-17 0 -32.5 -6.5t-27 -18t-18.5 -26.5t-7 -33z" />
    <glyph glyph-name="rcaron" unicode="&#xf8;" horiz-adv-x="389" 
d="M-12 0h142l48 229q7 33 18.5 63.5t31 54.5t48 38t69.5 14q15 0 30 -3l30 -6l29 138q-23 3 -44 3q-57 0 -105.5 -27.5t-72.5 -81.5l-2 2l21 93h-135zM442 723h-109l-87 -83l-50 83h-100l83 -142h126z" />
    <glyph glyph-name="rcaron" unicode="&#x159;" horiz-adv-x="389" 
d="M-12 0h142l48 229q7 33 18.5 63.5t31 54.5t48 38t69.5 14q15 0 30 -3l30 -6l29 138q-23 3 -44 3q-57 0 -105.5 -27.5t-72.5 -81.5l-2 2l21 93h-135zM442 723h-109l-87 -83l-50 83h-100l83 -142h126z" />
    <glyph glyph-name="uring" unicode="&#xf9;" 
d="M586 517h-142l-58 -275q-6 -27 -17 -53t-29 -46t-42.5 -32.5t-56.5 -12.5q-25 0 -46.5 15t-21.5 38q0 5 1 13.5t2 17.5t2.5 17.5t3.5 14.5l63 303h-142l-64 -303q-2 -7 -4.5 -18.5t-4.5 -24.5t-4 -25.5t-2 -20.5q0 -68 38.5 -103.5t112.5 -35.5q112 0 181 86h2l-16 -72
h136zM305 680q0 29 17 49.5t46 20.5t46.5 -20.5t17.5 -49.5t-17.5 -49.5t-46.5 -20.5t-46 20.5t-17 49.5zM246 680q0 -25 9.5 -47.5t26 -39t39 -26t47.5 -9.5t47.5 9.5t39.5 26t26.5 39t9.5 47.5t-9.5 47.5t-26.5 39t-39.5 26t-47.5 9.5t-47.5 -9.5t-39 -26t-26 -39
t-9.5 -47.5z" />
    <glyph glyph-name="uring" unicode="&#x16f;" 
d="M586 517h-142l-58 -275q-6 -27 -17 -53t-29 -46t-42.5 -32.5t-56.5 -12.5q-25 0 -46.5 15t-21.5 38q0 5 1 13.5t2 17.5t2.5 17.5t3.5 14.5l63 303h-142l-64 -303q-2 -7 -4.5 -18.5t-4.5 -24.5t-4 -25.5t-2 -20.5q0 -68 38.5 -103.5t112.5 -35.5q112 0 181 86h2l-16 -72
h136zM305 680q0 29 17 49.5t46 20.5t46.5 -20.5t17.5 -49.5t-17.5 -49.5t-46.5 -20.5t-46 20.5t-17 49.5zM246 680q0 -25 9.5 -47.5t26 -39t39 -26t47.5 -9.5t47.5 9.5t39.5 26t26.5 39t9.5 47.5t-9.5 47.5t-26.5 39t-39.5 26t-47.5 9.5t-47.5 -9.5t-39 -26t-26 -39
t-9.5 -47.5z" />
    <glyph glyph-name="uacute" unicode="&#xfa;" 
d="M586 517h-142l-58 -275q-6 -27 -17 -53t-29 -46t-42.5 -32.5t-56.5 -12.5q-25 0 -46.5 15t-21.5 38q0 5 1 13.5t2 17.5t2.5 17.5t3.5 14.5l63 303h-142l-64 -303q-2 -7 -4.5 -18.5t-4.5 -24.5t-4 -25.5t-2 -20.5q0 -68 38.5 -103.5t112.5 -35.5q112 0 181 86h2l-16 -72
h136zM526 723h-152l-88 -142h100z" />
    <glyph glyph-name="uhungarumlaut" unicode="&#xfb;" 
d="M586 517h-142l-58 -275q-6 -27 -17 -53t-29 -46t-42.5 -32.5t-56.5 -12.5q-25 0 -46.5 15t-21.5 38q0 5 1 13.5t2 17.5t2.5 17.5t3.5 14.5l63 303h-142l-64 -303q-2 -7 -4.5 -18.5t-4.5 -24.5t-4 -25.5t-2 -20.5q0 -68 38.5 -103.5t112.5 -35.5q112 0 181 86h2l-16 -72
h136zM410 723h-152l-88 -142h100zM610 723h-152l-88 -142h100z" />
    <glyph glyph-name="uhungarumlaut" unicode="&#x171;" 
d="M586 517h-142l-58 -275q-6 -27 -17 -53t-29 -46t-42.5 -32.5t-56.5 -12.5q-25 0 -46.5 15t-21.5 38q0 5 1 13.5t2 17.5t2.5 17.5t3.5 14.5l63 303h-142l-64 -303q-2 -7 -4.5 -18.5t-4.5 -24.5t-4 -25.5t-2 -20.5q0 -68 38.5 -103.5t112.5 -35.5q112 0 181 86h2l-16 -72
h136zM410 723h-152l-88 -142h100zM610 723h-152l-88 -142h100z" />
    <glyph glyph-name="udieresis" unicode="&#xfc;" 
d="M586 517h-142l-58 -275q-6 -27 -17 -53t-29 -46t-42.5 -32.5t-56.5 -12.5q-25 0 -46.5 15t-21.5 38q0 5 1 13.5t2 17.5t2.5 17.5t3.5 14.5l63 303h-142l-64 -303q-2 -7 -4.5 -18.5t-4.5 -24.5t-4 -25.5t-2 -20.5q0 -68 38.5 -103.5t112.5 -35.5q112 0 181 86h2l-16 -72
h136zM389 597h131l24 117h-131zM193 597h131l24 117h-131z" />
    <glyph glyph-name="yacute" unicode="&#xfd;" horiz-adv-x="519" 
d="M543 517h-150l-179 -370h-2l-45 370h-146l92 -512q-7 -10 -13 -22.5t-16 -23t-25 -17.5t-40 -7q-14 0 -29 3t-29 3l-24 -118q19 -1 38 -3t38 -2q40 0 69.5 4.5t52.5 16.5t42 33.5t37 54.5zM456 723h-152l-88 -142h100z" />
    <glyph glyph-name="tcommaaccent" unicode="&#xfe;" horiz-adv-x="370" 
d="M310 674h-142l-32 -157h-91l-22 -95h93l-58 -277q-3 -14 -5 -26.5t-2 -22.5q-1 -32 11 -52t31 -32t43.5 -16.5t49.5 -4.5q23 0 45 1.5t44 3.5l24 110q-26 -3 -51 -3q-8 0 -16.5 0.5t-15.5 4.5t-11.5 11.5t-4.5 21.5q0 3 1 9.5t3 14.5l53 257h101l22 95h-102zM64 -159h54
q-7 -33 -21 -51t-49 -23l-11 -56q57 2 87.5 25.5t46.5 59.5t22.5 79t17.5 85h-122z" />
    <glyph glyph-name="tcommaaccent" unicode="&#x163;" horiz-adv-x="370" 
d="M310 674h-142l-32 -157h-91l-22 -95h93l-58 -277q-3 -14 -5 -26.5t-2 -22.5q-1 -32 11 -52t31 -32t43.5 -16.5t49.5 -4.5q23 0 45 1.5t44 3.5l24 110q-26 -3 -51 -3q-8 0 -16.5 0.5t-15.5 4.5t-11.5 11.5t-4.5 21.5q0 3 1 9.5t3 14.5l53 257h101l22 95h-102zM64 -159h54
q-7 -33 -21 -51t-49 -23l-11 -56q57 2 87.5 25.5t46.5 59.5t22.5 79t17.5 85h-122z" />
    <glyph glyph-name="dotaccent" unicode="&#xff;" horiz-adv-x="259" 
d="M115 597h131l24 117h-131z" />
    <glyph glyph-name="dotaccent" unicode="&#x2d9;" horiz-adv-x="259" 
d="M115 597h131l24 117h-131z" />
    <glyph glyph-name="Amacron" unicode="&#x100;" horiz-adv-x="685" 
d="M395 560h2l35 -284h-191zM-77 0h166l90 159h267l23 -159h156l-119 714h-161zM275 797h305l14 75h-305z" />
    <glyph glyph-name="amacron" unicode="&#x101;" horiz-adv-x="574" 
d="M346 198q-6 -21 -15 -42t-24.5 -37.5t-38 -27t-55.5 -10.5q-31 0 -54.5 14.5t-23.5 43.5q0 24 9 39.5t23.5 24.5t33.5 13.5t39 6.5q31 2 62 5.5t58 19.5zM193 360q7 39 37 57.5t68 18.5q13 0 29 -2.5t29.5 -9.5t22.5 -19.5t9 -31.5q0 -25 -12 -37.5t-36.5 -19t-61.5 -9.5
t-87 -9q-93 -11 -145.5 -56t-52.5 -120q0 -27 10.5 -51.5t31.5 -43.5t52.5 -30t73.5 -11q44 0 86.5 16t71.5 49v-51h142q-5 15 -5 30t1.5 35.5t5.5 34.5l46 208q5 24 8 47t3 40q1 43 -19.5 70t-52.5 41.5t-70.5 19.5t-72.5 5q-44 0 -85 -8.5t-74.5 -28.5t-56 -52.5
t-29.5 -81.5h133zM193 616h305l14 75h-305z" />
    <glyph glyph-name="Emacron" unicode="&#x112;" horiz-adv-x="667" 
d="M-4 0h551l28 132h-394l37 175h359l26 122h-359l32 153h388l27 132h-545zM266 797h305l14 75h-305z" />
    <glyph glyph-name="emacron" unicode="&#x113;" horiz-adv-x="574" 
d="M528 224q8 40 8 81q0 56 -17.5 98.5t-49 71t-76 42.5t-98.5 14q-66 0 -119 -26.5t-89.5 -71t-56.5 -102t-20 -119.5q0 -55 16.5 -97.5t46.5 -71t72.5 -43t94.5 -14.5q56 0 98.5 11.5t74.5 34t55 55.5t40 77h-142q-8 -12 -17.5 -25t-22 -23t-29 -16.5t-37.5 -6.5
q-58 0 -86 28t-28 73v13t1 17h381zM162 314q8 22 19.5 42t28.5 35t40 24t53 9q31 0 50 -9.5t29 -25.5t13.5 -35.5t3.5 -39.5h-237zM169 616h305l14 75h-305z" />
    <glyph glyph-name="Edotaccent" unicode="&#x116;" horiz-adv-x="667" 
d="M-4 0h551l28 132h-394l37 175h359l26 122h-359l32 153h388l27 132h-545zM354 778h131l24 117h-131z" />
    <glyph glyph-name="edotaccent" unicode="&#x117;" horiz-adv-x="574" 
d="M528 224q8 40 8 81q0 56 -17.5 98.5t-49 71t-76 42.5t-98.5 14q-66 0 -119 -26.5t-89.5 -71t-56.5 -102t-20 -119.5q0 -55 16.5 -97.5t46.5 -71t72.5 -43t94.5 -14.5q56 0 98.5 11.5t74.5 34t55 55.5t40 77h-142q-8 -12 -17.5 -25t-22 -23t-29 -16.5t-37.5 -6.5
q-58 0 -86 28t-28 73v13t1 17h381zM162 314q8 22 19.5 42t28.5 35t40 24t53 9q31 0 50 -9.5t29 -25.5t13.5 -35.5t3.5 -39.5h-237zM273 597h131l24 117h-131z" />
    <glyph glyph-name="Gbreve" unicode="&#x11e;" horiz-adv-x="759" 
d="M536 0h99l82 386h-303l-25 -117h165q-10 -34 -25.5 -62.5t-39 -48.5t-56 -31.5t-77.5 -11.5q-43 0 -73.5 15t-50 40.5t-29 58.5t-9.5 70q0 51 14 104.5t42.5 97t73 71t104.5 27.5q66 0 104 -28t41 -93h157q0 66 -24 113.5t-65 78.5t-96 46t-118 15q-90 0 -162.5 -35
t-123 -94.5t-77.5 -137.5t-27 -165q0 -152 83 -234t234 -82q50 0 97.5 21t82.5 69h2v-73zM303 908q0 -67 40.5 -106.5t109.5 -39.5q76 0 122.5 38t66.5 108h-66q-18 -34 -43.5 -52.5t-70.5 -18.5q-38 0 -64.5 17t-29.5 54h-65z" />
    <glyph glyph-name="gbreve" unicode="&#x11f;" 
d="M304 424q52 0 77 -31.5t25 -80.5q0 -33 -9.5 -68t-28 -63.5t-47 -47t-66.5 -18.5q-25 0 -43 9t-30 25t-17.5 36.5t-5.5 43.5q0 31 9.5 65.5t27.5 63t45 47.5t63 19zM590 517h-136l-16 -79h-2q-22 51 -63 72t-95 21q-62 0 -110.5 -27.5t-82 -72t-51 -100t-17.5 -112.5
q0 -48 14 -86.5t39.5 -66.5t62.5 -43t83 -15q87 0 142 73l2 -2q-11 -38 -22 -71t-27 -57t-38.5 -38t-56.5 -14q-17 0 -34 4t-30.5 13t-21.5 23t-7 34h-142q0 -47 20 -79t51.5 -52t71 -29t78.5 -9q64 0 111.5 13t82 40t56.5 69t35 101zM202 727q0 -67 40.5 -106.5
t109.5 -39.5q76 0 122.5 38t66.5 108h-66q-18 -34 -43.5 -52.5t-70.5 -18.5q-38 0 -64.5 17t-29.5 54h-65z" />
    <glyph glyph-name="Gcommaaccent" unicode="&#x122;" horiz-adv-x="759" 
d="M536 0h99l82 386h-303l-25 -117h165q-10 -34 -25.5 -62.5t-39 -48.5t-56 -31.5t-77.5 -11.5q-43 0 -73.5 15t-50 40.5t-29 58.5t-9.5 70q0 51 14 104.5t42.5 97t73 71t104.5 27.5q66 0 104 -28t41 -93h157q0 66 -24 113.5t-65 78.5t-96 46t-118 15q-90 0 -162.5 -35
t-123 -94.5t-77.5 -137.5t-27 -165q0 -152 83 -234t234 -82q50 0 97.5 21t82.5 69h2v-73zM248 -159h54q-7 -33 -21 -51t-49 -23l-11 -56q57 2 87.5 25.5t46.5 59.5t22.5 79t17.5 85h-122z" />
    <glyph glyph-name="gcommaaccent" unicode="&#x123;" 
d="M304 424q52 0 77 -31.5t25 -80.5q0 -33 -9.5 -68t-28 -63.5t-47 -47t-66.5 -18.5q-25 0 -43 9t-30 25t-17.5 36.5t-5.5 43.5q0 31 9.5 65.5t27.5 63t45 47.5t63 19zM590 517h-136l-16 -79h-2q-22 51 -63 72t-95 21q-62 0 -110.5 -27.5t-82 -72t-51 -100t-17.5 -112.5
q0 -48 14 -86.5t39.5 -66.5t62.5 -43t83 -15q87 0 142 73l2 -2q-11 -38 -22 -71t-27 -57t-38.5 -38t-56.5 -14q-17 0 -34 4t-30.5 13t-21.5 23t-7 34h-142q0 -47 20 -79t51.5 -52t71 -29t78.5 -9q64 0 111.5 13t82 40t56.5 69t35 101zM418 716h-54q7 33 21 51t49 23l11 56
q-57 -2 -87.5 -25.5t-46.5 -59.5t-23 -79t-17 -85h122z" />
    <glyph glyph-name="Imacron" unicode="&#x12a;" horiz-adv-x="296" 
d="M-4 0h158l151 714h-158zM87 797h305l14 75h-305z" />
    <glyph glyph-name="imacron" unicode="&#x12b;" horiz-adv-x="259" 
d="M-12 0h143l110 517h-143zM35 616h305l14 75h-305z" />
    <glyph glyph-name="Iogonek" unicode="&#x12e;" horiz-adv-x="296" 
d="M-4 0h50q-48 -19 -76 -37.5t-43 -35t-19 -31t-4 -24.5q0 -32 13 -50t31 -27t36 -11t27 -2q34 0 69 15t65 53l-48 22q-14 -19 -28 -24.5t-30 -5.5q-15 0 -27 9.5t-12 24.5q0 12 4.5 25.5t17 28.5t35 32t57.5 38h40l151 714h-158z" />
    <glyph glyph-name="iogonek" unicode="&#x12f;" horiz-adv-x="259" 
d="M283 714h-143l-26 -117h143zM241 517h-143l-110 -517h43q-48 -19 -76 -37.5t-43 -35t-19 -31t-4 -24.5q0 -32 13 -50t31 -27t36 -11t27 -2q34 0 69 15t65 53l-48 22q-14 -19 -28 -24.5t-30 -5.5q-15 0 -27 9.5t-12 24.5q0 12 4.5 25.5t17 28.5t35 32t57.5 38h32z" />
    <glyph glyph-name="Idotaccent" unicode="&#x130;" horiz-adv-x="296" 
d="M-4 0h158l151 714h-158zM173 778h131l24 117h-131z" />
    <glyph glyph-name="dotlessi" unicode="&#x131;" horiz-adv-x="259" 
d="M241 517h-143l-110 -517h143z" />
    <glyph glyph-name="Kcommaaccent" unicode="&#x136;" horiz-adv-x="722" 
d="M-4 0h158l47 226l109 95l163 -321h177l-219 420l343 294h-208l-324 -299h-2l62 299h-157zM200 -159h54q-7 -33 -21 -51t-49 -23l-11 -56q57 2 87.5 25.5t46.5 59.5t22.5 79t17.5 85h-122z" />
    <glyph glyph-name="kcommaaccent" unicode="&#x137;" horiz-adv-x="556" 
d="M-12 0h142l35 168l74 63l85 -231h156l-133 321l232 196h-175l-204 -193l-2 2l82 388h-142zM104 -159h54q-7 -33 -21 -51t-49 -23l-11 -56q57 2 87.5 25.5t46.5 59.5t22.5 79t17.5 85h-122z" />
    <glyph glyph-name="Lcommaaccent" unicode="&#x13b;" horiz-adv-x="574" 
d="M-4 0h503l28 132h-345l122 582h-158zM158 -159h54q-7 -33 -21 -51t-49 -23l-11 -56q57 2 87.5 25.5t46.5 59.5t22.5 79t17.5 85h-122z" />
    <glyph glyph-name="lcommaaccent" unicode="&#x13c;" horiz-adv-x="259" 
d="M-12 0h142l152 714h-142zM-31 -159h54q-7 -33 -21 -51t-49 -23l-11 -56q57 2 87.5 25.5t46.5 59.5t22.5 79t17.5 85h-122z" />
    <glyph glyph-name="Ncommaaccent" unicode="&#x145;" horiz-adv-x="741" 
d="M-4 0h147l102 501h2l196 -501h157l151 714h-144l-102 -508h-2l-194 508h-162zM224 -159h54q-7 -33 -21 -51t-49 -23l-11 -56q57 2 87.5 25.5t46.5 59.5t22.5 79t17.5 85h-122z" />
    <glyph glyph-name="ncommaaccent" unicode="&#x146;" 
d="M-12 0h142l58 275q6 27 17 53t29 46t42.5 32.5t56.5 12.5q25 0 46.5 -15t21.5 -38q0 -5 -1 -13.5t-2 -17.5t-3 -17.5t-3 -14.5l-63 -303h142l64 303q1 7 4 18.5t5 24.5t4 25.5t2 20.5q0 68 -38.5 103.5t-112.5 35.5q-112 0 -181 -86h-2l16 72h-136zM140 -159h54
q-7 -33 -21 -51t-49 -23l-11 -56q57 2 87.5 25.5t46.5 59.5t22.5 79t17.5 85h-122z" />
    <glyph glyph-name="Omacron" unicode="&#x14c;" horiz-adv-x="778" 
d="M194 299q0 51 14 104.5t42.5 97t73 71t104.5 27.5q43 0 73.5 -15t49.5 -40t27.5 -59t8.5 -71q0 -51 -14.5 -104t-43.5 -96.5t-72 -71t-101 -27.5q-43 0 -73.5 15t-50 40.5t-29 58.5t-9.5 70zM37 299q0 -152 83 -234t234 -82q94 0 166.5 36t122 97t75.5 141t26 168
q0 75 -22.5 132t-63.5 96t-100 58.5t-131 19.5q-90 0 -162.5 -35t-123 -94.5t-77.5 -137.5t-27 -165zM295 797h305l14 75h-305z" />
    <glyph glyph-name="omacron" unicode="&#x14d;" horiz-adv-x="593" 
d="M10 209q0 -111 64.5 -167t172.5 -56q70 0 126 25.5t95 69.5t59.5 103.5t20.5 127.5q0 56 -17.5 97t-49.5 68t-76.5 40.5t-97.5 13.5q-69 0 -124 -25.5t-93.5 -69.5t-59 -102.5t-20.5 -124.5zM152 209q0 33 9 70.5t27 69.5t46.5 53.5t67.5 21.5q56 0 80 -31t24 -83
q0 -33 -9 -71t-27.5 -70.5t-47 -54t-68.5 -21.5q-25 0 -44 9.5t-32 25.5t-19.5 37t-6.5 44zM178 616h305l14 75h-305z" />
    <glyph glyph-name="OE" unicode="&#x152;" horiz-adv-x="648" 
d="M5 237q0 -130 74 -192t223 -62q51 0 103 13t93.5 41t68 73t26.5 109q0 48 -14 81t-39.5 56t-60.5 37.5t-77 25.5q-18 4 -47 10.5t-56.5 18t-47 28.5t-19.5 44q0 25 11 42t29 27.5t40 15t45 4.5q27 0 51 -5.5t41.5 -18.5t27 -33.5t8.5 -50.5h149q0 62 -21.5 105.5
t-58 71.5t-85 40.5t-103.5 12.5q-52 0 -102.5 -12.5t-90.5 -39t-65 -68.5t-25 -102q0 -46 15.5 -78t41 -53.5t57.5 -36t66 -24.5q33 -10 65.5 -19t58 -20.5t41.5 -28.5t16 -43q0 -27 -12.5 -46t-32 -31t-43.5 -18t-48 -6q-34 0 -63 6.5t-50 21.5t-32 40.5t-9 63.5h-149z
M545 904h-152l-88 -142h100z" />
    <glyph glyph-name="oe" unicode="&#x153;" horiz-adv-x="519" 
d="M484 366q1 50 -16.5 82t-46.5 50.5t-68 25.5t-81 7q-38 0 -78 -8.5t-74 -28t-55.5 -50.5t-21.5 -77q0 -30 7.5 -51.5t22 -36.5t35 -25t47.5 -19l109 -35q23 -8 37 -19t14 -38q0 -18 -8 -29.5t-21 -19t-29 -10.5t-32 -3q-18 0 -36.5 4.5t-33 13t-23.5 21.5t-9 31v17h-132
v-21q0 -45 20 -76t52 -50t71 -27t77 -8q45 0 89 9.5t79 30.5t56.5 54.5t21.5 81.5q0 33 -10.5 56.5t-29 40.5t-43.5 29.5t-53 21.5l-71 23q-36 11 -50.5 23t-14.5 29q0 28 24.5 39.5t62.5 11.5q41 0 60 -18.5t20 -51.5h132zM450 723h-152l-88 -142h100z" />
    <glyph glyph-name="Rcommaaccent" unicode="&#x156;" horiz-adv-x="722" 
d="M-4 0h157l59 279h148q23 0 42 -3.5t32.5 -13.5t21 -26.5t7.5 -42.5q0 -36 -4 -72.5t-4 -72.5q0 -12 2 -23.5t5 -24.5h153q-6 16 -8 37.5t-2 45.5q0 33 2.5 66.5t2.5 57.5q0 21 -3.5 41t-11.5 36.5t-22.5 29t-36.5 19.5v2q36 5 66 22t52 42.5t34 58.5t12 69q0 52 -15 88
t-43 58t-67.5 32t-87.5 9h-341zM278 592h149q23 0 44 -3t37 -12t25.5 -26.5t9.5 -46.5q0 -30 -13.5 -51.5t-36 -35t-52 -20t-60.5 -6.5h-145zM212 -159h54q-7 -33 -21 -51t-49 -23l-11 -56q57 2 87.5 25.5t46.5 59.5t22.5 79t17.5 85h-122z" />
    <glyph glyph-name="rcommaaccent" unicode="&#x157;" horiz-adv-x="389" 
d="M-12 0h142l48 229q7 33 18.5 63.5t31 54.5t48 38t69.5 14q15 0 30 -3l30 -6l29 138q-23 3 -44 3q-57 0 -105.5 -27.5t-72.5 -81.5l-2 2l21 93h-135zM-31 -159h54q-7 -33 -21 -51t-49 -23l-11 -56q57 2 87.5 25.5t46.5 59.5t22.5 79t17.5 85h-122z" />
    <glyph glyph-name="Umacron" unicode="&#x16a;" horiz-adv-x="741" 
d="M750 714h-157l-89 -423q-9 -41 -19 -73.5t-29 -55t-49 -35t-78 -12.5q-41 0 -67 10t-41 24.5t-20.5 31t-5.5 30.5q0 9 1.5 20.5t4 24.5t5 24.5t4.5 20.5l87 413h-157l-87 -413q-5 -26 -10 -52.5t-5 -53.5q0 -59 24.5 -99t64 -65.5t90 -36.5t102.5 -11q83 0 141 20.5
t98 60.5t64.5 99t40.5 136zM306 797h305l14 75h-305z" />
    <glyph glyph-name="umacron" unicode="&#x16b;" 
d="M586 517h-142l-58 -275q-6 -27 -17 -53t-29 -46t-42.5 -32.5t-56.5 -12.5q-25 0 -46.5 15t-21.5 38q0 5 1 13.5t2 17.5t2.5 17.5t3.5 14.5l63 303h-142l-64 -303q-2 -7 -4.5 -18.5t-4.5 -24.5t-4 -25.5t-2 -20.5q0 -68 38.5 -103.5t112.5 -35.5q112 0 181 86h2l-16 -72
h136zM199 616h305l14 75h-305z" />
    <glyph glyph-name="Uogonek" unicode="&#x172;" horiz-adv-x="741" 
d="M297 714h-157l-87 -413q-5 -26 -10 -52.5t-5 -53.5q0 -59 24.5 -99t64 -65.5t90 -36.5t102.5 -11h18t18 1q-35 -17 -56 -33t-32 -30.5t-14 -27t-3 -21.5q0 -32 13 -50t31 -27t36 -11t27 -2q34 0 69 15t65 53l-48 22q-14 -19 -28 -24.5t-30 -5.5q-15 0 -27 9.5t-12 24.5
q0 13 7.5 29.5t23.5 34.5t41 36t61 34q27 12 53.5 31t50 51.5t44 82t36.5 124.5l87 415h-157l-89 -423q-9 -41 -19 -73.5t-29 -55t-49 -35t-78 -12.5q-41 0 -67 10t-41 24.5t-20.5 31t-5.5 30.5q0 9 1.5 20.5t4 24.5t5 24.5t4.5 20.5z" />
    <glyph glyph-name="uogonek" unicode="&#x173;" 
d="M586 517h-142l-58 -275q-6 -27 -17 -53t-29 -46t-42.5 -32.5t-56.5 -12.5q-25 0 -46.5 15t-21.5 38q0 5 1 13.5t2 17.5t2.5 17.5t3.5 14.5l63 303h-142l-64 -303q-2 -7 -4.5 -18.5t-4.5 -24.5t-4 -25.5t-2 -20.5q0 -68 38.5 -103.5t112.5 -35.5q112 0 181 86h2l-16 -72
h36q-48 -19 -76 -37.5t-43 -35t-19 -31t-4 -24.5q0 -32 13 -50t31 -27t36 -11t27 -2q34 0 69 15t65 53l-48 22q-14 -19 -28 -24.5t-30 -5.5q-15 0 -27 9.5t-12 24.5q0 12 4.5 25.5t17 28.5t35 32t57.5 38h32z" />
    <glyph glyph-name="Ydieresis" unicode="&#x178;" horiz-adv-x="500" 
d="M-51 0h469l23 107h-285l325 305l22 105h-434l-23 -107h249l-324 -305zM483 723h-152l-88 -142h100z" />
    <glyph glyph-name="florin" unicode="&#x192;" horiz-adv-x="556" 
d="M-31 -166q17 -1 34.5 -2.5t34.5 -1.5q50 0 85.5 13t60 38t41 61t28.5 81l85 314h106l26 95h-104l30 114q6 15 11.5 29t14.5 25t22.5 17.5t35.5 6.5q11 0 21 -1.5t21 -2.5l28 103q-21 2 -41.5 5t-42.5 3q-81 0 -134 -37.5t-70 -114.5l-39 -147h-95l-28 -95h96l-81 -296
q-5 -16 -10 -34.5t-14 -34t-22.5 -25.5t-35.5 -10q-9 0 -18 0.5t-18 0.5z" />
    <glyph glyph-name="circumflex" unicode="&#x2c6;" horiz-adv-x="259" 
d="M9 581h109l87 81l50 -81h100l-83 142h-126z" />
    <glyph glyph-name="macron" unicode="&#x2c9;" horiz-adv-x="259" 
d="M35 616h305l14 75h-305z" />
    <glyph glyph-name="ring" unicode="&#x2da;" horiz-adv-x="259" 
d="M131 656q0 29 17 49.5t46 20.5t46.5 -20.5t17.5 -49.5t-17.5 -49.5t-46.5 -20.5t-46 20.5t-17 49.5zM72 656q0 -25 9.5 -47.5t26 -39t39 -26t47.5 -9.5t47.5 9.5t39.5 26t26.5 39t9.5 47.5t-9.5 47.5t-26.5 39t-39.5 26t-47.5 9.5t-47.5 -9.5t-39 -26t-26 -39t-9.5 -47.5
z" />
    <glyph glyph-name="tilde" unicode="&#x2dc;" horiz-adv-x="259" 
d="M311 714q1 -14 -9 -24.5t-33 -10.5q-17 0 -33.5 5.5t-32.5 12.5q-16 6 -31.5 11.5t-32.5 5.5q-33 0 -55 -11t-36 -28.5t-22 -39t-13 -43.5h61q5 19 13.5 30.5t28.5 11.5q17 0 34 -5t36 -12q19 -6 39 -11.5t43 -5.5q31 0 50 11.5t31 28.5t19 37t12 37h-69z" />
    <glyph glyph-name="Delta" unicode="&#x394;" horiz-adv-x="740" 
d="M474 122h-329l301 440zM-74 0h696l-52 714h-146z" />
    <glyph glyph-name="partialdiff" unicode="&#x2202;" 
d="M147 590q9 7 20.5 15t26.5 15.5t33 12.5t39 5q9 0 26 -2.5t36.5 -12t38.5 -30t33 -56.5q5 -14 14.5 -53.5t7.5 -107.5q-22 20 -43 31.5t-40 17.5t-35 7.5t-28 1.5q-48 0 -87.5 -16.5t-67 -46t-43 -69.5t-15.5 -87q0 -40 12.5 -80.5t39 -73t67.5 -53t97 -20.5
q59 0 100.5 20t69.5 52t44.5 72.5t24.5 82t10.5 79.5t2.5 65q0 22 -1.5 50.5t-7 59.5t-15 62.5t-24.5 58.5q-32 57 -87 94t-134 37q-31 0 -56.5 -6t-46 -15.5t-37.5 -21t-31 -22.5zM166 210q0 27 7.5 53t22.5 46.5t38.5 32.5t56.5 12q27 0 48 -7.5t37 -18.5t27 -22.5
t17 -18.5q1 -40 -6.5 -79.5t-24.5 -70.5t-43.5 -50t-62.5 -19q-22 0 -43 8t-37.5 25t-26.5 44t-10 65z" />
    <glyph glyph-name="summation" unicode="&#x2211;" horiz-adv-x="643" 
d="M606 786h-568v-84l293 -411l-306 -420v-85h593v97h-456l298 409l-279 396h425v98z" />
    <glyph glyph-name="minus" unicode="&#x2212;" horiz-adv-x="600" 
d="M48 199h505v107h-505v-107z" />
    <glyph glyph-name="fraction" unicode="&#x2215;" horiz-adv-x="167" 
d="M-166 -22h87l412 744h-85z" />
    <glyph glyph-name="radical" unicode="&#x221a;" horiz-adv-x="531" 
d="M544 786h-110l-171 -835l-132 281l-143 -65l40 -85l49 23l154 -319h101z" />
    <glyph glyph-name="notequal" unicode="&#x2260;" horiz-adv-x="600" 
d="M48 92h106l-48 -95l95 -48l72 143h280v107h-226l54 107h172v107h-117l48 95l-95 48l-72 -143h-269v-107h215l-55 -107h-160v-107z" />
    <glyph glyph-name="lessequal" unicode="&#x2264;" horiz-adv-x="600" 
d="M553 100v113l-348 111l348 117v113l-505 -179v-102zM48 -41h505v107h-505v-107z" />
    <glyph glyph-name="greaterequal" unicode="&#x2265;" 
d="M553 273v102l-505 179v-113l348 -117l-348 -111v-113zM553 66h-505v-107h505v107z" />
    <glyph glyph-name="lozenge" unicode="&#x25ca;" horiz-adv-x="600" 
d="M348 747h-96l-176 -391l176 -391h96l176 391zM421 356l-121 -291l-120 291l120 290z" />
    <glyph glyph-name=".361" unicode="&#xe000;" horiz-adv-x="1111" 
d="M482 0h502l28 132h-368l38 175h329l26 122h-330l33 153h361l28 132h-507l-14 -65q-32 45 -80 63.5t-101 18.5q-93 0 -165.5 -36.5t-122.5 -98t-76 -141.5t-26 -167q0 -63 17.5 -119t51.5 -97t85 -65t119 -24q50 0 100 18.5t82 56.5l2 -2zM425 599q28 0 53.5 -7t45 -21
t31 -36t11.5 -53q0 -19 -4.5 -52t-11.5 -69t-15.5 -69.5t-15.5 -52.5q-20 -56 -66.5 -90t-112.5 -34q-39 0 -67 13.5t-45.5 37t-25.5 55.5t-8 68q0 51 13.5 106t41.5 100.5t72 74.5t104 29z" />
    <glyph glyph-name=".362" unicode="&#xe001;" horiz-adv-x="926" 
d="M519 314q9 23 20.5 43t28 35t39.5 23.5t54 8.5q23 0 40.5 -7.5t29.5 -20t18 -28.5t6 -32q0 -5 -0.5 -11t-1.5 -11h-234zM718 161q-12 -34 -42.5 -51t-71.5 -17q-48 0 -75 27.5t-27 69.5q0 5 0.5 13.5t2.5 20.5h377q5 23 7.5 42t2.5 38q0 107 -60.5 167t-169.5 60
q-23 0 -49 -6t-50 -17t-44.5 -26.5t-33.5 -34.5q-13 22 -32.5 38t-42.5 26.5t-48.5 15t-50.5 4.5q-66 0 -121.5 -27t-95 -71t-62 -100t-22.5 -113q0 -43 10.5 -85t36 -75t68 -53.5t106.5 -20.5q54 0 104 20t82 66q32 -52 78.5 -69t105.5 -17q44 0 85 11t75 32.5t59.5 54.5
t39.5 77h-142zM152 201q0 29 8.5 67.5t27 73t47.5 58.5t70 24q24 0 41 -8t28 -21t16 -29.5t5 -34.5q0 -34 -8 -75.5t-25 -77.5t-45 -60.5t-68 -24.5q-25 0 -43.5 8.5t-30.5 23.5t-17.5 34.5t-5.5 41.5z" />
    <glyph glyph-name=".363" unicode="&#xe002;" horiz-adv-x="648" 
d="M175 0h158l55 270l348 444h-185l-222 -304l-107 304h-161l171 -437zM432 778h131l24 117h-131zM236 778h131l24 117h-131z" />
    <glyph glyph-name="commaaccent" unicode="&#xf004;" horiz-adv-x="278" 
d="M310 674h-142l-32 -157h-91l-22 -95h93l-58 -277q-3 -14 -5 -26.5t-2 -22.5q-1 -32 11 -52t31 -32t43.5 -16.5t49.5 -4.5q23 0 45 1.5t44 3.5l24 110q-26 -3 -51 -3q-8 0 -16.5 0.5t-15.5 4.5t-11.5 11.5t-4.5 21.5q0 3 1 9.5t3 14.5l53 257h101l22 95h-102zM64 -159h54
q-7 -33 -21 -51t-49 -23l-11 -56q57 2 87.5 25.5t46.5 59.5t22.5 79t17.5 85h-122z" />
    <glyph glyph-name="commaaccent" unicode="&#xf6c3;" horiz-adv-x="278" 
d="M310 674h-142l-32 -157h-91l-22 -95h93l-58 -277q-3 -14 -5 -26.5t-2 -22.5q-1 -32 11 -52t31 -32t43.5 -16.5t49.5 -4.5q23 0 45 1.5t44 3.5l24 110q-26 -3 -51 -3q-8 0 -16.5 0.5t-15.5 4.5t-11.5 11.5t-4.5 21.5q0 3 1 9.5t3 14.5l53 257h101l22 95h-102zM64 -159h54
q-7 -33 -21 -51t-49 -23l-11 -56q57 2 87.5 25.5t46.5 59.5t22.5 79t17.5 85h-122z" />
    <glyph glyph-name="fi" unicode="&#xfb01;" 
d="M635 714h-142l-26 -117h142zM341 0h142l110 517h-142zM17 0h142l89 422h102l20 95h-101q6 22 10 40t11.5 30.5t22 19t40.5 6.5q11 0 23 -1t23 -2l22 102q-23 4 -46.5 6t-46.5 2q-56 0 -90.5 -13t-55.5 -39t-33 -64t-22 -87h-85l-20 -95h84z" />
    <glyph glyph-name="fl" unicode="&#xfb02;" 
d="M340 0h142l152 714h-142zM17 0h142l89 422h102l20 95h-101q6 22 10 40t11.5 30.5t22 19t40.5 6.5q11 0 23 -1t23 -2l22 102q-23 4 -46.5 6t-46.5 2q-56 0 -90.5 -13t-55.5 -39t-33 -64t-22 -87h-85l-20 -95h84z" />
    <glyph glyph-name="logicalnot" horiz-adv-x="600" 
d="M552 406h-504v-107h397v-200h107v307z" />
    <glyph glyph-name="ordfeminine" horiz-adv-x="344" 
d="M265 509q-4 -12 -10 -24.5t-15.5 -22t-24.5 -16t-37 -6.5q-17 0 -32 8.5t-15 24.5q0 27 19.5 36t45.5 12q20 2 40 4.5t37 10.5zM168 609q5 20 24 30t42 10q6 0 15 -1.5t17.5 -5.5t14 -11t5.5 -17q0 -12 -11 -18.5t-29 -10t-41 -5t-47 -4.5q-60 -7 -94.5 -35.5
t-34.5 -83.5q0 -33 28 -57.5t88 -24.5q13 0 26.5 2.5t26.5 7.5t25 12.5t21 17.5v-31h106q-2 8 -3 14t-1 10q0 9 1.5 21.5t3.5 20.5l30 125q3 14 5 28t2 24q0 28 -13.5 45t-35 26.5t-48.5 12.5t-53 3q-28 0 -55.5 -4.5t-50.5 -16.5t-38.5 -32t-20.5 -52h95z" />
    <glyph glyph-name="ugrave" 
d="M586 517h-142l-58 -275q-6 -27 -17 -53t-29 -46t-42.5 -32.5t-56.5 -12.5q-25 0 -46.5 15t-21.5 38q0 5 1 13.5t2 17.5t2.5 17.5t3.5 14.5l63 303h-142l-64 -303q-2 -7 -4.5 -18.5t-4.5 -24.5t-4 -25.5t-2 -20.5q0 -68 38.5 -103.5t112.5 -35.5q112 0 181 86h2l-16 -72
h136zM328 581h100l-58 142h-152z" />
    <glyph glyph-name="atilde" horiz-adv-x="574" 
d="M346 198q-6 -21 -15 -42t-24.5 -37.5t-38 -27t-55.5 -10.5q-31 0 -54.5 14.5t-23.5 43.5q0 24 9 39.5t23.5 24.5t33.5 13.5t39 6.5q31 2 62 5.5t58 19.5zM193 360q7 39 37 57.5t68 18.5q13 0 29 -2.5t29.5 -9.5t22.5 -19.5t9 -31.5q0 -25 -12 -37.5t-36.5 -19t-61.5 -9.5
t-87 -9q-93 -11 -145.5 -56t-52.5 -120q0 -27 10.5 -51.5t31.5 -43.5t52.5 -30t73.5 -11q44 0 86.5 16t71.5 49v-51h142q-5 15 -5 30t1.5 35.5t5.5 34.5l46 208q5 24 8 47t3 40q1 43 -19.5 70t-52.5 41.5t-70.5 19.5t-72.5 5q-44 0 -85 -8.5t-74.5 -28.5t-56 -52.5
t-29.5 -81.5h133zM469 714q1 -14 -9 -24.5t-33 -10.5q-17 0 -33.5 5.5t-32.5 12.5q-16 6 -31.5 11.5t-32.5 5.5q-33 0 -55 -11t-36 -28.5t-22 -39t-13 -43.5h61q5 19 13.5 30.5t28.5 11.5q17 0 34 -5t36 -12q19 -6 39 -11.5t43 -5.5q31 0 50 11.5t31 28.5t19 37t12 37h-69z
" />
    <glyph glyph-name="igrave" horiz-adv-x="259" 
d="M-12 0h143l110 517h-143zM158 581h100l-58 142h-152z" />
    <glyph glyph-name="Idieresis" horiz-adv-x="296" 
d="M-4 0h158l151 714h-158zM271 778h131l24 117h-131zM75 778h131l24 117h-131z" />
    <glyph glyph-name="ydieresis" horiz-adv-x="519" 
d="M543 517h-150l-179 -370h-2l-45 370h-146l92 -512q-7 -10 -13 -22.5t-16 -23t-25 -17.5t-40 -7q-14 0 -29 3t-29 3l-24 -118q19 -1 38 -3t38 -2q40 0 69.5 4.5t52.5 16.5t42 33.5t37 54.5zM319 597h131l24 117h-131zM123 597h131l24 117h-131z" />
    <glyph glyph-name="sterling" horiz-adv-x="556" 
d="M31 -17q31 19 56.5 28.5t61.5 9.5q25 0 51 -6t52 -13t51.5 -13t48.5 -6q49 0 86.5 12t79.5 39l-41 107q-20 -15 -45.5 -25.5t-50.5 -10.5q-18 0 -35.5 3.5t-34.5 8t-34 8t-35 3.5q-22 0 -43 -4t-40 -12l-2 2q45 32 70 71t25 98v14q0 7 -1 14h114l17 85h-141
q-7 17 -12.5 46.5t-5.5 54.5q0 52 29.5 84.5t83.5 32.5q28 0 46.5 -10t30 -28t15.5 -43.5t3 -56.5h137q5 128 -57 191.5t-175 63.5q-51 0 -98 -14.5t-83.5 -43t-58.5 -70.5t-22 -96q0 -10 2 -24.5t5 -30t7 -30.5t8 -26h-64l-18 -85h97q2 -14 3 -28t1 -31q0 -30 -11.5 -54.5
t-29.5 -45t-40.5 -38.5t-44.5 -34z" />
    <glyph glyph-name="ae" horiz-adv-x="907" 
d="M510 314q9 51 45.5 86.5t91.5 35.5q30 0 49.5 -9.5t30.5 -26t15 -38.5t4 -48h-236zM209 360q3 23 13 37.5t25.5 23t35 12t39.5 3.5q13 0 27.5 -2.5t26 -10t19 -20t7.5 -33.5q0 -25 -15 -38t-40.5 -19.5t-59.5 -8.5t-71 -5q-113 -9 -162.5 -54.5t-49.5 -119.5
q0 -28 9.5 -53.5t31.5 -44.5t58 -30t88 -11q68 0 124 23t88 73q26 -47 73.5 -71.5t114.5 -24.5q43 0 82 9t72.5 29.5t60.5 53.5t46 82h-142q-14 -43 -42.5 -61t-66.5 -18q-26 0 -46.5 8t-34.5 21.5t-21.5 31t-7.5 36.5q0 13 1 23t4 23h372q2 20 3.5 37.5t1.5 35.5
q0 52 -11.5 95t-36.5 74t-64.5 48t-96.5 17q-48 0 -94 -15t-77 -53q-11 19 -30.5 32.5t-42.5 21t-48 11t-46 3.5q-47 0 -88.5 -8t-75 -27.5t-57 -52.5t-33.5 -83h137zM370 205q-5 -26 -15 -48.5t-26.5 -39t-41 -26.5t-58.5 -10q-15 0 -30 2.5t-27 9.5t-19 19t-7 31
q0 33 25.5 52.5t63.5 23.5t76.5 9t66.5 21z" />
    <glyph glyph-name="Aring" horiz-adv-x="685" 
d="M395 560h2l35 -284h-191zM-77 0h166l90 159h267l23 -159h156l-119 714h-161zM371 853q0 29 17 49.5t46 20.5t46.5 -20.5t17.5 -49.5t-17.5 -49.5t-46.5 -20.5t-46 20.5t-17 49.5zM312 853q0 -25 9.5 -47.5t26 -39t39 -26t47.5 -9.5t47.5 9.5t39.5 26t26.5 39t9.5 47.5
t-9.5 47.5t-26.5 39t-39.5 26t-47.5 9.5t-47.5 -9.5t-39 -26t-26 -39t-9.5 -47.5z" />
    <glyph glyph-name="ecircumflex" horiz-adv-x="574" 
d="M528 224q8 40 8 81q0 56 -17.5 98.5t-49 71t-76 42.5t-98.5 14q-66 0 -119 -26.5t-89.5 -71t-56.5 -102t-20 -119.5q0 -55 16.5 -97.5t46.5 -71t72.5 -43t94.5 -14.5q56 0 98.5 11.5t74.5 34t55 55.5t40 77h-142q-8 -12 -17.5 -25t-22 -23t-29 -16.5t-37.5 -6.5
q-58 0 -86 28t-28 73v13t1 17h381zM162 314q8 22 19.5 42t28.5 35t40 24t53 9q31 0 50 -9.5t29 -25.5t13.5 -35.5t3.5 -39.5h-237zM143 581h109l87 81l50 -81h100l-83 142h-126z" />
    <glyph glyph-name="ucircumflex" 
d="M586 517h-142l-58 -275q-6 -27 -17 -53t-29 -46t-42.5 -32.5t-56.5 -12.5q-25 0 -46.5 15t-21.5 38q0 5 1 13.5t2 17.5t2.5 17.5t3.5 14.5l63 303h-142l-64 -303q-2 -7 -4.5 -18.5t-4.5 -24.5t-4 -25.5t-2 -20.5q0 -68 38.5 -103.5t112.5 -35.5q112 0 181 86h2l-16 -72
h136zM173 581h109l87 81l50 -81h100l-83 142h-126z" />
    <glyph glyph-name="Ecircumflex" horiz-adv-x="667" 
d="M-4 0h551l28 132h-394l37 175h359l26 122h-359l32 153h388l27 132h-545zM240 762h109l87 81l50 -81h100l-83 142h-126z" />
    <glyph glyph-name="aring" horiz-adv-x="574" 
d="M346 198q-6 -21 -15 -42t-24.5 -37.5t-38 -27t-55.5 -10.5q-31 0 -54.5 14.5t-23.5 43.5q0 24 9 39.5t23.5 24.5t33.5 13.5t39 6.5q31 2 62 5.5t58 19.5zM193 360q7 39 37 57.5t68 18.5q13 0 29 -2.5t29.5 -9.5t22.5 -19.5t9 -31.5q0 -25 -12 -37.5t-36.5 -19t-61.5 -9.5
t-87 -9q-93 -11 -145.5 -56t-52.5 -120q0 -27 10.5 -51.5t31.5 -43.5t52.5 -30t73.5 -11q44 0 86.5 16t71.5 49v-51h142q-5 15 -5 30t1.5 35.5t5.5 34.5l46 208q5 24 8 47t3 40q1 43 -19.5 70t-52.5 41.5t-70.5 19.5t-72.5 5q-44 0 -85 -8.5t-74.5 -28.5t-56 -52.5
t-29.5 -81.5h133zM289 680q0 29 17 49.5t46 20.5t46.5 -20.5t17.5 -49.5t-17.5 -49.5t-46.5 -20.5t-46 20.5t-17 49.5zM230 680q0 -25 9.5 -47.5t26 -39t39 -26t47.5 -9.5t47.5 9.5t39.5 26t26.5 39t9.5 47.5t-9.5 47.5t-26.5 39t-39.5 26t-47.5 9.5t-47.5 -9.5t-39 -26
t-26 -39t-9.5 -47.5z" />
    <glyph glyph-name="agrave" horiz-adv-x="574" 
d="M346 198q-6 -21 -15 -42t-24.5 -37.5t-38 -27t-55.5 -10.5q-31 0 -54.5 14.5t-23.5 43.5q0 24 9 39.5t23.5 24.5t33.5 13.5t39 6.5q31 2 62 5.5t58 19.5zM193 360q7 39 37 57.5t68 18.5q13 0 29 -2.5t29.5 -9.5t22.5 -19.5t9 -31.5q0 -25 -12 -37.5t-36.5 -19t-61.5 -9.5
t-87 -9q-93 -11 -145.5 -56t-52.5 -120q0 -27 10.5 -51.5t31.5 -43.5t52.5 -30t73.5 -11q44 0 86.5 16t71.5 49v-51h142q-5 15 -5 30t1.5 35.5t5.5 34.5l46 208q5 24 8 47t3 40q1 43 -19.5 70t-52.5 41.5t-70.5 19.5t-72.5 5q-44 0 -85 -8.5t-74.5 -28.5t-56 -52.5
t-29.5 -81.5h133zM322 581h100l-58 142h-152z" />
    <glyph glyph-name="Ugrave" horiz-adv-x="741" 
d="M750 714h-157l-89 -423q-9 -41 -19 -73.5t-29 -55t-49 -35t-78 -12.5q-41 0 -67 10t-41 24.5t-20.5 31t-5.5 30.5q0 9 1.5 20.5t4 24.5t5 24.5t4.5 20.5l87 413h-157l-87 -413q-5 -26 -10 -52.5t-5 -53.5q0 -59 24.5 -99t64 -65.5t90 -36.5t102.5 -11q83 0 141 20.5
t98 60.5t64.5 99t40.5 136zM429 762h100l-58 142h-152z" />
    <glyph glyph-name="questiondown" horiz-adv-x="574" 
d="M323 44q-3 -24 -12 -46.5t-23.5 -39.5t-35 -27t-47.5 -10q-35 0 -61 19t-26 59q0 35 21 59t50 41q36 19 63.5 37t48 41t33.5 56t20 82h-132q-3 -27 -13 -47t-25 -36t-34.5 -28.5t-41.5 -24.5q-28 -16 -53 -34t-44 -41t-30.5 -51t-11.5 -64q0 -48 18 -83t48 -57.5
t69.5 -33.5t82.5 -11q57 0 106 15t86.5 45t60 75t25.5 105h-142zM416 531h-158l-33 -154h158z" />
    <glyph glyph-name="cent" horiz-adv-x="556" 
d="M216 99q-35 10 -49 39t-14 67q0 32 7 68.5t22.5 68.5t40.5 55t61 27zM171 -117h49l22 103h2q108 0 171 49.5t93 153.5h-142q-11 -35 -35 -63t-66 -33l68 327q60 -12 60 -82h142q-1 44 -15 77t-38 56.5t-56.5 37t-70.5 18.5l19 90h-49l-18 -86h-4q-70 0 -124 -25.5
t-91.5 -70t-57 -103t-19.5 -124.5q0 -100 47 -153.5t135 -64.5z" />
    <glyph glyph-name="oslash" horiz-adv-x="593" 
d="M156 177q-4 13 -4 32q0 33 9 70.5t27 69.5t46.5 53.5t67.5 21.5q60 0 83 -36zM403 344q3 -15 3 -34q0 -33 -9 -71t-27.5 -70.5t-47 -54t-68.5 -21.5q-27 0 -47 11t-33 30zM549 539l-68 -62q-32 27 -76 40.5t-98 13.5q-69 0 -124 -25.5t-93.5 -69.5t-59 -102.5
t-20.5 -124.5q0 -80 36 -133l-73 -67l29 -33l73 67q30 -29 74 -43t98 -14q70 0 126 25.5t95 69.5t59.5 103.5t20.5 127.5q0 41 -9.5 73.5t-27.5 58.5l68 62z" />
    <glyph glyph-name="Ograve" horiz-adv-x="778" 
d="M194 299q0 51 14 104.5t42.5 97t73 71t104.5 27.5q43 0 73.5 -15t49.5 -40t27.5 -59t8.5 -71q0 -51 -14.5 -104t-43.5 -96.5t-72 -71t-101 -27.5q-43 0 -73.5 15t-50 40.5t-29 58.5t-9.5 70zM37 299q0 -152 83 -234t234 -82q94 0 166.5 36t122 97t75.5 141t26 168
q0 75 -22.5 132t-63.5 96t-100 58.5t-131 19.5q-90 0 -162.5 -35t-123 -94.5t-77.5 -137.5t-27 -165zM424 762h100l-58 142h-152z" />
    <glyph glyph-name="Otilde" horiz-adv-x="778" 
d="M194 299q0 51 14 104.5t42.5 97t73 71t104.5 27.5q43 0 73.5 -15t49.5 -40t27.5 -59t8.5 -71q0 -51 -14.5 -104t-43.5 -96.5t-72 -71t-101 -27.5q-43 0 -73.5 15t-50 40.5t-29 58.5t-9.5 70zM37 299q0 -152 83 -234t234 -82q94 0 166.5 36t122 97t75.5 141t26 168
q0 75 -22.5 132t-63.5 96t-100 58.5t-131 19.5q-90 0 -162.5 -35t-123 -94.5t-77.5 -137.5t-27 -165zM571 895q1 -14 -9 -24.5t-33 -10.5q-17 0 -33.5 5.5t-32.5 12.5q-16 6 -31.5 11.5t-32.5 5.5q-33 0 -55 -11t-36 -28.5t-22 -39t-13 -43.5h61q5 19 13.5 30.5t28.5 11.5
q17 0 34 -5t36 -12q19 -6 39 -11.5t43 -5.5q31 0 50 11.5t31 28.5t19 37t12 37h-69z" />
    <glyph glyph-name="ntilde" 
d="M-12 0h142l58 275q6 27 17 53t29 46t42.5 32.5t56.5 12.5q25 0 46.5 -15t21.5 -38q0 -5 -1 -13.5t-2 -17.5t-3 -17.5t-3 -14.5l-63 -303h142l64 303q1 7 4 18.5t5 24.5t4 25.5t2 20.5q0 68 -38.5 103.5t-112.5 35.5q-112 0 -181 -86h-2l16 72h-136zM479 714
q1 -14 -9 -24.5t-33 -10.5q-17 0 -33.5 5.5t-32.5 12.5q-16 6 -31.5 11.5t-32.5 5.5q-33 0 -55 -11t-36 -28.5t-22 -39t-13 -43.5h61q5 19 13.5 30.5t28.5 11.5q17 0 34 -5t36 -12q19 -6 39 -11.5t43 -5.5q31 0 50 11.5t31 28.5t19 37t12 37h-69z" />
    <glyph glyph-name="AE" horiz-adv-x="981" 
d="M439 271h-172l219 311h20zM-91 0h176l109 154h220l-33 -154h497l28 132h-339l38 175h308l26 122h-308l33 153h329l28 132h-611z" />
    <glyph glyph-name="Ucircumflex" horiz-adv-x="741" 
d="M750 714h-157l-89 -423q-9 -41 -19 -73.5t-29 -55t-49 -35t-78 -12.5q-41 0 -67 10t-41 24.5t-20.5 31t-5.5 30.5q0 9 1.5 20.5t4 24.5t5 24.5t4.5 20.5l87 413h-157l-87 -413q-5 -26 -10 -52.5t-5 -53.5q0 -59 24.5 -99t64 -65.5t90 -36.5t102.5 -11q83 0 141 20.5
t98 60.5t64.5 99t40.5 136zM262 762h109l87 81l50 -81h100l-83 142h-126z" />
    <glyph glyph-name="ordmasculine" horiz-adv-x="356" 
d="M37 514q0 -71 42.5 -105t118.5 -34q48 0 86 15t63.5 42t39 64t13.5 80q0 72 -44 105t-119 33q-48 0 -85 -15.5t-62.5 -42.5t-39 -63.5t-13.5 -78.5zM139 514q0 18 5.5 40t17.5 41t29.5 31.5t41.5 12.5q34 0 49.5 -18t15.5 -46q0 -18 -5.5 -39.5t-17.5 -40.5t-30 -32
t-43 -13q-30 0 -46.5 20.5t-16.5 43.5z" />
    <glyph glyph-name="Egrave" horiz-adv-x="667" 
d="M-4 0h551l28 132h-394l37 175h359l26 122h-359l32 153h388l27 132h-545zM395 762h100l-58 142h-152z" />
    <glyph glyph-name="ograve" horiz-adv-x="593" 
d="M10 209q0 -111 64.5 -167t172.5 -56q70 0 126 25.5t95 69.5t59.5 103.5t20.5 127.5q0 56 -17.5 97t-49.5 68t-76.5 40.5t-97.5 13.5q-69 0 -124 -25.5t-93.5 -69.5t-59 -102.5t-20.5 -124.5zM152 209q0 33 9 70.5t27 69.5t46.5 53.5t67.5 21.5q56 0 80 -31t24 -83
q0 -33 -9 -71t-27.5 -70.5t-47 -54t-68.5 -21.5q-25 0 -44 9.5t-32 25.5t-19.5 37t-6.5 44zM307 581h100l-58 142h-152z" />
    <glyph glyph-name="egrave" horiz-adv-x="574" 
d="M528 224q8 40 8 81q0 56 -17.5 98.5t-49 71t-76 42.5t-98.5 14q-66 0 -119 -26.5t-89.5 -71t-56.5 -102t-20 -119.5q0 -55 16.5 -97.5t46.5 -71t72.5 -43t94.5 -14.5q56 0 98.5 11.5t74.5 34t55 55.5t40 77h-142q-8 -12 -17.5 -25t-22 -23t-29 -16.5t-37.5 -6.5
q-58 0 -86 28t-28 73v13t1 17h381zM162 314q8 22 19.5 42t28.5 35t40 24t53 9q31 0 50 -9.5t29 -25.5t13.5 -35.5t3.5 -39.5h-237zM298 581h100l-58 142h-152z" />
    <glyph glyph-name="Igrave" horiz-adv-x="296" 
d="M-4 0h158l151 714h-158zM214 762h100l-58 142h-152z" />
    <glyph glyph-name="Ntilde" horiz-adv-x="741" 
d="M-4 0h147l102 501h2l196 -501h157l151 714h-144l-102 -508h-2l-194 508h-162zM579 895q1 -14 -9 -24.5t-33 -10.5q-17 0 -33.5 5.5t-32.5 12.5q-16 6 -31.5 11.5t-32.5 5.5q-33 0 -55 -11t-36 -28.5t-22 -39t-13 -43.5h61q5 19 13.5 30.5t28.5 11.5q17 0 34 -5t36 -12
q19 -6 39 -11.5t43 -5.5q31 0 50 11.5t31 28.5t19 37t12 37h-69z" />
    <glyph glyph-name="Oslash" horiz-adv-x="778" 
d="M205 224q-11 35 -11 75q0 51 14 104.5t42.5 97t73 71t104.5 27.5q42 0 72 -14t50 -40zM577 489q5 -17 7.5 -36t2.5 -39q0 -51 -14.5 -104t-43.5 -96.5t-72 -71t-101 -27.5q-42 0 -72.5 14.5t-50.5 40.5zM801 696l-41 45l-99 -92q-42 42 -100.5 62t-133.5 20
q-90 0 -162.5 -35t-123 -94.5t-77.5 -137.5t-27 -165q0 -114 47 -187l-103 -96l40 -44l101 94q81 -83 232 -83q94 0 166.5 36t122 97t75.5 141t26 168q0 54 -11.5 98t-33.5 79z" />
    <glyph glyph-name="idieresis" horiz-adv-x="259" 
d="M-12 0h143l110 517h-143zM213 597h131l24 117h-131zM17 597h131l24 117h-131z" />
    <glyph glyph-name="yen" horiz-adv-x="556" 
d="M130 0h152l29 138h155l20 95h-157l12 45l21 30h139l20 95h-93l217 311h-165l-189 -311h-2l-59 311h-165l88 -311h-94l-20 -95h141l8 -30l-9 -45h-155l-20 -95h155z" />
    <glyph glyph-name="Atilde" horiz-adv-x="685" 
d="M395 560h2l35 -284h-191zM-77 0h166l90 159h267l23 -159h156l-119 714h-161zM551 895q1 -14 -9 -24.5t-33 -10.5q-17 0 -33.5 5.5t-32.5 12.5q-16 6 -31.5 11.5t-32.5 5.5q-33 0 -55 -11t-36 -28.5t-22 -39t-13 -43.5h61q5 19 13.5 30.5t28.5 11.5q17 0 34 -5t36 -12
q19 -6 39 -11.5t43 -5.5q31 0 50 11.5t31 28.5t19 37t12 37h-69z" />
    <glyph glyph-name="exclamdown" horiz-adv-x="296" 
d="M-37 -183h151l41 194l25 306h-70l-105 -306zM269 531h-158l-33 -154h158z" />
    <glyph glyph-name="Agrave" horiz-adv-x="685" 
d="M395 560h2l35 -284h-191zM-77 0h166l90 159h267l23 -159h156l-119 714h-161zM404 762h100l-58 142h-152z" />
    <glyph glyph-name="otilde" horiz-adv-x="593" 
d="M10 209q0 -111 64.5 -167t172.5 -56q70 0 126 25.5t95 69.5t59.5 103.5t20.5 127.5q0 56 -17.5 97t-49.5 68t-76.5 40.5t-97.5 13.5q-69 0 -124 -25.5t-93.5 -69.5t-59 -102.5t-20.5 -124.5zM152 209q0 33 9 70.5t27 69.5t46.5 53.5t67.5 21.5q56 0 80 -31t24 -83
q0 -33 -9 -71t-27.5 -70.5t-47 -54t-68.5 -21.5q-25 0 -44 9.5t-32 25.5t-19.5 37t-6.5 44zM454 714q1 -14 -9 -24.5t-33 -10.5q-17 0 -33.5 5.5t-32.5 12.5q-16 6 -31.5 11.5t-32.5 5.5q-33 0 -55 -11t-36 -28.5t-22 -39t-13 -43.5h61q5 19 13.5 30.5t28.5 11.5q17 0 34 -5
t36 -12q19 -6 39 -11.5t43 -5.5q31 0 50 11.5t31 28.5t19 37t12 37h-69z" />
    <glyph glyph-name="Scommaaccent" horiz-adv-x="648" 
d="M5 237q0 -130 74 -192t223 -62q51 0 103 13t93.5 41t68 73t26.5 109q0 48 -14 81t-39.5 56t-60.5 37.5t-77 25.5q-18 4 -47 10.5t-56.5 18t-47 28.5t-19.5 44q0 25 11 42t29 27.5t40 15t45 4.5q27 0 51 -5.5t41.5 -18.5t27 -33.5t8.5 -50.5h149q0 62 -21.5 105.5
t-58 71.5t-85 40.5t-103.5 12.5q-52 0 -102.5 -12.5t-90.5 -39t-65 -68.5t-25 -102q0 -46 15.5 -78t41 -53.5t57.5 -36t66 -24.5q33 -10 65.5 -19t58 -20.5t41.5 -28.5t16 -43q0 -27 -12.5 -46t-32 -31t-43.5 -18t-48 -6q-34 0 -63 6.5t-50 21.5t-32 40.5t-9 63.5h-149z
M212 -159h54q-7 -33 -21 -51t-49 -23l-11 -56q57 2 87.5 25.5t46.5 59.5t22.5 79t17.5 85h-122z" />
    <glyph glyph-name="scommaaccent" horiz-adv-x="519" 
d="M484 366q1 50 -16.5 82t-46.5 50.5t-68 25.5t-81 7q-38 0 -78 -8.5t-74 -28t-55.5 -50.5t-21.5 -77q0 -30 7.5 -51.5t22 -36.5t35 -25t47.5 -19l109 -35q23 -8 37 -19t14 -38q0 -18 -8 -29.5t-21 -19t-29 -10.5t-32 -3q-18 0 -36.5 4.5t-33 13t-23.5 21.5t-9 31v17h-132
v-21q0 -45 20 -76t52 -50t71 -27t77 -8q45 0 89 9.5t79 30.5t56.5 54.5t21.5 81.5q0 33 -10.5 56.5t-29 40.5t-43.5 29.5t-53 21.5l-71 23q-36 11 -50.5 23t-14.5 29q0 28 24.5 39.5t62.5 11.5q41 0 60 -18.5t20 -51.5h132zM128 -159h54q-7 -33 -21 -51t-49 -23l-11 -56
q57 2 87.5 25.5t46.5 59.5t22.5 79t17.5 85h-122z" />
    <glyph glyph-name="onehalf" horiz-adv-x="889" 
d="M202 -22h87l412 744h-85zM166 273h104l97 432h-85q-13 -24 -28.5 -40t-34 -25t-39.5 -13t-45 -5l-17 -75h110zM655 276q2 34 23.5 59.5t56.5 25.5q28 0 48 -13.5t20 -44.5q0 -29 -35.5 -54t-89.5 -51q-33 -16 -63 -33.5t-53.5 -40t-38 -52.5t-17.5 -72h339l18 80h-217
q27 26 70.5 47.5t85.5 46.5q21 13 39.5 27t33 30.5t22.5 35.5t8 42q0 35 -12 60t-33.5 41t-50.5 23.5t-63 7.5q-87 0 -136.5 -42t-56.5 -123h102z" />
    <glyph glyph-name="Thorn" horiz-adv-x="667" 
d="M257 495h135q21 0 40.5 -4t35.5 -13.5t25.5 -27t9.5 -44.5q0 -63 -34.5 -93.5t-94.5 -30.5h-161zM-4 0h157l34 160h195q55 0 105.5 17t89 49t61 78t22.5 105t-18.5 99t-51.5 64t-78.5 34.5t-99.5 10.5h-130l20 97h-157z" />
    <glyph glyph-name="Eth" horiz-adv-x="741" 
d="M-4 0h299q103 0 180.5 33t129 91.5t77.5 138.5t26 173q0 132 -76.5 205t-226.5 73h-258l-60 -287h-83l-25 -117h82zM277 582h118q42 0 71.5 -12.5t48.5 -35.5t27.5 -54.5t8.5 -70.5q0 -57 -16.5 -107t-48 -88t-78 -60t-106.5 -22h-121l37 178h169l25 117h-168z" />
    <glyph glyph-name="threequarters" horiz-adv-x="889" 
d="M634 0h102l20 89h62l16 80h-59l58 251h-106l-261 -244l-20 -87h208zM549 169l156 149l2 -2l-34 -147h-124zM204 -22h87l412 744h-85zM159 464h34q26 0 44 -12t18 -35q0 -35 -25 -54t-61 -19q-34 0 -53 17.5t-19 46.5v15h-96v-19q0 -140 166 -140q40 0 76 8.5t62 26.5
t41.5 46.5t15.5 68.5q0 32 -15 54t-51 31v2q38 8 62 33.5t24 63.5q0 33 -13.5 55t-35 35.5t-49.5 19.5t-58 6q-78 0 -125.5 -37t-57.5 -112h96q8 34 27.5 51.5t57.5 17.5q25 0 43.5 -12t18.5 -37q0 -15 -8 -25t-20.5 -16t-28 -8t-29.5 -2h-28z" />
    <glyph glyph-name="eth" horiz-adv-x="593" 
d="M254 93q-25 0 -44 9.5t-32 25.5t-19.5 37t-6.5 44q0 28 9 63t27 66t46.5 52t67.5 21q56 0 80 -29.5t24 -71.5q0 -33 -9.5 -71t-28 -70.5t-47 -54t-67.5 -21.5zM178 607l64 -62l121 59q22 -30 37 -65t20 -76l-2 -2q-22 26 -52 35.5t-59 9.5q-69 0 -124 -25.5t-93.5 -67
t-59 -95t-20.5 -109.5q0 -111 64.5 -167t172.5 -56q64 0 111 20t80.5 52t54.5 73t33.5 82.5t17 80t4.5 66.5q0 174 -90 291l124 61l-63 61l-121 -59q-40 37 -91 66l-93 -56q43 -18 89 -56z" />
    <glyph glyph-name="onesuperior" horiz-adv-x="392" 
d="M347 705h-85q-13 -24 -28.5 -40t-34 -25t-39.5 -13t-45 -5l-17 -75h110l-62 -274h104z" />
    <glyph glyph-name="threesuperior" horiz-adv-x="392" 
d="M181 464h34q26 0 44 -12t18 -35q0 -35 -25 -54t-61 -19q-34 0 -53 17.5t-19 46.5v15h-96v-19q0 -140 166 -140q40 0 76 8.5t62 26.5t41.5 46.5t15.5 68.5q0 32 -15 54t-51 31v2q38 8 62 33.5t24 63.5q0 33 -13.5 55t-35 35.5t-49.5 19.5t-58 6q-78 0 -125.5 -37
t-57.5 -112h96q8 34 27.5 51.5t57.5 17.5q25 0 43.5 -12t18.5 -37q0 -15 -8 -25t-20.5 -16t-28 -8t-29.5 -2h-28z" />
    <glyph glyph-name="thorn" 
d="M-59 -182h142l54 251h2q9 -21 24.5 -37t35 -26t41.5 -15t45 -5q72 0 124.5 29.5t87.5 77.5t52 109t17 125q0 94 -51 149t-145 55q-48 0 -89.5 -18.5t-63.5 -60.5h-2l57 262h-142zM323 424q25 0 44 -9.5t31.5 -25t19 -36.5t6.5 -44q0 -34 -9 -72t-28 -70t-48.5 -53
t-69.5 -21q-52 0 -77 31t-25 81q0 33 9.5 71.5t29 71.5t48.5 54.5t69 21.5z" />
    <glyph glyph-name="twosuperior" horiz-adv-x="392" 
d="M165 549q2 34 23.5 59.5t56.5 25.5q28 0 48 -13.5t20 -44.5q0 -29 -35.5 -54t-89.5 -51q-33 -16 -63 -33.5t-53.5 -40t-38 -52.5t-17.5 -72h339l18 80h-217q27 26 70.5 47.5t85.5 46.5q21 13 39.5 27t33 30.5t22.5 35.5t8 42q0 35 -12 60t-33.5 41t-50.5 23.5t-63 7.5
q-87 0 -136.5 -42t-56.5 -123h102z" />
    <glyph glyph-name="onequarter" horiz-adv-x="889" 
d="M634 0h102l20 89h62l16 80h-59l58 251h-106l-261 -244l-20 -87h208zM549 169l156 149l2 -2l-34 -147h-124zM204 -22h87l412 744h-85zM366 705h-85q-13 -24 -28.5 -40t-34 -25t-39.5 -13t-45 -5l-17 -75h110l-62 -274h104z" />
    </font>
</defs>
</svg>
