<svg xmlns="http://www.w3.org/2000/svg" xmlns:xlink="http://www.w3.org/1999/xlink" viewBox="-6567.826 1927.004 70 70"><defs><style>.a{fill:#fff;stroke:#707070;}.b{clip-path:url(#a);}.c{fill:#231f20;}</style><clipPath id="a"><rect class="a" width="70" height="70" transform="translate(0 0)"/></clipPath></defs><g class="b" transform="translate(-6567.826 1927.004)"><g transform="translate(0 0)"><path class="c" d="M59.749,10.251a35,35,0,0,0-49.493,0l0,0,0,0a35,35,0,0,0,0,49.492h0a35,35,0,0,0,49.5-49.5Zm7.382,22a22.783,22.783,0,0,1-23.356-4.094L58.76,13.174A32.114,32.114,0,0,1,67.131,32.253ZM37.753,2.853A31.987,31.987,0,0,1,56.826,11.24L41.841,26.225A22.785,22.785,0,0,1,37.753,2.853Zm-2.88-.116A25.37,25.37,0,0,0,39.9,28.163l-4.9,4.9L13.174,11.24A32.029,32.029,0,0,1,34.873,2.737ZM11.24,13.174,33.066,35l-4.9,4.9A25.369,25.369,0,0,0,2.737,34.874,32.028,32.028,0,0,1,11.24,13.174ZM2.853,37.753a22.785,22.785,0,0,1,23.372,4.088L11.24,56.826A31.988,31.988,0,0,1,2.853,37.753ZM32.247,67.147A31.986,31.986,0,0,1,13.174,58.76L28.159,43.775A22.784,22.784,0,0,1,32.247,67.147Zm2.88.116A25.369,25.369,0,0,0,30.1,41.837l4.9-4.9L56.826,58.76A32.03,32.03,0,0,1,35.126,67.263ZM58.76,56.826,36.934,35l4.9-4.9A25.247,25.247,0,0,0,54.18,36.165a25.482,25.482,0,0,0,4.625.425,25.209,25.209,0,0,0,8.444-1.457A32.163,32.163,0,0,1,58.76,56.826Z"/><g transform="translate(21.885 5.238)"><path class="c" d="M40.642,8.61A1.368,1.368,0,0,0,39.055,7.5,30.25,30.25,0,0,0,32.076,9.65a1.368,1.368,0,1,0,1.114,2.5A27.511,27.511,0,0,1,39.537,10.2,1.367,1.367,0,0,0,40.642,8.61Z" transform="translate(-31.265 -7.483)"/></g><g transform="translate(18.525 9.045)"><path class="c" d="M29.024,13.58a1.368,1.368,0,0,0-1.879-.459l-.022.014a1.368,1.368,0,1,0,1.42,2.338l.022-.014A1.368,1.368,0,0,0,29.024,13.58Z" transform="translate(-26.464 -12.922)"/></g><g transform="translate(38.508 60.063)"><path class="c" d="M64.311,86.624a1.368,1.368,0,0,0-1.8-.705,27.494,27.494,0,0,1-6.362,1.905,1.368,1.368,0,0,0,.229,2.716,1.391,1.391,0,0,0,.233-.02,30.252,30.252,0,0,0,7-2.095A1.368,1.368,0,0,0,64.311,86.624Z" transform="translate(-55.011 -85.804)"/></g><g transform="translate(48.537 58.315)"><path class="c" d="M71.9,83.972a1.368,1.368,0,0,0-1.876-.469L70,83.516a1.368,1.368,0,1,0,1.407,2.346l.014-.009A1.376,1.376,0,0,0,71.9,83.972Z" transform="translate(-69.339 -83.307)"/></g></g></g></svg>