<?xml version="1.0" encoding="utf-8"?>
<!-- Generator: Adobe Illustrator 22.0.1, SVG Export Plug-In . SVG Version: 6.00 Build 0)  -->
<svg version="1.1" id="Layer_1" xmlns="http://www.w3.org/2000/svg" xmlns:xlink="http://www.w3.org/1999/xlink" x="0px" y="0px"
	 viewBox="0 0 271.5234 60.6983" style="enable-background:new 0 0 271.5234 60.6983;" xml:space="preserve">
<style type="text/css">
	.st0{fill:#B2D235;}
	.st1{fill:#231F20;}
</style>
<g>
	<path class="st0" d="M61.5059,50.7569v1.8183H25.9141v-1.8183c0-14.6895-7.4414-28.2432-21.8907-28.2432
		c-4.9755,0,14.4239,0.2129,14.4239,28.2432v6.041c0,1.7832,1.4472,3.2246,3.2285,3.2246h44.0586
		c1.7812,0,3.2285-1.4414,3.2285-3.2246v-6.041c0-28.0303,19.4023-28.2432,14.4297-28.2432
		C68.9385,22.5137,61.5059,36.0674,61.5059,50.7569"/>
	<path class="st0" d="M34.1953,12.8389c3.3584,5.9756,5.711,23.4082,6.5244,36.1621h5.9707
		c0.8135-12.7539,3.167-30.1865,6.5274-36.1621c0,0-2.9658-0.5107-9.9688-0.5107C36.9522,12.3282,34.1953,12.8389,34.1953,12.8389"
		/>
	<path class="st0" d="M76.4004,17.9366c0,0-8.2441-3.1172-19.7354-4.7383c-3.4248,9.584-5.9296,23.6777-7.205,35.8027h8.2656
		C57.7256,35.2549,62.876,21.2588,76.4004,17.9366"/>
	<path class="st0" d="M11.0098,17.9366c13.5273,3.3222,18.6689,17.3183,18.6689,31.0644h8.2744
		c-1.2783-12.1465-3.7861-26.2685-7.2236-35.8467C18.9854,14.7569,11.0098,17.9366,11.0098,17.9366"/>
	<path class="st0" d="M86.0371,11.1768c0,0-17.4004-11.0313-42.0791-11.167V0c-0.0439,0-0.2099,0-0.2529,0v0.0098
		C19.0264,0.1455,1.626,11.1768,1.626,11.1768C0.5947,12.8272,0,14.751,0,17.0323c0,4.6367,10.585-8.6348,43.8311-8.6719
		c33.25,0.0371,43.832,13.3086,43.832,8.6719C87.6631,14.751,87.0684,12.8272,86.0371,11.1768"/>
</g>
<g>
	<polygon class="st1" points="105.3301,7.6123 119.4209,7.6123 119.4209,11.8018 110.0684,11.8018 110.0684,17.1309 
		118.6621,17.1309 118.2354,21.1993 110.0684,21.1993 110.0684,26.9092 119.6729,26.9092 119.6729,31.0996 105.3301,31.0996 	"/>
	<g>
		<path class="st1" d="M140.085,7.0596c2.8789,0,5.334,0.5127,8.2109,1.7363l-1.4375,3.8506
			c-2.3672-0.9697-4.4434-1.3955-6.7734-1.3955c-5.4551,0-8.209,4.1895-8.209,8.1279c0,3.8926,2.457,8.0811,7.7871,8.0811
			c1.9043,0,3.7227-0.3399,5.4609-0.9746V19.419l4.5274-0.7617v10.4091c-3.2168,1.8204-6.4766,2.585-9.9883,2.585
			c-7.9141,0-12.6934-5.6309-12.6934-12.2725C126.9697,12.7344,132.1318,7.0596,140.085,7.0596"/>
	</g>
	<polygon class="st1" points="163.1768,21.5371 155.3916,7.6123 160.6826,7.6123 165.6338,16.8799 170.667,7.6123 175.9561,7.6123 
		168.0479,21.4893 168.0479,31.0996 163.1768,31.0996 	"/>
	<g>
		<path class="st1" d="M192.9268,7.0596c2.875,0,5.33,0.5127,8.2148,1.7363l-1.4473,3.8506
			c-2.3671-0.9697-4.4394-1.3955-6.7675-1.3955c-5.459,0-8.211,4.1895-8.211,8.1279c0,3.8926,2.4571,8.0811,7.7871,8.0811
			c1.9063,0,3.7246-0.3399,5.461-0.9746V19.419l4.5293-0.7617v10.4091c-3.2188,1.8204-6.4805,2.585-9.9903,2.585
			c-7.9101,0-12.6953-5.6309-12.6953-12.2725C179.8076,12.7344,184.9736,7.0596,192.9268,7.0596"/>
		<path class="st1" d="M217.2568,7.6123h5.668l7.918,23.4922h-4.8262l-1.9902-6.1426h-7.9121l-1.9414,6.1426h-4.8282
			L217.2568,7.6123z M222.7568,20.9424l-1.2246-3.6797c-0.4687-1.4843-0.9707-3.6367-1.4433-5.5459
			c-0.459,1.9092-0.9278,4.0616-1.4356,5.5459l-1.2675,3.6797H222.7568z"/>
		<path class="st1" d="M238.335,7.6123h7.0273c5.584,0,8.291,2.5801,8.291,6.3008c0,1.7403-0.7207,3.6426-3.2109,4.6602
			c3.4668,1.0176,4.5254,3.3398,4.5254,5.4179c0,4.0987-3.3399,7.1084-8.7168,7.1084h-7.916V7.6123z M245.4854,16.9248
			c2.1601,0,3.3476-0.7646,3.3476-2.664c0-1.5703-1.0156-2.544-3.5156-2.544h-2.2441v5.208H245.4854z M246.042,26.9932
			c2.7031,0,4.0156-1.3096,4.0156-3.1309c0-1.5263-0.7636-3.2578-4.1015-3.2578h-2.8828v6.3887H246.042z"/>
	</g>
</g>
<g>
	<path class="st1" d="M110.6123,54.3311l-1.998,6.0527h-2.5694l6.5381-19.2422h2.9971l6.5664,19.2422h-2.6553l-2.0556-6.0527
		H110.6123z M116.9219,52.3897l-1.8838-5.5381c-0.4287-1.2559-0.7139-2.3984-1-3.5117h-0.0566
		c-0.2852,1.1416-0.5997,2.3125-0.9707,3.4834l-1.8838,5.5664H116.9219z"/>
	<path class="st1" d="M139.1943,59.5274c-1.1132,0.3994-3.3115,1.0566-5.9091,1.0566c-2.9121,0-5.3106-0.7422-7.1953-2.541
		c-1.6553-1.5986-2.6836-4.168-2.6836-7.166c0.0293-5.7383,3.9687-9.9356,10.4209-9.9356c2.2265,0,3.9687,0.4854,4.7959,0.8858
		l-0.5997,2.0263c-1.0273-0.456-2.3125-0.8271-4.2529-0.8271c-4.6826,0-7.7373,2.9111-7.7373,7.7363
		c0,4.8819,2.9404,7.7657,7.4229,7.7657c1.6269,0,2.7402-0.2286,3.3115-0.5137v-5.7393h-3.9111v-1.998h6.3378V59.5274z"/>
	<path class="st1" d="M142.9961,41.3985c1.2559-0.2569,3.0547-0.3994,4.7676-0.3994c2.6553,0,4.3681,0.4853,5.5674,1.5703
		c0.9707,0.8564,1.5127,2.1699,1.5127,3.6543c0,2.541-1.5987,4.2246-3.626,4.9101v0.086c1.4853,0.5136,2.3701,1.8837,2.8271,3.8828
		c0.628,2.6836,1.084,4.539,1.4844,5.2812H152.96c-0.3145-0.542-0.7422-2.1982-1.2852-4.5967
		c-0.5713-2.6552-1.5986-3.6543-3.8545-3.7392h-2.3408v8.3359h-2.4834V41.3985z M145.4795,50.1631h2.541
		c2.6553,0,4.3399-1.456,4.3399-3.6543c0-2.4834-1.7989-3.5683-4.4258-3.5967c-1.1983,0-2.0557,0.1143-2.4551,0.2276V50.1631z"/>
	<path class="st1" d="M160.8428,41.1416v19.2422h-2.4834V41.1416H160.8428z"/>
	<path class="st1" d="M178.6309,59.7559c-0.9131,0.457-2.7403,0.9131-5.0821,0.9131c-5.4238,0-9.5068-3.4258-9.5068-9.7354
		c0-6.0234,4.083-10.1064,10.0498-10.1064c2.3984,0,3.9111,0.5146,4.5674,0.8564l-0.5986,2.0274
		c-0.9424-0.4571-2.2842-0.7989-3.8829-0.7989c-4.5107,0-7.5087,2.8829-7.5087,7.9366c0,4.7099,2.7119,7.7363,7.3945,7.7363
		c1.5127,0,3.0547-0.3135,4.0537-0.7988L178.6309,59.7559z"/>
	<path class="st1" d="M184.2295,41.1416v11.3916c0,4.3106,1.9131,6.1377,4.4824,6.1377c2.8545,0,4.6817-1.8847,4.6817-6.1377
		V41.1416h2.5127v11.2198c0,5.9101-3.1114,8.3369-7.2803,8.3369c-3.9395,0-6.9082-2.2559-6.9082-8.2227v-11.334H184.2295z"/>
	<path class="st1" d="M203.876,43.2539h-5.8526v-2.1123h14.2461v2.1123h-5.8818v17.1299h-2.5117V43.2539z"/>
	<path class="st1" d="M214.4141,41.1416h2.4834v17.1582h8.2226v2.084h-10.706V41.1416z"/>
	<path class="st1" d="M229.3477,41.1416v11.3916c0,4.3106,1.9131,6.1377,4.4824,6.1377c2.8545,0,4.6816-1.8847,4.6816-6.1377
		V41.1416h2.5127v11.2198c0,5.9101-3.1113,8.3369-7.2803,8.3369c-3.9394,0-6.9082-2.2559-6.9082-8.2227v-11.334H229.3477z"/>
	<path class="st1" d="M245.3399,41.3985c1.2558-0.2569,3.0546-0.3994,4.7675-0.3994c2.6553,0,4.3682,0.4853,5.5674,1.5703
		c0.9707,0.8564,1.5127,2.1699,1.5127,3.6543c0,2.541-1.5986,4.2246-3.626,4.9101v0.086c1.4854,0.5136,2.3701,1.8837,2.8272,3.8828
		c0.6279,2.6836,1.084,4.539,1.4844,5.2812h-2.5694c-0.3144-0.542-0.7422-2.1982-1.2851-4.5967
		c-0.5713-2.6552-1.5987-3.6543-3.8545-3.7392h-2.3408v8.3359h-2.4834V41.3985z M247.8233,50.1631h2.541
		c2.6552,0,4.3398-1.456,4.3398-3.6543c0-2.4834-1.7988-3.5683-4.4258-3.5967c-1.1982,0-2.0556,0.1143-2.455,0.2276V50.1631z"/>
	<path class="st1" d="M270.667,51.3623h-7.4805v6.9375h8.3369v2.084h-10.8203V41.1416h10.3916v2.084h-7.9082v6.0811h7.4805V51.3623z
		"/>
</g>
</svg>
