<svg xmlns="http://www.w3.org/2000/svg" viewBox="-17920 334.822 32.166 32.166"><defs><style>.a{fill:#fff;}</style></defs><g transform="translate(-17920 334.822)"><path class="a" d="M15.783,0A16.083,16.083,0,1,0,31.866,16.083,16.082,16.082,0,0,0,15.783,0Zm0,30.091A14.008,14.008,0,1,1,29.791,16.083,14.009,14.009,0,0,1,15.783,30.091Z" transform="translate(0.3)"/><path class="a" d="M372.475,240.668h3.619v-9.061h2.525l.27-3.033H376.1v-1.727c0-.714.145-1,.836-1h1.959V222.7h-2.506c-2.692,0-3.9,1.187-3.9,3.455v2.419H370.6v3.072h1.882v9.022Z" transform="translate(-358.67 -215.537)"/></g></svg>