<svg xmlns="http://www.w3.org/2000/svg" viewBox="-16380 1636.474 60.501 60.502"><defs><style>.a{fill:#231f20;}</style></defs><g transform="translate(-16380 1636.474)"><path class="a" d="M29.951,0A30.251,30.251,0,1,0,60.2,30.251,30.25,30.25,0,0,0,29.951,0Zm0,56.6A26.349,26.349,0,1,1,56.3,30.251,26.35,26.35,0,0,1,29.951,56.6Z" transform="translate(0.3)"/><path class="a" d="M374.127,256.5h6.806V239.453h4.749l.508-5.705H380.94V230.5c0-1.343.272-1.876,1.573-1.876H386.2V222.7h-4.713c-5.064,0-7.345,2.233-7.345,6.5v4.55H370.6v5.778h3.539V256.5Z" transform="translate(-348.16 -209.226)"/></g></svg>