<svg xmlns="http://www.w3.org/2000/svg" xmlns:xlink="http://www.w3.org/1999/xlink" viewBox="-6988.608 1927.004 70 70"><defs><style>.a{fill:#fff;stroke:#707070;}.b{clip-path:url(#a);}.c{fill:#231f20;}</style><clipPath id="a"><rect class="a" width="70" height="70" transform="translate(0 0)"/></clipPath></defs><g class="b" transform="translate(-6988.608 1927.004)"><g transform="translate(0 0.008)"><g transform="translate(8.042 14.585)"><path class="c" d="M17.693,21.187a1.367,1.367,0,0,0-1.929.124,30.23,30.23,0,0,0-4.121,6.024,1.367,1.367,0,1,0,2.427,1.26,27.489,27.489,0,0,1,3.748-5.479A1.367,1.367,0,0,0,17.693,21.187Z" transform="translate(-11.489 -20.847)"/></g><g transform="translate(6.519 23.797)"><path class="c" d="M11.146,34.086a1.373,1.373,0,0,0-1.748.829l-.007.019a1.366,1.366,0,0,0,1.287,1.818,1.377,1.377,0,0,0,1.292-.909l.007-.019A1.362,1.362,0,0,0,11.146,34.086Z" transform="translate(-9.312 -34.007)"/></g><g transform="translate(28.638 62.018)"><path class="c" d="M50.6,90.251a1.366,1.366,0,0,0-1.457-1.271,27.5,27.5,0,0,1-6.629-.352,1.367,1.367,0,1,0-.474,2.693,30.219,30.219,0,0,0,5.234.457q1.028,0,2.054-.07A1.367,1.367,0,0,0,50.6,90.251Z" transform="translate(-40.911 -88.608)"/></g><g transform="translate(39.334 61.879)"><path class="c" d="M58.926,89.515a1.366,1.366,0,0,0-1.6-1.08l-.046.009a1.367,1.367,0,1,0,.564,2.675h.006A1.367,1.367,0,0,0,58.926,89.515Z" transform="translate(-56.191 -88.41)"/></g><g transform="translate(0 0)"><path class="c" d="M68.551,25.1q-.031-.1-.062-.208c-.043-.142-.087-.285-.132-.427q-.076-.242-.157-.482c-.021-.062-.039-.124-.06-.186-.01-.031-.022-.061-.032-.092q-.11-.322-.225-.641c-.027-.075-.055-.149-.082-.224q-.1-.275-.208-.548c-.026-.067-.051-.133-.078-.2q-.137-.347-.282-.691c-.033-.078-.067-.156-.1-.234q-.1-.222-.193-.442-.078-.175-.157-.349-.064-.14-.13-.279A35.017,35.017,0,0,0,36.284.036h0q-.273-.01-.546-.015l-.285,0c-.142,0-.284-.006-.426-.006a35.043,35.043,0,0,0-24.106,9.6l-.021.019c-.138.131-.274.265-.41.4l-.009.009q-.2.2-.4.4l-.056.057a34.756,34.756,0,0,0-3.878,4.721v0q-.169.247-.334.5l-.03.046q-.444.677-.858,1.375l-.121.2c-.062.107-.123.214-.184.321s-.117.206-.175.31l-.155.282q-.1.191-.2.383c-.041.077-.082.154-.122.231q-.155.3-.3.6l-.013.026-.015.032q-.2.405-.389.814c-.031.067-.06.134-.091.2q-.154.338-.3.677c-.024.057-.048.114-.072.17q-.157.371-.306.744l-.038.1A34.685,34.685,0,0,0,1.448,44.9l.064.215c.043.141.085.281.13.421q.079.25.162.5c.019.057.037.115.056.172.009.027.019.053.028.08q.112.33.231.657l.079.214q.1.282.213.561c.024.063.048.126.073.189q.139.35.284.7c.031.073.063.145.094.218q.1.23.2.459.076.17.153.339c.045.1.091.2.137.294A35.011,35.011,0,0,0,34.273,69.985l.25,0c.151,0,.3.006.452.006a35.045,35.045,0,0,0,24.107-9.6l.021-.018c.134-.128.266-.257.4-.387l.024-.023q.2-.2.394-.394l.062-.063a34.7,34.7,0,0,0,4.213-5.219l.024-.037q.45-.685.868-1.392c.038-.064.076-.128.114-.192.063-.109.126-.218.188-.327s.115-.2.171-.3l.158-.286q.1-.188.2-.378c.041-.078.083-.156.124-.235q.154-.3.3-.6l.013-.026.015-.031q.2-.406.389-.815c.03-.065.059-.132.089-.2q.155-.34.3-.682l.07-.166q.158-.373.308-.748l.037-.094A34.692,34.692,0,0,0,68.551,25.1ZM63.93,20.744l.027.055c.062.126.122.254.183.381q.066.139.13.28c.047.1.094.2.14.3q.128.286.251.575c.031.072.061.145.091.218q.1.241.2.483l.071.179q.124.318.243.64c.022.06.044.121.065.182q.087.24.17.482c.028.083.057.165.085.248.056.166.109.332.162.5s.1.333.154.5l.049.166q.147.5.278,1.008l-3.865,6.694h-12.5L43.616,22.815l6.248-10.822h7.744A32.088,32.088,0,0,1,63.93,20.744ZM47.5,35,41.248,45.826h-12.5L22.5,35l6.248-10.822h12.5ZM49.3,6.1a32.607,32.607,0,0,1,5.137,3.163h-4.57l-2.281-3.95Q48.447,5.675,49.3,6.1ZM26.368,3.932a32.3,32.3,0,0,1,8.659-1.184c.132,0,.264,0,.4,0l.225,0a32.011,32.011,0,0,1,7.981,1.17l3.869,6.7L41.248,21.447h-12.5L22.5,10.625ZM22.44,5.266l-2.3,3.992H15.524A31.907,31.907,0,0,1,22.44,5.266ZM4.013,26.052c.014-.046.028-.093.042-.139.061-.208.123-.415.189-.622.041-.129.085-.258.127-.387s.082-.252.125-.377c.075-.218.154-.435.234-.652.014-.038.027-.077.041-.115a32.5,32.5,0,0,1,1.32-3.053q.142-.288.29-.572l.08-.151q.111-.211.224-.42l.09-.163q.116-.211.236-.421l.075-.13q.147-.254.3-.505l.017-.029a32.022,32.022,0,0,1,4.991-6.323h7.744l6.248,10.822L20.136,33.636H7.639l-3.867-6.7C3.848,26.642,3.928,26.346,4.013,26.052ZM3,38.934a32.158,32.158,0,0,1-.01-7.879L5.271,35Zm.783,4.113L7.639,36.37h12.5l6.248,10.822L20.136,58.015H12.4A32.347,32.347,0,0,1,3.784,43.048ZM20.7,63.912a32.284,32.284,0,0,1-5.128-3.163h4.561L22.417,64.7Q21.553,64.332,20.7,63.912Zm22.929,2.163a32.293,32.293,0,0,1-8.659,1.184c-.136,0-.272,0-.407,0l-.208,0a32,32,0,0,1-7.986-1.17l-3.869-6.7L28.751,48.56h12.5L47.5,59.382Zm3.927-1.334,2.3-3.992h4.612A31.906,31.906,0,0,1,47.559,64.741ZM64.3,48.487l-.03.065q-.174.376-.358.747-.142.286-.288.568c-.029.056-.059.111-.088.167q-.106.2-.215.4l-.1.174q-.113.205-.229.408l-.08.14q-.142.247-.288.49L62.6,51.7a32.024,32.024,0,0,1-4.989,6.319H49.864L43.616,47.192,49.864,36.37h12.5l3.869,6.7A32.43,32.43,0,0,1,64.3,48.487Zm2.724-9.515L64.728,35l2.287-3.961A31.866,31.866,0,0,1,67.02,38.972Z" transform="translate(0 -0.011)"/></g></g></g></svg>