<svg xmlns="http://www.w3.org/2000/svg" xmlns:xlink="http://www.w3.org/1999/xlink" viewBox="-6568 2120 70 70"><defs><style>.a{fill:#fff;stroke:#231f20;}.b{clip-path:url(#a);}.c{fill:#231f20;}</style><clipPath id="a"><rect class="a" width="70" height="70" transform="translate(1094 1752)"/></clipPath></defs><g class="b" transform="translate(-7662 368)"><g transform="translate(1094 1752)"><path class="c" d="M58.753,46.941c.648-9.948-2.205-19.833-4.734-26.408A82.505,82.505,0,0,0,48.332,8.548a5.661,5.661,0,0,0-3.234-3.9,37.77,37.77,0,0,0-6.461-3.295c-5.034-1.939-8.769-1.8-11.1.409-3.123,2.964-4.565,5.6-4.288,7.837a3.916,3.916,0,0,0,1.065,2.266,2.563,2.563,0,0,0,.036.779c.247,1.264,1.389,2.492,3.394,3.651,4.086,2.361,7.211.867,9.28-.12.2-.094.386-.185.571-.269.309-.142.446-.078.5-.052a2.315,2.315,0,0,1,.836,1.186C38.59,19.025,36.711,30.422,38,38.024a16.065,16.065,0,0,0-9.135-.244,19.7,19.7,0,0,0-5.852,2.607,12.267,12.267,0,0,0-6.89-.472c0-.013,0-.021,0-.024a1.1,1.1,0,0,0-1.1-1H11.29a1.1,1.1,0,0,0-1.1,1.1V64.881a1.1,1.1,0,1,0,2.2,0V41.093H14.04a67.9,67.9,0,0,0,2.171,10.215c2.07,7.027,4.955,12.559,8.593,16.489H11.29a1.1,1.1,0,0,0,0,2.2H27.526a1.1,1.1,0,0,0,.718-1.936l-.031-.028a18.774,18.774,0,0,0,5.77-3.615c.43.028.846.04,1.242.04a19.271,19.271,0,0,0,3.643-.332c.556-.076,1.137-.172,1.732-.3,4.747-.984,8.27-3.229,10.244-6.517,2.716.4,7.1-.017,8.516-4.052A7.3,7.3,0,0,0,58.753,46.941Zm-1.471,5.591c-1.311,3.724-6.536,2.533-6.756,2.481a1.1,1.1,0,0,0-1.24.572c-3.809,7.491-15.434,6.556-15.55,6.545a1.084,1.084,0,0,0-.356.026,10.56,10.56,0,0,1-5.192-1.876,1.1,1.1,0,0,0-1.322,1.762,11.647,11.647,0,0,0,4.195,1.935,17.914,17.914,0,0,1-4.595,2.366C19.672,59.013,17.18,47.019,16.414,42.1a9.922,9.922,0,0,1,6.226.535,1.1,1.1,0,0,0,1.169-.115,17.114,17.114,0,0,1,5.683-2.626,13.506,13.506,0,0,1,9.491.9,1.136,1.136,0,0,0,.126.062,16.2,16.2,0,0,1,2.652,1.672,1.1,1.1,0,1,0,1.344-1.746,18.366,18.366,0,0,0-2.637-1.7c-1.918-7.515.659-21.77.686-21.916a1.1,1.1,0,0,0-.021-.492,4.66,4.66,0,0,0-2.1-2.811,2.719,2.719,0,0,0-2.355.045c-.195.089-.4.185-.6.284-1.944.928-4.147,1.981-7.228.2-2.142-1.238-2.389-2.106-2.339-2.3a1.1,1.1,0,0,0-.385-1.558,1.72,1.72,0,0,1-.686-1.2c-.105-.846.225-2.747,3.618-5.967,3.416-3.244,11.923,1.2,14.913,3.181a1.1,1.1,0,0,0,.194.1A3.444,3.444,0,0,1,46.2,9.118a1.1,1.1,0,0,0,.15.414c.11.18,10.512,17.367,10.29,35.035-.052-.038-.1-.074-.153-.108a1.1,1.1,0,1,0-1.24,1.821A5.536,5.536,0,0,1,57.282,52.532Z"/><path class="c" d="M40.26,47.824c-6,5.924-16.386,3.672-16.491,3.649a1.1,1.1,0,0,0-.487,2.149,25.758,25.758,0,0,0,5.272.515c3.944,0,9.309-.853,13.253-4.744a1.1,1.1,0,0,0-1.547-1.568Z"/><path class="c" d="M45.571,19.882a1.1,1.1,0,0,0-.615,1.431A36.529,36.529,0,0,1,46.47,39.352a1.1,1.1,0,1,0,2.168.394A38.094,38.094,0,0,0,47,20.5,1.1,1.1,0,0,0,45.571,19.882Z"/></g></g></svg>