<svg xmlns="http://www.w3.org/2000/svg" xmlns:xlink="http://www.w3.org/1999/xlink" viewBox="-6357 1927 70 70"><defs><style>.a{fill:#fff;stroke:#707070;}.b{clip-path:url(#a);}.c{fill:#231f20;}</style><clipPath id="a"><rect class="a" width="70" height="70" transform="translate(1349 1596)"/></clipPath></defs><g class="b" transform="translate(-7706 331)"><g transform="translate(1349 1596)"><path class="c" d="M59.386,40.867a3.733,3.733,0,0,1-5.258-.475L53,39.036a86.756,86.756,0,0,0-9.452-9.676S44.138,53,28.7,67.145l-1.845,1.8a3.734,3.734,0,1,1-5.21-5.349l1.845-1.8a31.265,31.265,0,0,0,8.66-15.408,25.645,25.645,0,0,1-21.123-2.776A3.733,3.733,0,1,1,15,37.293,18.148,18.148,0,0,0,31.246,38.8l1.46-13.371c-.346.017-.693.028-1.038.028A21.555,21.555,0,0,1,17.007,19.7l-.243-.224a6.541,6.541,0,1,1,5.459-5.127,14.131,14.131,0,0,0,13.142,3.159l2.212-.589c.025-.007.05-.01.074-.016.066-.016.132-.03.2-.042s.114-.021.172-.029.12-.014.181-.02.126-.011.188-.014.113,0,.17,0,.129,0,.193,0,.116.01.175.016.12.012.18.022.128.023.192.037.1.021.156.034c.069.018.138.039.206.06.045.014.091.028.135.044.069.025.137.053.205.082.044.019.088.037.13.057.063.03.125.063.187.1s.1.052.142.08.106.067.158.1.106.072.157.111c.021.016.044.029.065.046l3.73,2.927A94.217,94.217,0,0,1,58.73,34.253l1.131,1.355A3.734,3.734,0,0,1,59.386,40.867ZM38.325,15.27A7.635,7.635,0,1,0,30.69,7.635,7.635,7.635,0,0,0,38.325,15.27Z"/></g></g></svg>