<svg xmlns="http://www.w3.org/2000/svg" viewBox="-16307.412 1636.474 60.502 60.502"><defs><style>.a{fill:#231f20;}</style></defs><g transform="translate(-16307.412 1636.474)"><path class="a" d="M30.351,0A30.251,30.251,0,1,0,60.6,30.251,30.25,30.25,0,0,0,30.351,0Zm0,56.6A26.349,26.349,0,1,1,56.7,30.251,26.35,26.35,0,0,1,30.351,56.6Z" transform="translate(-0.1)"/><path class="a" d="M275.193,261.242a7.548,7.548,0,0,1,5.4,2.263h9.432v-3.848h0a5.859,5.859,0,0,0-5.863-5.857H268.15v7.387h-1.2V253.8h-.829v7.387h-1.2v-7.236a5.743,5.743,0,0,0-.847.266v6.964h-1.2v-6.3a5.853,5.853,0,0,0-2.475,4.78V263.5h9.4A7.547,7.547,0,0,1,275.193,261.242Zm7.109-4.054a.935.935,0,0,1,.938-.938h3.17a.935.935,0,0,1,.938.938v3.237a.939.939,0,0,1-.938.938h-3.17a.935.935,0,0,1-.938-.938Z" transform="translate(-244.651 -238.445)"/><path class="a" d="M418.08,407.146a5.88,5.88,0,0,0-1.434-.926,5.833,5.833,0,0,0-4.816,0,5.656,5.656,0,0,0-1.434.926,5.844,5.844,0,1,0,7.684,0Zm-3.824,8.706a4.32,4.32,0,1,1,4.32-4.32A4.318,4.318,0,0,1,414.257,415.852Z" transform="translate(-383.697 -381.154)"/><path class="a" d="M266.163,448.749h17.909a5.864,5.864,0,0,0,5.863-5.863V429.6h-8.658a7.581,7.581,0,1,1-12.354,0H260.3v13.286A5.864,5.864,0,0,0,266.163,448.749Z" transform="translate(-244.557 -403.608)"/></g></svg>