<svg xmlns="http://www.w3.org/2000/svg" viewBox="-17881.41 334.822 32.166 32.166"><defs><style>.a{fill:#fff;}</style></defs><g transform="translate(-17881.41 334.822)"><path class="a" d="M16.183,0A16.083,16.083,0,1,0,32.266,16.083,16.082,16.082,0,0,0,16.183,0Zm0,30.091A14.008,14.008,0,1,1,30.191,16.083,14.009,14.009,0,0,1,16.183,30.091Z" transform="translate(-0.1)"/><path class="a" d="M268.264,257.756a4.013,4.013,0,0,1,2.872,1.2h5.015v-2.046h0a3.115,3.115,0,0,0-3.117-3.114H264.52v3.927h-.637V253.8h-.441v3.927h-.637V253.88a3.055,3.055,0,0,0-.45.142v3.7h-.64v-3.352a3.112,3.112,0,0,0-1.316,2.541v2.046h5A4.013,4.013,0,0,1,268.264,257.756Zm3.779-2.155a.5.5,0,0,1,.5-.5h1.685a.5.5,0,0,1,.5.5v1.721a.5.5,0,0,1-.5.5h-1.685a.5.5,0,0,1-.5-.5Z" transform="translate(-252.027 -245.636)"/><path class="a" d="M413.547,406.469a3.125,3.125,0,0,0-.762-.492,3.1,3.1,0,0,0-2.56,0,3.006,3.006,0,0,0-.762.492,3.107,3.107,0,1,0,4.085,0Zm-2.033,4.629a2.3,2.3,0,1,1,2.3-2.3A2.3,2.3,0,0,1,411.514,411.1Z" transform="translate(-395.267 -392.65)"/><path class="a" d="M263.417,439.78h9.521a3.118,3.118,0,0,0,3.117-3.117V429.6h-4.6a4.03,4.03,0,1,1-6.568,0H260.3v7.064A3.118,3.118,0,0,0,263.417,439.78Z" transform="translate(-251.931 -415.782)"/></g></svg>