<?xml version="1.0" encoding="utf-8"?>
<!-- Generator: Adobe Illustrator 22.0.1, SVG Export Plug-In . SVG Version: 6.00 Build 0)  -->
<svg version="1.1" id="Layer_1" xmlns="http://www.w3.org/2000/svg" xmlns:xlink="http://www.w3.org/1999/xlink" x="0px" y="0px"
	 viewBox="0 0 370.2265 60.2568" style="enable-background:new 0 0 370.2265 60.2568;" xml:space="preserve">
<style type="text/css">
	.st0{fill:#B9922E;}
</style>
<g>
	<g>
		<polygon points="109.3076,7.2314 123.2871,7.2314 123.2871,11.3857 114.0078,11.3857 114.0078,16.6709 122.5293,16.6709 
			122.1094,20.7031 114.0078,20.7031 114.0078,26.3701 123.5371,26.3701 123.5371,30.5254 109.3076,30.5254 		"/>
		<path d="M143.7832,6.6845c2.8535,0,5.293,0.503,8.1465,1.7227L150.5,12.2265c-2.3496-0.9677-4.4063-1.3886-6.7168-1.3886
			c-5.4121,0-8.1406,4.1562-8.1406,8.0625c0,3.8632,2.4355,8.0166,7.7207,8.0166c1.8925,0,3.6972-0.3379,5.416-0.9688v-7.0078
			l4.4922-0.7549v10.3272c-3.1914,1.8037-6.42,2.5586-9.9082,2.5586c-7.8516,0-12.5918-5.5801-12.5918-12.1709
			C130.7715,12.3095,135.8926,6.6845,143.7832,6.6845"/>
		<polygon points="166.6914,21.0381 158.9687,7.2314 164.2148,7.2314 169.1269,16.4228 174.123,7.2314 179.3672,7.2314 
			171.5195,20.9951 171.5195,30.5254 166.6914,30.5254 		"/>
		<path d="M196.1992,6.6845c2.8535,0,5.2871,0.503,8.1465,1.7227l-1.4336,3.8193c-2.3457-0.9677-4.4004-1.3886-6.7129-1.3886
			c-5.4141,0-8.1426,4.1562-8.1426,8.0625c0,3.8632,2.4317,8.0166,7.7207,8.0166c1.8946,0,3.6953-0.3379,5.4199-0.9688v-7.0078
			l4.4883-0.7549v10.3272c-3.1894,1.8037-6.4199,2.5586-9.9082,2.5586c-7.8457,0-12.5898-5.5801-12.5898-12.1709
			C183.1875,12.3095,188.3105,6.6845,196.1992,6.6845"/>
		<path d="M225.791,20.4502l-1.2207-3.6495c-0.4609-1.4726-0.9629-3.6064-1.4277-5.499c-0.4571,1.8926-0.9219,4.0264-1.4258,5.499
			l-1.2578,3.6495H225.791z M220.334,7.2314h5.623l7.8496,23.294h-4.7832l-1.9785-6.085h-7.8457l-1.9316,6.085h-4.7813
			L220.334,7.2314z"/>
		<path d="M248.8808,26.4531c2.6875,0,3.9903-1.2959,3.9903-3.1025c0-1.5157-0.7578-3.2344-4.0703-3.2344h-2.8575v6.3369H248.8808z
			 M248.3359,16.4658c2.1406,0,3.3164-0.7598,3.3164-2.6465c0-1.5527-1.0078-2.5176-3.4824-2.5176h-2.2266v5.1641H248.3359z
			 M241.2422,7.2314h6.9726c5.5332,0,8.2207,2.5586,8.2207,6.2539c0,1.7197-0.7148,3.6055-3.1894,4.6172
			c3.4433,1.0049,4.4922,3.3125,4.4922,5.3721c0,4.0693-3.3145,7.0508-8.6485,7.0508h-7.8476V7.2314z"/>
		<path d="M116.4922,57.4795c5.9316,0,7.9336-3.8936,7.9336-7.9698c0-4.083-2.002-8.0888-7.9336-8.0888h-4.5625v16.0586H116.4922z
			 M109.7803,39.3466h7.0459c6.7109,0,9.8222,4.5958,9.8222,10.1631c0,5.5577-3.1113,10.044-9.8222,10.044h-7.0459V39.3466z"/>
		<polygon points="134.8496,39.3466 134.8496,59.5537 146.125,59.5537 146.125,57.4795 137.0039,57.4795 137.0039,50.289 
			144.8613,50.289 145.2363,48.2851 137.0039,48.2851 137.0039,41.4238 145.9004,41.4238 145.9004,39.3466 		"/>
		<path d="M152.4629,39.3466h2.2246l5.1543,14.7959c0.3359,1.002,0.7812,2.4092,1.1152,3.5596
			c0.4102-1.1836,0.8164-2.5576,1.1465-3.5596l5.123-14.7959h2.2188l-7.1133,20.2071h-2.7109L152.4629,39.3466z"/>
		<polygon points="176.7949,39.3466 176.7949,59.5537 188.0664,59.5537 188.0664,57.4795 178.9414,57.4795 178.9414,50.289 
			186.8027,50.289 187.1738,48.2851 178.9414,48.2851 178.9414,41.4238 187.8437,41.4238 187.8437,39.3466 		"/>
		<polygon points="196.7441,39.3466 196.7441,59.5537 207.7969,59.5537 207.7969,57.4795 198.8965,57.4795 198.8965,38.9795 		"/>
		<path d="M224.4414,57.9648c5.0859,0,8.3476-3.8223,8.3476-8.418c0-4.6025-3.2617-8.6044-8.3476-8.6044
			c-5.0371,0-8.2988,4.0019-8.2988,8.6044C216.1426,54.1425,219.4043,57.9648,224.4414,57.9648 M224.4414,38.8642
			c6.2324,0,10.5723,4.8614,10.5723,10.6826c0,5.7832-4.3399,10.4971-10.5723,10.4971c-6.2637,0-10.5274-4.7139-10.5274-10.4971
			C213.914,43.7256,218.1777,38.8642,224.4414,38.8642"/>
		<path d="M248.8828,49.5097c3.9707,0,5.1211-1.7812,5.1211-4.1543c0-2.4091-1.3379-3.9345-5.0059-3.9345h-3.2656v8.0888H248.8828z
			 M243.5801,39.3466h5.789c4.4121,0,6.8555,2.3018,6.8555,6.0088c0,3.709-2.668,6.084-7.0039,6.084h-3.4883v8.1143h-2.1523V39.3466
			z"/>
		<path d="M265.0195,39.3466h2.668l4.9668,14.6485c0.3008,0.9277,0.709,2.2598,1.0039,3.4082
			c0.332-1.1484,0.7031-2.4805,1.0371-3.4082l4.9707-14.6485h2.666l2.9688,20.2071h-2.1153l-2.041-13.8975
			c-0.1094-0.8574-0.293-2.1191-0.4004-3.2666c-0.3359,1.1875-0.707,2.3731-1.0039,3.2666l-4.7051,13.7129h-2.7109l-4.7109-13.7129
			c-0.2969-0.8574-0.7051-2.1191-1.0391-3.2666c-0.1074,1.1875-0.2637,2.3731-0.3672,3.2666l-2.041,13.8975h-2.1152
			L265.0195,39.3466z"/>
		<polygon points="294.0195,39.3466 294.0195,59.5537 305.289,59.5537 305.289,57.4795 296.1699,57.4795 296.1699,50.289 
			304.0312,50.289 304.4004,48.2851 296.1699,48.2851 296.1699,41.4238 305.0683,41.4238 305.0683,39.3466 		"/>
		<polygon points="327.1738,39.3466 327.1738,55.8095 315.6426,39.3466 313.6015,39.7881 313.6015,59.5537 315.75,59.5537 
			315.75,43.1689 327.2441,59.5537 329.3222,59.5537 329.3222,39.3466 		"/>
		<polygon points="336.9258,39.3466 336.9258,41.4238 343.0801,41.4238 343.0801,59.5537 345.2344,59.5537 345.2344,41.4238 
			351.3496,41.4238 351.3496,39.3466 		"/>
		<path d="M358.1387,56.6299c1.7402,0.7792,3.4492,1.3349,5.2675,1.3349c2.6641,0,4.5977-1.373,4.5977-3.4141
			c0-5.041-9.8242-3.5966-9.8242-10.2304c0-3.6758,3.1855-5.4561,6.1914-5.4561c1.7422,0,3.2969,0.4082,5.041,1.1133l-0.7051,1.9297
			c-1.4844-0.5938-2.7441-0.9648-4.3359-0.9648c-2.5606,0-3.9707,1.4472-3.9707,3.3779c0,4.708,9.8261,3.7412,9.8261,10.2304
			c0,3.335-2.9668,5.4874-6.8203,5.4874c-2.041,0-3.8574-0.4805-5.9023-1.4795L358.1387,56.6299z"/>
	</g>
	<g>
		<path class="st0" d="M61.7471,50.957v1.8252H26.0156V50.957c0-14.75-7.4726-28.3545-21.9766-28.3545
			c-4.9951,0,14.4805,0.2109,14.4805,28.3545v6.0615c0,1.7881,1.4531,3.2383,3.2412,3.2383h44.2324
			c1.7881,0,3.2413-1.4502,3.2413-3.2383V50.957c0-28.1436,19.4785-28.3545,14.4863-28.3545
			C69.209,22.6025,61.7471,36.207,61.7471,50.957"/>
		<path class="st0" d="M34.3301,12.8886c3.3711,5.9961,5.7324,23.4952,6.5507,36.3028h5.9932
			c0.8164-12.8076,3.1787-30.3067,6.5527-36.3028c0,0-2.9775-0.5175-10.0068-0.5175
			C37.0986,12.3711,34.3301,12.8886,34.3301,12.8886"/>
		<path class="st0" d="M76.7012,18.0009c0,0-8.2774-3.1269-19.8135-4.7539c-3.4385,9.6211-5.9531,23.7705-7.2334,35.9473h8.2969
			C57.9512,35.3916,63.123,21.3408,76.7012,18.0009"/>
		<path class="st0" d="M11.0547,18.0009c13.5791,3.3399,18.7412,17.3907,18.7412,31.1934h8.3076
			c-1.2842-12.1982-3.8008-26.375-7.2539-35.9883C19.0605,14.8154,11.0547,18.0009,11.0547,18.0009"/>
		<path class="st0" d="M86.375,11.2177c0,0-17.4688-11.0742-42.2442-11.2109V0c-0.0429,0-0.2109,0-0.2539,0v0.0068
			C19.1015,0.1435,1.6328,11.2148,1.6328,11.2177C0.5976,12.8759,0,14.8095,0,17.0966c0,4.6583,10.6269-8.6718,44.0039-8.7031
			c33.3808,0.0313,44.0039,13.3614,44.0039,8.7031C88.0078,14.8095,87.4101,12.8759,86.375,11.2177"/>
	</g>
</g>
</svg>
