<svg xmlns="http://www.w3.org/2000/svg" xmlns:xlink="http://www.w3.org/1999/xlink" viewBox="-6778 2120 70 70"><defs><style>.a{fill:#fff;stroke:#707070;}.b{clip-path:url(#a);}.c{fill:#231f20;}</style><clipPath id="a"><rect class="a" width="70" height="70" transform="translate(884 1752)"/></clipPath></defs><g class="b" transform="translate(-7662 368)"><g transform="translate(884 1752.003)"><path class="c" d="M35,69.253c-13.034,0-24.465-8.563-27.521-20.479a7.617,7.617,0,0,1,.142-15.234h.653C12.249,22.774,22.891,15.594,35,15.594s22.751,7.18,26.728,17.946h.655a7.617,7.617,0,0,1,.142,15.234C59.465,60.691,48.032,69.253,35,69.253ZM7.619,35.662a5.5,5.5,0,1,0,0,10.994h.7a1.06,1.06,0,0,1,1.035.834C11.865,58.871,22.651,67.134,35,67.134s23.135-8.264,25.65-19.645a1.063,1.063,0,0,1,1.035-.834h.7a5.5,5.5,0,0,0,0-10.994h-1.4a1.061,1.061,0,0,1-1.005-.723C56.5,24.639,46.464,17.715,35,17.715s-21.5,6.923-24.972,17.223a1.059,1.059,0,0,1-1.005.723Z"/><circle class="c" cx="2.562" cy="2.562" r="2.562" transform="translate(41.323 42.689)"/><circle class="c" cx="2.562" cy="2.562" r="2.562" transform="translate(24.526 42.689)"/><path class="c" d="M35,59.115A14.258,14.258,0,0,1,27.5,56.981l-.418-.257A1.06,1.06,0,0,1,28.2,54.919l.416.257a12.113,12.113,0,0,0,12.771,0l.414-.257a1.06,1.06,0,0,1,1.114,1.805l-.416.257A14.3,14.3,0,0,1,35,59.115Z"/><path d="M37.331,17.853a9.4,9.4,0,0,1-9.388-9.388A7.732,7.732,0,0,1,35.666.74a6.4,6.4,0,0,1,6.391,6.391,5.331,5.331,0,0,1-5.326,5.326,4.475,4.475,0,0,1-4.469-4.471,1.061,1.061,0,0,1,2.121,0,2.352,2.352,0,0,0,2.348,2.35,3.209,3.209,0,0,0,3.2-3.2,4.276,4.276,0,0,0-4.27-4.27,5.609,5.609,0,0,0-5.6,5.6,7.275,7.275,0,0,0,7.267,7.267,1.061,1.061,0,1,1,0,2.121Z"/></g></g></svg>