<svg xmlns="http://www.w3.org/2000/svg" xmlns:xlink="http://www.w3.org/1999/xlink" viewBox="-6357 2120 70 70"><defs><style>.a,.c{fill:#231f20;}.a{stroke:#707070;}.b{clip-path:url(#a);}</style><clipPath id="a"><rect class="a" width="70" height="70" transform="translate(1305 1752)"/></clipPath></defs><g class="b" transform="translate(-7662 368)"><path class="c" d="M68.866,58.056H61.533V48.125a5.765,5.765,0,0,0,4.838-5.566,38.15,38.15,0,0,0-1.46-8.052c-1.294-4.563-2.727-6.689-4.512-6.689s-3.218,2.125-4.512,6.689a38.15,38.15,0,0,0-1.46,8.052,5.764,5.764,0,0,0,4.838,5.566v9.931H51.857V29.9a3.558,3.558,0,0,0,2.419-3.366V21.7a1.134,1.134,0,0,0-1.134-1.134H51.857V19.2h2.495a1.134,1.134,0,0,0,0-2.268H47.1a1.134,1.134,0,1,0,0,2.268H49.59v1.361H48.3A1.134,1.134,0,0,0,47.171,21.7v4.838A3.558,3.558,0,0,0,49.59,29.9V58.056H45.625l-.77-3.78h1.031a1.134,1.134,0,0,0,0-2.268H43.391v-2.57h1.285a1.134,1.134,0,0,0,0-2.268H43.391V45.81h1.285a1.134,1.134,0,0,0,0-2.268H22.9a1.134,1.134,0,1,0,0,2.268H24.19v1.361H22.9a1.134,1.134,0,1,0,0,2.268H24.19v2.57H21.7a1.134,1.134,0,1,0,0,2.268h1.031l-.77,3.78h-8.8V46.95a9.613,9.613,0,0,0,8.467-9.531c0-8.518-8.222-26.332-8.572-27.086a1.134,1.134,0,0,0-2.057,0c-.35.754-8.572,18.568-8.572,27.086a9.613,9.613,0,0,0,8.467,9.531V58.056H1.134a1.134,1.134,0,1,0,0,2.268H68.866a1.134,1.134,0,0,0,0-2.268ZM56.7,42.559a35.9,35.9,0,0,1,1.278-7.088c1.213-4.438,2.232-5.252,2.426-5.371.194.119,1.213.933,2.426,5.371A35.893,35.893,0,0,1,64.1,42.559a3.451,3.451,0,0,1-2.57,3.238V43.467a1.134,1.134,0,1,0-2.268,0V45.8A3.451,3.451,0,0,1,56.7,42.559Zm-7.257-19.73h2.57v3.7a1.285,1.285,0,1,1-2.57,0ZM4.687,37.419c0-6.293,5.1-18.692,7.333-23.824,2.235,5.132,7.333,17.531,7.333,23.824a7.344,7.344,0,0,1-6.2,7.245V37.889l3.3-3.3a1.134,1.134,0,1,0-1.6-1.6l-1.693,1.693v-2.1a1.134,1.134,0,0,0-2.268,0V38.31L9.193,36.617a1.134,1.134,0,0,0-1.6,1.6l3.3,3.3v3.146A7.344,7.344,0,0,1,4.687,37.419ZM26.458,45.81H41.123v1.361H26.458Zm0,3.629H41.123v2.57H26.458ZM25.04,54.276h17.5l.77,3.78H24.27Z" transform="translate(1305 1752)"/></g></svg>