<svg xmlns="http://www.w3.org/2000/svg" xmlns:xlink="http://www.w3.org/1999/xlink" viewBox="-7199 1927.004 70 70"><defs><style>.a{fill:#fff;stroke:#707070;}.b{clip-path:url(#a);}.c{fill:#231f20;}</style><clipPath id="a"><rect class="a" width="70" height="70" transform="translate(0)"/></clipPath></defs><g class="b" transform="translate(-7199 1927.004)"><g transform="translate(0 0)"><path class="c" d="M51.135,66.468V53.635a3.437,3.437,0,0,0-3.5-3.5h-.583a1.159,1.159,0,0,1-1.167-.817L41.8,35.085v-.117a5.9,5.9,0,0,0-5.367-3.5H14.5a5.9,5.9,0,0,0-5.367,3.5v.117L5.051,49.318a1.4,1.4,0,0,1-1.167.817H3.3a3.437,3.437,0,0,0-3.5,3.5V66.468a3.437,3.437,0,0,0,3.5,3.5V75.8a3.437,3.437,0,0,0,3.5,3.5H9.135a3.437,3.437,0,0,0,3.5-3.5V69.968H38.3V75.8a3.437,3.437,0,0,0,3.5,3.5h2.333a3.437,3.437,0,0,0,3.5-3.5V69.968A3.437,3.437,0,0,0,51.135,66.468ZM10.3,75.8a1.1,1.1,0,0,1-1.167,1.167H6.8A1.1,1.1,0,0,1,5.635,75.8V69.968H10.3V75.8Zm35,0a1.1,1.1,0,0,1-1.167,1.167H41.8A1.1,1.1,0,0,1,40.635,75.8V69.968H45.3V75.8Zm3.5-9.333a1.1,1.1,0,0,1-1.167,1.167H3.3a1.1,1.1,0,0,1-1.167-1.167V53.635A1.1,1.1,0,0,1,3.3,52.468h.583A3.607,3.607,0,0,0,7.268,49.9l4.083-14.117A3.513,3.513,0,0,1,14.5,33.8H36.435a3.438,3.438,0,0,1,3.15,1.983L43.668,49.9a3.607,3.607,0,0,0,3.383,2.567h.583A1.1,1.1,0,0,1,48.8,53.635V66.468Z" transform="translate(0.199 -9.302)"/><path class="c" d="M12.8,64.8a4.667,4.667,0,1,0,4.667,4.667A4.68,4.68,0,0,0,12.8,64.8Zm0,7a2.333,2.333,0,1,1,2.333-2.333A2.34,2.34,0,0,1,12.8,71.8Z" transform="translate(-2.301 -19.301)"/><path class="c" d="M56.135,64.8A4.667,4.667,0,1,0,60.8,69.468,4.68,4.68,0,0,0,56.135,64.8Zm0,7a2.333,2.333,0,1,1,2.333-2.333A2.34,2.34,0,0,1,56.135,71.8Z" transform="translate(-15.301 -19.301)"/><path class="c" d="M37.3,73.135H32.635a1.167,1.167,0,0,0,0,2.333H37.3a1.167,1.167,0,1,0,0-2.333Z" transform="translate(-9.301 -21.801)"/><path class="c" d="M38.635,66.468H29.3a1.167,1.167,0,1,0,0,2.333h9.333a1.167,1.167,0,1,0,0-2.333Z" transform="translate(-8.301 -19.801)"/><path class="c" d="M19.468,52.135H41.985a2.436,2.436,0,0,0,1.867-.933,2.262,2.262,0,0,0,.35-2.1l-2.8-9.333a2.275,2.275,0,0,0-2.217-1.633H22.268a2.241,2.241,0,0,0-2.217,1.633l-2.8,9.333a2.262,2.262,0,0,0,.35,2.1A2.436,2.436,0,0,0,19.468,52.135Zm2.8-11.667H39.185l2.8,9.333H19.468Z" transform="translate(-5.001 -11.301)"/><path class="c" d="M89.135-.2H69.3A1.1,1.1,0,0,0,68.135.968V20.8A1.1,1.1,0,0,0,69.3,21.968h8.167V58.135H75.135A1.1,1.1,0,0,0,73.968,59.3v3.5H71.635a1.1,1.1,0,0,0-1.167,1.167v4.667A1.1,1.1,0,0,0,71.635,69.8h14A1.1,1.1,0,0,0,86.8,68.635V63.968A1.1,1.1,0,0,0,85.635,62.8H83.3V59.3a1.1,1.1,0,0,0-1.167-1.167H79.8V21.968h9.333A1.1,1.1,0,0,0,90.3,20.8V.968A1.1,1.1,0,0,0,89.135-.2ZM84.468,67.468H72.8V65.135H84.468v2.333Zm-3.5-4.667H76.3V60.468h4.667Zm7-43.167h-17.5V2.135h17.5Z" transform="translate(-20.301 0.199)"/><path class="c" d="M80.968,19.3a1.1,1.1,0,0,0,1.167-1.167V15.8H83.3a4.667,4.667,0,1,0,0-9.333H80.968A1.1,1.1,0,0,0,79.8,7.635v10.5A1.1,1.1,0,0,0,80.968,19.3Zm4.667-8.167A2.34,2.34,0,0,1,83.3,13.468H82.135V8.8H83.3A2.34,2.34,0,0,1,85.635,11.135Z" transform="translate(-23.801 -1.801)"/></g></g></svg>