<svg xmlns="http://www.w3.org/2000/svg" viewBox="-4396.106 2744.654 60.039 60">
  <defs>
    <style>
      .cls-1 {
        fill: #b7912e;
      }
    </style>
  </defs>
  <g id="phone-icon" transform="translate(-4396.106 2744.466)">
    <g id="Group_11" data-name="Group 11" transform="translate(0 0.188)">
      <path id="Path_32" data-name="Path 32" class="cls-1" d="M60.01,47.54a2.9,2.9,0,0,1-.89,2.542l-8.453,8.389a4.758,4.758,0,0,1-1.494,1.081,6.172,6.172,0,0,1-1.811.572q-.064,0-.382.032t-.826.032a29.3,29.3,0,0,1-3.909-.413,29.687,29.687,0,0,1-6.61-2.034,55.484,55.484,0,0,1-8.867-4.862,66.106,66.106,0,0,1-10.551-8.9,69.648,69.648,0,0,1-7.373-8.39,59.777,59.777,0,0,1-4.7-7.4,39.881,39.881,0,0,1-2.67-6.165A32.71,32.71,0,0,1,.265,17.254a15.743,15.743,0,0,1-.254-3.146q.064-1.144.064-1.271a6.178,6.178,0,0,1,.572-1.811A4.763,4.763,0,0,1,1.727,9.531L10.18,1.078a2.8,2.8,0,0,1,2.034-.89,2.371,2.371,0,0,1,1.462.477,4.419,4.419,0,0,1,1.081,1.176l6.8,12.9a3.093,3.093,0,0,1,.318,2.225A3.962,3.962,0,0,1,20.794,19L17.68,22.116a1.06,1.06,0,0,0-.222.413,1.568,1.568,0,0,0-.1.477,11.477,11.477,0,0,0,1.144,3.051,28.006,28.006,0,0,0,2.352,3.718,41.285,41.285,0,0,0,4.513,5.053,42.1,42.1,0,0,0,5.085,4.545,29.364,29.364,0,0,0,3.718,2.383,9.883,9.883,0,0,0,2.288.921l.794.159a1.515,1.515,0,0,0,.413-.1,1.061,1.061,0,0,0,.413-.223l3.623-3.686a3.894,3.894,0,0,1,2.67-1.017,3.321,3.321,0,0,1,1.716.381h.063l12.267,7.246A3.2,3.2,0,0,1,60.01,47.54Z" transform="translate(0 -0.188)"/>
    </g>
  </g>
</svg>
