<svg xmlns="http://www.w3.org/2000/svg" viewBox="-6776 2719 60 68.795"><defs><style>.a{fill:#fff;}</style></defs><path class="a" d="M66.434,23.961a2.158,2.158,0,1,0-2.284,3.663,7.984,7.984,0,0,1,0,13.549l-35.4,22.073a7.983,7.983,0,0,1-12.207-6.774V12.324A7.983,7.983,0,0,1,28.749,5.55L49.357,18.4a2.158,2.158,0,1,0,2.284-3.663L31.033,1.887A12.3,12.3,0,0,0,12.226,12.324V56.471a12.147,12.147,0,0,0,6.332,10.754,12.148,12.148,0,0,0,12.476-.318l35.4-22.073a12.3,12.3,0,0,0,0-20.874Z" transform="translate(-6788.227 2719)"/></svg>