<svg xmlns="http://www.w3.org/2000/svg" xmlns:xlink="http://www.w3.org/1999/xlink" viewBox="-7199 2120 70 70"><defs><style>.a{fill:#fff;stroke:#707070;}.b{clip-path:url(#a);}.c{fill:#231f20;}</style><clipPath id="a"><rect class="a" width="70" height="70" transform="translate(463 1752)"/></clipPath></defs><g class="b" transform="translate(-7662 368)"><g transform="translate(463 1752)"><path class="c" d="M67.808,57.158V56.1a4.318,4.318,0,0,0-2.379-3.9C61.6,50.361,55.3,43.18,51.122,38.428,41.686,27.686,31.946,16.6,19.586,15.444v-2.6a3.217,3.217,0,0,0-1.025-6.266H3.217a3.217,3.217,0,0,0-1.025,6.266V19.9a3.216,3.216,0,0,0,0,6.1v35.38H1.025a1.025,1.025,0,0,0,0,2.051H5.409a1.025,1.025,0,1,0,0-2.051H4.243V59.041H17.535v2.333H16.369a1.025,1.025,0,0,0,0,2.051h4.384a1.025,1.025,0,0,0,0-2.051H19.586v-35c7.857,1.5,16.081,10.857,23.409,19.2,8.066,9.182,15.685,17.856,23.788,17.856a3.217,3.217,0,0,0,1.025-6.266ZM2.051,9.793A1.168,1.168,0,0,1,3.217,8.627H18.561a1.166,1.166,0,1,1,0,2.333H3.217A1.168,1.168,0,0,1,2.051,9.793Zm15.414,5.55H4.243V13.01H17.535v2.334Zm.071,2.052v2.333H4.243V17.394H17.535Zm0,39.595H4.243V53.561H17.535Zm0-5.48H4.243V48.081H17.535Zm0-5.48H4.243V42.6H17.535Zm0-5.48H4.243V37.121H17.535Zm0-5.48H4.243V31.642H17.535Zm0-5.48H4.243V26.162H17.535ZM66.783,61.373c-7.174,0-14.5-8.334-22.248-17.159-8.277-9.423-17.659-20.1-27.07-20.1H3.217a1.166,1.166,0,1,1,0-2.333H17.465a16.185,16.185,0,0,1,3.092.3,1.025,1.025,0,0,0,.393-2.013q-.68-.133-1.363-.214V17.506c11.477,1.2,20.883,11.9,30,22.275,4.539,5.168,10.756,12.245,14.956,14.272a2.258,2.258,0,0,1,1.22,2.05v.787c-1.955-.365-4.291-1.743-7.1-4.184a1.025,1.025,0,1,0-1.345,1.548c3.76,3.265,6.769,4.786,9.471,4.786a1.166,1.166,0,0,1,0,2.333Z"/><path class="c" d="M55.492,49.72c-2.52-2.543-5.134-5.519-7.664-8.4-5.147-5.86-10.47-11.919-16.1-16.1A1.025,1.025,0,0,0,30.5,26.87c5.459,4.049,10.709,10.025,15.787,15.806,2.548,2.9,5.183,5.9,7.746,8.487a1.025,1.025,0,1,0,1.457-1.443Z"/><path class="c" d="M27.828,22.683c-.759-.424-1.524-.807-2.271-1.138a1.025,1.025,0,0,0-.831,1.875c.69.306,1.4.66,2.1,1.054a1.025,1.025,0,1,0,1-1.791Z"/></g></g></svg>