<svg xmlns="http://www.w3.org/2000/svg" viewBox="-8791.117 -53 140.882 128.998">
  <defs>
    <style>
      .cls-1, .cls-2 {
        fill: #fff;
      }

      .cls-2 {
        font-size: 13px;
        font-family: Arial-BoldMT, Arial;
        font-weight: 700;
      }
    </style>
  </defs>
  <g id="project-logo-1" transform="translate(-8792 -52.95)">
    <path id="Path_306" data-name="Path 306" class="cls-1" d="M145.834,88.827H143.31V62.864a4.422,4.422,0,0,1,4.444-4.024h11.423a3.66,3.66,0,0,1,2.648.859,4,4,0,0,1,1.218,3.123,4.074,4.074,0,0,1-1.182,3.076,4.289,4.289,0,0,1-2.947,1.088,4.514,4.514,0,0,1-3.1-1.109,3.854,3.854,0,0,1-1.136-2.894H157.2a1.3,1.3,0,0,0,.341,1.041,1.992,1.992,0,0,0,1.3.422h.129a1.833,1.833,0,0,0,1.151-.406,1.659,1.659,0,0,0,.387-1.223,1.765,1.765,0,0,0-.356-1.234,1.216,1.216,0,0,0-.795-.234H147.765a1.89,1.89,0,0,0-1.931,1.733Z" transform="translate(-70.885 -35.94)"/>
    <path id="Path_307" data-name="Path 307" class="cls-1" d="M154.5,98.142H152V82.287a4.417,4.417,0,0,1,4.444-4.024h5.275a3.661,3.661,0,0,1,2.638.9,4,4,0,0,1,1.218,3.123,4.079,4.079,0,0,1-1.187,3.081,4.309,4.309,0,0,1-2.942,1.083,4.509,4.509,0,0,1-3.1-1.114,3.843,3.843,0,0,1-1.136-2.894h2.529a1.308,1.308,0,0,0,.336,1.041,2.053,2.053,0,0,0,1.3.422h.129a1.818,1.818,0,0,0,1.156-.406,1.664,1.664,0,0,0,.387-1.218,1.77,1.77,0,0,0-.356-1.234,1.2,1.2,0,0,0-.795-.239h-5.461a1.879,1.879,0,0,0-1.93,1.713Z" transform="translate(-75.089 -45.255)"/>
    <path id="Path_308" data-name="Path 308" class="cls-1" d="M117.988,88.827H120.5V62.863a4.417,4.417,0,0,0-4.444-4.024H104.635a3.66,3.66,0,0,0-2.653.859,4,4,0,0,0-1.218,3.123,4.074,4.074,0,0,0,1.182,3.076,4.294,4.294,0,0,0,2.947,1.088,4.519,4.519,0,0,0,3.1-1.109,3.853,3.853,0,0,0,1.136-2.894H106.56a1.308,1.308,0,0,1-.341,1.041,2,2,0,0,1-1.3.422H104.8a1.833,1.833,0,0,1-1.156-.406,1.654,1.654,0,0,1-.387-1.223,1.765,1.765,0,0,1,.356-1.234,1.216,1.216,0,0,1,.795-.234h11.65a1.89,1.89,0,0,1,1.931,1.733Z" transform="translate(-50.296 -35.94)"/>
    <path id="Path_309" data-name="Path 309" class="cls-1" d="M115.082,98.142h2.524V82.287a4.417,4.417,0,0,0-4.439-4.024h-5.286a3.661,3.661,0,0,0-2.648.9,4,4,0,0,0-1.239,3.123,4.074,4.074,0,0,0,1.182,3.076,4.309,4.309,0,0,0,2.947,1.088,4.509,4.509,0,0,0,3.1-1.114,3.848,3.848,0,0,0,1.136-2.894h-2.519a1.3,1.3,0,0,1-.341,1.041,2.023,2.023,0,0,1-1.29.422h-.129a1.818,1.818,0,0,1-1.156-.406,1.659,1.659,0,0,1-.387-1.218,1.775,1.775,0,0,1,.356-1.234,1.206,1.206,0,0,1,.8-.239h5.466a1.879,1.879,0,0,1,1.925,1.713Z" transform="translate(-51.86 -45.255)"/>
    <path id="Path_310" data-name="Path 310" class="cls-1" d="M107.9,19.236A31.363,31.363,0,1,0,139,50.6a31.231,31.231,0,0,0-31.1-31.361m0,67.147a25.215,25.215,0,1,1,.021.021" transform="translate(-36.577 -14.81)"/>
    <path id="Path_311" data-name="Path 311" class="cls-1" d="M113.926,28.778a27.833,27.833,0,1,0,27.6,27.831,27.718,27.718,0,0,0-27.6-27.831m0,57.143a29.312,29.312,0,1,1,29.066-29.311,29.189,29.189,0,0,1-29.066,29.311" transform="translate(-42.605 -20.823)"/>
    <path id="Path_312" data-name="Path 312" class="cls-1" d="M1.71,169.72v5.21L5.6,170.542H7.884v15.741l-2.178,2.634h8.156l-2.173-2.634V170.542H14l3.887,4.388v-5.21Z" transform="translate(-0.827 -81.401)"/>
    <path id="Path_313" data-name="Path 313" class="cls-1" d="M45.208,180.845v9.447c.9-1.426,2.529-2.139,4.95-2.139,3.887,0,5.848,1.811,5.848,5.455v5.726l2.178,2.634H50.018l2.173-2.634v-5.96c0-2.852-1.007-4.221-3.288-4.221a3.463,3.463,0,0,0-3.7,3.81v6.361l2.158,2.634H39.22l2.178-2.634v-15.85L39.22,180.84Z" transform="translate(-20.524 -94.442)"/>
    <path id="Path_314" data-name="Path 314" class="cls-1" d="M83.075,200.915h6.365V200.2q0-4.521-3.1-4.523c-2.2,0-3.288,1.754-3.288,5.236m6.39,7.131,3.753-5.205v6.246l-2.555-.713a9.141,9.141,0,0,1-3.778.713,8.726,8.726,0,0,1-5.626-1.728c-1.44-1.176-2.147-2.988-2.147-5.429,0-4.581,2.689-7.074,7.34-7.074a8.816,8.816,0,0,1,4.868,1.286A5.437,5.437,0,0,1,93.636,201v.739H83.049c0,4.3,1.74,6.444,5.219,6.444a6.144,6.144,0,0,0,1.2-.135" transform="translate(-39.814 -101.16)"/>
    <path id="Path_315" data-name="Path 315" class="cls-1" d="M123.993,180.281v6l2.178,2.634H118.01l2.178-2.634V172.354l-2.178-2.634h14.252v5.21l-3.892-4.388h-4.377v8.917H126.9l2.989-3.019V183.3l-2.989-3.014Z" transform="translate(-57.096 -81.401)"/>
    <path id="Path_316" data-name="Path 316" class="cls-1" d="M158.089,208.273c2.638,0,3.727-2.165,3.727-6.418s-1.032-6.168-3.727-6.168-3.727,1.973-3.727,6.173,1.089,6.418,3.727,6.418m5.523-1.1a8.931,8.931,0,0,1-11.067,0,6.92,6.92,0,0,1-2.065-5.315,6.441,6.441,0,0,1,2.065-5.158,8.161,8.161,0,0,1,5.544-1.837,8.047,8.047,0,0,1,5.549,1.837,6.506,6.506,0,0,1,2.065,5.158,6.945,6.945,0,0,1-2.1,5.315" transform="translate(-74.354 -101.169)"/>
    <path id="Path_317" data-name="Path 317" class="cls-1" d="M195.1,204.231v-6.007l-2.173-2.634h5.983V206.4l2.178,2.634H195.1v-1.593c-.872,1.426-2.854,2-4.677,2-3.887,0-5.848-1.811-5.848-5.455v-5.757L182.4,195.59h5.983v8.542c0,2.826,1.115,4.221,3.371,4.221,2.065,0,3.345-1.51,3.345-4.164" transform="translate(-89.797 -101.514)"/>
    <path id="Path_318" data-name="Path 318" class="cls-1" d="M227.182,195.25v1.7c.9-1.4,2.447-2.082,4.708-2.082,3.613,0,5.957,1.811,5.957,5.236v5.95l2.173,2.634h-8.161l2.178-2.634V200.33q0-4.357-3.345-4.362c-2.39,0-3.51,1.645-3.51,3.977v6.111l2.173,2.634H221.2l2.173-2.634v-8.172L221.2,195.25Z" transform="translate(-108.569 -101.169)"/>
    <path id="Path_319" data-name="Path 319" class="cls-1" d="M264.57,188v3.946h4.052v.822H264.57v7.568a9.72,9.72,0,0,0,.351,3.264,1.3,1.3,0,0,0,1.306.848c1.058-.083,1.574-1.343,1.574-3.727h.816c0,3.373-1.275,5.075-3.835,5.075-2.689,0-4.021-1.562-4.021-4.685v-8.334H259v-.822h1.771v-2.113l2.013-1.837Z" transform="translate(-126.858 -97.875)"/>
    <text id="Clinics_Commercial" data-name="Clinics Commercial" class="cls-2" transform="translate(10 125.948)"><tspan x="0" y="0">Clinics Commercial</tspan></text>
  </g>
</svg>
