<svg xmlns="http://www.w3.org/2000/svg" xmlns:xlink="http://www.w3.org/1999/xlink" viewBox="-8842 372.5 142.8 178.5">
  <defs>
    <style>
      .cls-1 {
        fill: #b7912e;
      }

      .cls-2 {
        clip-path: url(#clip-path);
      }

      .cls-3 {
        fill: #fff;
      }
    </style>
    <clipPath id="clip-path">
      <rect id="Rectangle_134" data-name="Rectangle 134" class="cls-1" width="142.8" height="178.5" transform="translate(760 315)"/>
    </clipPath>
  </defs>
  <g id="project-logo-3" class="cls-2" transform="translate(-9602 57.5)">
    <g id="Logo_-_SVG" data-name="Logo - SVG" transform="translate(760 340.027)">
      <g id="Group_144" data-name="Group 144" transform="translate(0 0)">
        <g id="Group_142" data-name="Group 142" transform="translate(56.583)">
          <path id="Path_221" data-name="Path 221" class="cls-3" d="M197.728,30.052H168.109v73.564h4.67V34.708h24.949Z" transform="translate(-168.109 -30.052)"/>
          <rect id="Rectangle_129" data-name="Rectangle 129" class="cls-3" width="4.656" height="35.782" transform="translate(7.834 8.49)"/>
          <rect id="Rectangle_130" data-name="Rectangle 130" class="cls-3" width="4.656" height="35.782" transform="translate(16.309 8.49)"/>
          <rect id="Rectangle_131" data-name="Rectangle 131" class="cls-3" width="4.656" height="35.782" transform="translate(24.964 8.49)"/>
          <rect id="Rectangle_132" data-name="Rectangle 132" class="cls-3" width="4.656" height="17.473" transform="translate(7.834 56.09)"/>
          <rect id="Rectangle_133" data-name="Rectangle 133" class="cls-3" width="4.656" height="17.473" transform="translate(16.309 56.09)"/>
          <path id="Path_222" data-name="Path 222" class="cls-3" d="M190.052,163.386v4.656h17.13v21.308h4.67V163.386Z" transform="translate(-182.218 -115.786)"/>
        </g>
        <g id="Group_143" data-name="Group 143" transform="translate(0 89.037)">
          <path id="Path_223" data-name="Path 223" class="cls-3" d="M25.833,286.127a6.565,6.565,0,0,0-1.522-1.686,6.156,6.156,0,0,0-3.924-1.358,7.008,7.008,0,0,0,0,14,6.913,6.913,0,0,0,4.074-1.238,5.412,5.412,0,0,0,2.1-3.1H18.91v-3.328h12.4a12.062,12.062,0,0,1-.91,5.148,10.9,10.9,0,0,1-10,6.148,10.626,10.626,0,1,1,.06-21.248,10.691,10.691,0,0,1,10.012,6.67Z" transform="translate(-9.613 -279.457)"/>
          <path id="Path_224" data-name="Path 224" class="cls-3" d="M90.617,280.543h6.192c3.178,0,5.014.492,6.118,1.3a7.224,7.224,0,0,1,1.492,9.386,5.32,5.32,0,0,1-3.372,2.208l4.566,7.58H101.3l-5.506-9.52H96.6a6.468,6.468,0,0,0,3.686-.746,3.832,3.832,0,0,0,1.3-2.984,3.521,3.521,0,0,0-1.522-2.954,5.394,5.394,0,0,0-2.91-.642h-2.4v16.847H90.631V280.543Z" transform="translate(-61.698 -280.155)"/>
          <path id="Path_225" data-name="Path 225" class="cls-3" d="M151.687,301.058H147.21l8.3-20.472h3.626l8.1,20.472h-4.506l-1.492-4.014h-8.088Zm5.446-15.608-2.91,8.3h5.894Z" transform="translate(-98.088 -280.182)"/>
          <path id="Path_226" data-name="Path 226" class="cls-3" d="M234.9,294.749l-.09-14.19h3.954v20.472h-3.656l-9.43-14.161.09,14.161h-3.954V280.543H225.5Z" transform="translate(-146.061 -280.155)"/>
          <path id="Path_227" data-name="Path 227" class="cls-3" d="M292.748,280.543h6.506c2.537,0,6.252.254,8.684,3.536a10.39,10.39,0,0,1,2.1,6.67c0,5.775-3.044,10.266-10.49,10.266h-6.8Zm4.118,16.861h2.91c4.432,0,6.148-2.91,6.148-6.58a7.668,7.668,0,0,0-1.388-4.6,5.515,5.515,0,0,0-4.73-2.044h-2.94Z" transform="translate(-191.669 -280.155)"/>
          <path id="Path_228" data-name="Path 228" class="cls-3" d="M358,301.058h-4.477l8.3-20.472h3.626l8.1,20.472H369.04l-1.492-4.014h-8.073Zm5.446-15.608-2.91,8.3h5.894Z" transform="translate(-230.746 -280.182)"/>
        </g>
      </g>
      <g id="Group_145" data-name="Group 145" transform="translate(28.5 119.806)">
        <path id="Path_229" data-name="Path 229" class="cls-3" d="M97.817,374.4H95.982l-.731-1.9H91.923l-.686,1.9H89.446l3.253-8.341h1.776Zm-3.1-3.3-1.149-3.089L92.445,371.1Z" transform="translate(-89.446 -365.911)"/>
        <path id="Path_230" data-name="Path 230" class="cls-3" d="M120.084,374.536V366.27h1.686v6.864h4.193v1.4Z" transform="translate(-109.146 -366.046)"/>
        <path id="Path_231" data-name="Path 231" class="cls-3" d="M143.281,371.417l1.641-.164a2.017,2.017,0,0,0,.6,1.209,1.85,1.85,0,0,0,1.224.388,1.9,1.9,0,0,0,1.224-.343,1.033,1.033,0,0,0,.418-.806.781.781,0,0,0-.179-.507,1.433,1.433,0,0,0-.612-.358,13.453,13.453,0,0,0-1.343-.358,4.533,4.533,0,0,1-1.9-.821,2.195,2.195,0,0,1,.627-3.715,4.135,4.135,0,0,1,1.641-.3,3.475,3.475,0,0,1,2.358.686,2.477,2.477,0,0,1,.836,1.835l-1.686.075a1.44,1.44,0,0,0-.463-.925,1.661,1.661,0,0,0-1.059-.284,1.95,1.95,0,0,0-1.149.3.612.612,0,0,0-.269.522.673.673,0,0,0,.254.507,4.444,4.444,0,0,0,1.552.552,8.305,8.305,0,0,1,1.82.6,2.424,2.424,0,0,1,.925.851,2.471,2.471,0,0,1,.328,1.328,2.439,2.439,0,0,1-.4,1.343,2.357,2.357,0,0,1-1.119.925,4.649,4.649,0,0,1-1.82.3,3.59,3.59,0,0,1-2.432-.731A3.017,3.017,0,0,1,143.281,371.417Z" transform="translate(-124.062 -365.643)"/>
        <path id="Path_232" data-name="Path 232" class="cls-3" d="M170.826,374.4v-8.341h1.686v3.283h3.3v-3.283H177.5V374.4h-1.686v-3.641h-3.3V374.4Z" transform="translate(-141.773 -365.911)"/>
        <path id="Path_233" data-name="Path 233" class="cls-3" d="M197.994,370.042a5.244,5.244,0,0,1,.388-2.134,4.214,4.214,0,0,1,.776-1.149,3.18,3.18,0,0,1,1.074-.746,4.534,4.534,0,0,1,1.806-.328,3.956,3.956,0,0,1,2.954,1.149,5.1,5.1,0,0,1,0,6.342,4.4,4.4,0,0,1-5.894,0A4.276,4.276,0,0,1,197.994,370.042Zm1.731-.06a3.162,3.162,0,0,0,.657,2.149,2.241,2.241,0,0,0,3.313,0,3.167,3.167,0,0,0,.642-2.179,3.115,3.115,0,0,0-.627-2.134,2.092,2.092,0,0,0-1.671-.7,2.124,2.124,0,0,0-1.671.716A3.109,3.109,0,0,0,199.725,369.982Z" transform="translate(-159.242 -365.669)"/>
        <path id="Path_234" data-name="Path 234" class="cls-3" d="M228.924,374.4v-8.341h3.536a6.046,6.046,0,0,1,1.94.224,1.89,1.89,0,0,1,.97.806,2.442,2.442,0,0,1,.358,1.313,2.223,2.223,0,0,1-.552,1.552,2.7,2.7,0,0,1-1.656.776,3.974,3.974,0,0,1,.9.7,9.1,9.1,0,0,1,.955,1.358l1.015,1.626H234.37l-1.224-1.82a14.377,14.377,0,0,0-.88-1.224,1.332,1.332,0,0,0-.507-.343,2.924,2.924,0,0,0-.851-.09h-.343v3.477h-1.641Zm1.671-4.8h1.238a5.954,5.954,0,0,0,1.507-.1.95.95,0,0,0,.477-.358,1.215,1.215,0,0,0-.06-1.313.989.989,0,0,0-.642-.328c-.134-.015-.552-.03-1.224-.03H230.58V369.6Z" transform="translate(-179.13 -365.911)"/>
        <path id="Path_235" data-name="Path 235" class="cls-3" d="M256.05,370.042a5.244,5.244,0,0,1,.388-2.134,4.214,4.214,0,0,1,.776-1.149,3.18,3.18,0,0,1,1.074-.746,4.534,4.534,0,0,1,1.806-.328,3.956,3.956,0,0,1,2.954,1.149,5.1,5.1,0,0,1,0,6.342,4.4,4.4,0,0,1-5.894,0A4.338,4.338,0,0,1,256.05,370.042Zm1.746-.06a3.162,3.162,0,0,0,.657,2.149,2.242,2.242,0,0,0,3.313,0,3.167,3.167,0,0,0,.642-2.179,3.115,3.115,0,0,0-.627-2.134,2.092,2.092,0,0,0-1.671-.7,2.124,2.124,0,0,0-1.671.716A3.109,3.109,0,0,0,257.8,369.982Z" transform="translate(-196.573 -365.669)"/>
        <path id="Path_236" data-name="Path 236" class="cls-3" d="M286.938,366.061h1.686v4.521a8.962,8.962,0,0,0,.06,1.388,1.361,1.361,0,0,0,.507.821,1.782,1.782,0,0,0,1.119.313,1.593,1.593,0,0,0,1.074-.3,1.139,1.139,0,0,0,.433-.716,10.057,10.057,0,0,0,.075-1.418v-4.611h1.686v4.387a11.333,11.333,0,0,1-.134,2.119,2.215,2.215,0,0,1-.507,1.045,2.582,2.582,0,0,1-.985.686,4.306,4.306,0,0,1-1.6.254,4.377,4.377,0,0,1-1.806-.284,2.427,2.427,0,0,1-.97-.716,2.5,2.5,0,0,1-.478-.925,10.518,10.518,0,0,1-.164-2.119Z" transform="translate(-216.434 -365.911)"/>
        <path id="Path_237" data-name="Path 237" class="cls-3" d="M315.193,374.4v-8.341h1.686v3.7l3.4-3.7h2.268l-3.134,3.253,3.313,5.088H320.55l-2.3-3.909-1.373,1.388V374.4Z" transform="translate(-234.602 -365.911)"/>
      </g>
    </g>
  </g>
</svg>
