<svg xmlns="http://www.w3.org/2000/svg" viewBox="6732.14 1383.946 407.301 57.234"><path d="M40.01,33.75a21.83,21.83,0,0,0,2.45-2.59,13.084,13.084,0,0,0,1.89-3.115,9.655,9.655,0,0,0,.77-3.43,7.027,7.027,0,0,0-.77-3.465,7.585,7.585,0,0,0-1.96-2.45,5.513,5.513,0,0,0-2.87-1.26,4.085,4.085,0,0,0-2.8.7,11.111,11.111,0,0,0-2.17,2.03A7.814,7.814,0,0,0,32.905,23.5a11.184,11.184,0,0,0-.175,3.64,17.081,17.081,0,0,0,.84,3.675,32.853,32.853,0,0,0,1.4,3.43q.84,1.68,1.68,3.29a31.017,31.017,0,0,1,1.47,3.255,18.609,18.609,0,0,1,.945,3.43,13.309,13.309,0,0,1,.1,3.745,16.164,16.164,0,0,1-2.31,6.825A22.8,22.8,0,0,1,32,60.49a21.742,21.742,0,0,1-6.475,3.78,16.754,16.754,0,0,1-7.21,1.05A9.618,9.618,0,0,1,9.7,58.6a11.536,11.536,0,0,1-.56-3.535,13.591,13.591,0,0,1,.455-3.5,18.319,18.319,0,0,1,1.26-3.36A21.941,21.941,0,0,1,12.71,45.09a18.578,18.578,0,0,1,2.275-2.66,17.613,17.613,0,0,1,2.835-2.24,14.554,14.554,0,0,1,3.22-1.54,9.787,9.787,0,0,1,3.5-.49,8.939,8.939,0,0,1,3.57.875,7.587,7.587,0,0,1,2.73,2.135,6.843,6.843,0,0,1,1.365,3.08,6.476,6.476,0,0,1-.455,3.64,1.557,1.557,0,0,1-.84.63,1.345,1.345,0,0,1-.91-.035,1.235,1.235,0,0,1-.63-.56.917.917,0,0,1,.14-.945,4.514,4.514,0,0,0,.315-3.43,4.411,4.411,0,0,0-2.135-2.66,7.124,7.124,0,0,0-3.43-.91,9.415,9.415,0,0,0-3.4.63,13.149,13.149,0,0,0-3.115,1.715,16.777,16.777,0,0,0-2.59,2.345,19.5,19.5,0,0,0-2.135,3.08,15.15,15.15,0,0,0-1.435,3.5,11.54,11.54,0,0,0-.385,3.675,8.958,8.958,0,0,0,.945,3.535,7.454,7.454,0,0,0,2.17,2.765,7.779,7.779,0,0,0,2.94,1.4,10.866,10.866,0,0,0,3.4.245,14.5,14.5,0,0,0,3.465-.7,20.1,20.1,0,0,0,6.72-3.5,18.444,18.444,0,0,0,4.76-5.53,15.427,15.427,0,0,0,1.925-6.86,14.274,14.274,0,0,0-1.785-7.42q-.91-1.75-1.855-3.535a33.1,33.1,0,0,1-1.645-3.6,20.584,20.584,0,0,1-1.05-3.78,14.685,14.685,0,0,1-.14-4.06,10.727,10.727,0,0,1,.945-3.6A10.415,10.415,0,0,1,34.13,17.16a7.949,7.949,0,0,1,3.045-1.925,5.881,5.881,0,0,1,3.745.035,7.058,7.058,0,0,1,3.255,1.925,8.9,8.9,0,0,1,1.925,3.08,10.574,10.574,0,0,1,.63,3.675,13.7,13.7,0,0,1-.49,3.71,16.18,16.18,0,0,1-1.54,3.57,36.343,36.343,0,0,1-2.17,3.29,7.331,7.331,0,0,1-.875,1.12,1.034,1.034,0,0,1-1.295.21.946.946,0,0,1-.805-.875A1.293,1.293,0,0,1,40.01,33.75Zm2.94,13.3q.84-.42,2.135-1.085t2.765-1.3q1.47-.63,2.835-1.19t2.275-.91q.49-.21,1.75-.63t2.66-.77A20.443,20.443,0,0,1,60,40.68a2.856,2.856,0,0,1,1.785.21q.84.77.315,1.4a2.145,2.145,0,0,1-1.295.77l-3.15.35a7.3,7.3,0,0,0-1.645.665q-.665.385-1.505.945-.35.28-1.225,1.155t-1.715,1.89a11.206,11.206,0,0,0-1.33,1.96q-.49.945,0,1.365a1.578,1.578,0,0,0,1.365.14,10.888,10.888,0,0,0,1.925-.63q.98-.42,1.82-.875a10.674,10.674,0,0,0,1.12-.665,15.113,15.113,0,0,0,3.29-2.66.924.924,0,0,1,1.365-.175,1.181,1.181,0,0,1,.455,1.435,1.908,1.908,0,0,1-.49.84l-.665.665a2.423,2.423,0,0,0-.525.875q-.28.49-.14.735a.68.68,0,0,0,.49.315,7.66,7.66,0,0,0,2.45-.14,27.739,27.739,0,0,0,3.045-.77,31.331,31.331,0,0,0,3.115-1.155q1.54-.665,2.66-1.225a2.888,2.888,0,0,0,.77-.385A5.985,5.985,0,0,1,73.3,47.19a2.727,2.727,0,0,1,1.015-.21.724.724,0,0,1,.7.42.572.572,0,0,1-.035.77,2.51,2.51,0,0,1-.875.6q-.56.245-1.12.455t-.84.35q-1.19.56-2.38,1.085T67.31,51.74q-.84.35-1.82.84a15.476,15.476,0,0,1-2.03.84,11.316,11.316,0,0,1-2.135.49,4.039,4.039,0,0,1-1.995-.21,2.09,2.09,0,0,1-1.4-1.365A3.6,3.6,0,0,1,58,50.48L56.11,51.6q-1.19.7-2.485,1.435a6.782,6.782,0,0,1-2.695.875,3.66,3.66,0,0,1-2.24-.56,2.321,2.321,0,0,1-1.05-1.96A4.145,4.145,0,0,1,48.2,49.6a15.555,15.555,0,0,1,1.435-2.24A16.748,16.748,0,0,1,51.56,45.23a9.716,9.716,0,0,1,1.96-1.47,13.29,13.29,0,0,0-1.575.63q-1.085.49-2.45,1.19t-2.87,1.435q-1.505.735-2.765,1.365a.842.842,0,0,1-.7.1.956.956,0,0,1-.525-.35.782.782,0,0,1-.14-.56A.707.707,0,0,1,42.95,47.05Zm30.73,0q1.61-.91,3.22-1.68l3.22-1.54q.49-.21,1.365-.665t1.855-.875a11.216,11.216,0,0,1,1.89-.63,2.178,2.178,0,0,1,1.47.07,1.1,1.1,0,0,1,.6.98,2.621,2.621,0,0,1-.42,1.19A8.669,8.669,0,0,1,86,45.09a6.88,6.88,0,0,0-.7.91q-.35.56-.665,1.19t-.665,1.26q1.61-1.26,2.835-2.205T89.01,44.6a20.2,20.2,0,0,1,1.855-1.19,13.762,13.762,0,0,1,1.785-.84,2.664,2.664,0,0,1,2.03-.035q.98.385.7,1.785a8.035,8.035,0,0,1-.49,1.855,12.937,12.937,0,0,1-.84,1.715q1.54-.91,3.08-1.855t3.15-1.925q1.33-.84,2.835-1.75a7.975,7.975,0,0,1,3.115-1.12,2.533,2.533,0,0,1,1.68.245,1.86,1.86,0,0,1,.84,1.05,3.079,3.079,0,0,1,.07,1.47,4.349,4.349,0,0,1-.56,1.5q-.91,1.47-1.82,2.765a28.943,28.943,0,0,0-1.68,2.695,5.361,5.361,0,0,0,2.625-.28,22.8,22.8,0,0,0,2.415-.91q.98-.35,1.82-.735l1.75-.805a4.919,4.919,0,0,0,.665-.42,7.352,7.352,0,0,1,.84-.525,3.8,3.8,0,0,1,.875-.35,1.228,1.228,0,0,1,.77.035q.7.35.35.84a3.71,3.71,0,0,1-1.085.945,12.048,12.048,0,0,1-1.54.805q-.805.35-1.085.49a19.186,19.186,0,0,1-1.96.98l-1.96.84q-1.33.56-2.94,1.19a3.749,3.749,0,0,1-3.01,0,1.723,1.723,0,0,1-.98-.91,2.162,2.162,0,0,1-.1-1.155,3.546,3.546,0,0,1,.49-1.225,5.63,5.63,0,0,1,.805-1.05,13.779,13.779,0,0,1,1.015-1.05,13.506,13.506,0,0,0,1.12-1.19,6.122,6.122,0,0,0,.84-1.295,2.308,2.308,0,0,0,.175-1.435,2.024,2.024,0,0,0-1.715.07q-1.015.42-1.575.7a20.629,20.629,0,0,0-4.06,2.03q-1.96,1.26-3.78,2.52-.28.21-.98.8a13.257,13.257,0,0,1-1.47,1.085,4.33,4.33,0,0,1-1.5.63.83.83,0,0,1-1.015-.63,1.086,1.086,0,0,1,.07-.84,6.36,6.36,0,0,1,.56-1.015q.35-.525.7-1.015a4.222,4.222,0,0,0,.49-.84q.14-.35.385-.98a8.653,8.653,0,0,0,.385-1.26,14.463,14.463,0,0,0-3.01,1.295,29.592,29.592,0,0,0-2.695,1.75q-1.3.945-2.555,2.03T82.29,52.16a2.648,2.648,0,0,1-.84.56,1.048,1.048,0,0,1-.98-.07q-.63-.28-.7-.665a1.145,1.145,0,0,1,.14-.77,3.234,3.234,0,0,1,.56-.735l.56-.56a21.944,21.944,0,0,0,3.15-5.6,18.4,18.4,0,0,0-2.975.945q-1.435.6-2.765,1.155-.98.49-1.96.945a16.4,16.4,0,0,0-1.96,1.085.842.842,0,0,1-.7.1.794.794,0,0,1-.49-.35.978.978,0,0,1-.105-.6A.716.716,0,0,1,73.68,47.05Zm48.86-3.43q.28-.14,1.295-.56a11.553,11.553,0,0,1,2-.63,3.745,3.745,0,0,1,1.68-.035q.7.175.49,1.295a3.436,3.436,0,0,1-.6,1.26,4.7,4.7,0,0,0-.665,1.26,16.107,16.107,0,0,0-.805,2.24,2.36,2.36,0,0,0,.245,2.17,6.609,6.609,0,0,0,2.625-.28q1.435-.42,2.625-.84a13.54,13.54,0,0,0,1.33-.7q.98-.56,2.065-1.085a11.516,11.516,0,0,1,1.995-.77q.91-.245,1.12.175.28.49-.35,1.05a6.792,6.792,0,0,1-1.575,1.015q-.945.455-1.925.84t-1.26.525q-1.54.77-3.115,1.505a12.541,12.541,0,0,1-3.255,1.015,1.909,1.909,0,0,1-2.03-.63,3.773,3.773,0,0,1-.56-2.135,11.341,11.341,0,0,1,.385-2.8q.385-1.505.805-2.765-1.61.63-3.15,1.155a28.04,28.04,0,0,0-3.01,1.225q-1.26.56-2.52,1.26a1.063,1.063,0,0,1-1.225-.385q-.455-.595.385-1.015Zm8.19-14.14a4.067,4.067,0,0,1,1.085-1.575,6.491,6.491,0,0,1,1.645-1.085,10.41,10.41,0,0,1,1.925-.665q1.015-.245,1.925-.385a25.182,25.182,0,0,1,4.97.21,3.707,3.707,0,0,1,.945.14.619.619,0,0,1,.455.77,1.046,1.046,0,0,1-.35.6.7.7,0,0,1-.63.175,16.869,16.869,0,0,0-4.235-.315,7.53,7.53,0,0,0-3.955,1.3,2.274,2.274,0,0,0-.98,1.12,2.548,2.548,0,0,1-.84,1.12,1.1,1.1,0,0,1-1.47,0A1.15,1.15,0,0,1,130.73,29.48Zm6.09,17.5q1.47-.77,2.9-1.54t3.115-1.75a3.382,3.382,0,0,1,.8-2.52,2.768,2.768,0,0,1,2.415-1.12,1.418,1.418,0,0,1,1.26.98,1.7,1.7,0,0,1-.28,1.61,4.694,4.694,0,0,1-1.47,1.4,2.363,2.363,0,0,0,1.19.28,6.423,6.423,0,0,0,3.08-.525,20.552,20.552,0,0,0,2.87-1.435q1.26-.42,1.61.28a1.668,1.668,0,0,1-.28,1.68q-.35.56-.805,1.435a13.287,13.287,0,0,0-.77,1.785,6.13,6.13,0,0,0-.35,1.75,1.582,1.582,0,0,0,.525,1.33q.35.42,1.855,0t4.025-1.4q.84-.35,1.715-.805t1.785-.875a3.829,3.829,0,0,0,.63-.315,3.372,3.372,0,0,1,.8-.35,1.19,1.19,0,0,1,.7,0q.315.1.315.735a.829.829,0,0,1-.315.63,3.757,3.757,0,0,1-.7.49,4.94,4.94,0,0,1-.8.35l-.63.21-2.94,1.33-1.925,1.05a16.051,16.051,0,0,1-2.345,1.05,6.922,6.922,0,0,1-2.31.42,2.012,2.012,0,0,1-1.75-.91,2.3,2.3,0,0,1-.42-1.085,4.074,4.074,0,0,1,.035-1.19,10.972,10.972,0,0,1,.28-1.19q.175-.6.315-1.155l.56-2.31q-.35.07-1.435.35a14.058,14.058,0,0,1-2.345.385A11.858,11.858,0,0,1,145.325,46a2.353,2.353,0,0,1-1.715-.91l-.595.315q-.6.315-1.365.735t-1.575.91q-.805.49-1.295.77a4.1,4.1,0,0,0-.98.525.825.825,0,0,1-.98.1.878.878,0,0,1-.42-.77A.724.724,0,0,1,136.82,46.98Zm67.9-5.6a21.593,21.593,0,0,0,6.58-3.92,26.513,26.513,0,0,0,5.04-5.74,15.214,15.214,0,0,0,1.68-3.185,8.069,8.069,0,0,0,.56-3.6,4.45,4.45,0,0,0-1.68-3.08,4.788,4.788,0,0,0-3.29-1.12,9.982,9.982,0,0,0-3.675.7,20.987,20.987,0,0,0-3.465,1.75,28.411,28.411,0,0,0-3.185,2.31q-1.505,1.26-2.765,2.45a48.4,48.4,0,0,0-5.005,5.705,67.833,67.833,0,0,0-4.165,6.265q-.91,1.61-1.855,3.36a32.263,32.263,0,0,0-1.68,3.64,25.529,25.529,0,0,0-1.155,3.815,11.717,11.717,0,0,0-.21,3.815,3.718,3.718,0,0,0,1.645,3.01,5.531,5.531,0,0,0,3.115.665,11.913,11.913,0,0,0,3.57-.805,19.078,19.078,0,0,0,3.08-1.47,57.3,57.3,0,0,0,6.125-4.2,22.25,22.25,0,0,0,5.005-5.39,1.576,1.576,0,0,1,.91-.385,1.4,1.4,0,0,1,.875.21,1.077,1.077,0,0,1,.49.665,1.286,1.286,0,0,1-.245.98,6.371,6.371,0,0,1-.7.98q-.42.49-.77.91-1.54,2.17-3.01,4.27t-3.08,4.13q4.2-2.52,8.4-4.9t8.61-4.76q.21-.14.91-.56a9.8,9.8,0,0,1,1.4-.7,2.852,2.852,0,0,1,1.225-.245q.525.035.525.735a.965.965,0,0,1-.63.875l-1.05.525-3.01,1.54q-2.87,1.61-5.67,3.255T208.5,57.13q-2.03,1.12-3.99,2.31l-3.92,2.38q-1.19,1.47-2.415,2.835T195.62,67.35q-.84.84-1.82,1.68a21.121,21.121,0,0,1-2.03,1.54,11.69,11.69,0,0,1-2.205,1.155,6.53,6.53,0,0,1-2.415.455q-1.19,0-1.19-1.54a2.165,2.165,0,0,1,1.085-1.75q1.085-.77,1.715-1.19,2.31-1.82,4.865-3.465t5.635-3.6q1.4-1.68,2.8-3.5t2.66-3.71q-1.4.98-2.73,1.925t-2.73,1.785q-1.4.77-3.115,1.68a18.737,18.737,0,0,1-3.5,1.435,9.187,9.187,0,0,1-3.535.35,5.1,5.1,0,0,1-3.15-1.575,5.314,5.314,0,0,1-1.575-3.08,11.958,11.958,0,0,1,.07-3.64,19.818,19.818,0,0,1,1.015-3.745q.7-1.855,1.33-3.255a57.815,57.815,0,0,1,3.71-7.035,74.418,74.418,0,0,1,4.55-6.545,53.134,53.134,0,0,1,5.075-5.705,45.2,45.2,0,0,1,5.915-4.865,27.768,27.768,0,0,1,2.87-1.575,13.158,13.158,0,0,1,3.15-1.05,9.956,9.956,0,0,1,3.22-.1,6.014,6.014,0,0,1,3.01,1.33,5.788,5.788,0,0,1,1.96,2.695,7.907,7.907,0,0,1,.35,3.15,10.914,10.914,0,0,1-.8,3.255,22.637,22.637,0,0,1-1.505,3.01,32.628,32.628,0,0,1-4.655,5.845A35.266,35.266,0,0,1,207.8,42.43q-.28.21-.665.49a7.352,7.352,0,0,1-.84.525,3.8,3.8,0,0,1-.875.35,1.185,1.185,0,0,1-.84-.1,1.075,1.075,0,0,1-.7-1.155A1.327,1.327,0,0,1,204.72,41.38ZM192.19,67.14q-.63.35-1.575.945A17.061,17.061,0,0,0,188.9,69.31a11.923,11.923,0,0,0,3.5-1.96q.56-.42,1.155-.875t1.155-.945Zm30.94-20.09q.84-.42,2.135-1.085t2.765-1.3q1.47-.63,2.835-1.19t2.275-.91q.49-.21,1.75-.63t2.66-.77a20.443,20.443,0,0,1,2.625-.49,2.856,2.856,0,0,1,1.785.21q.84.77.315,1.4a2.145,2.145,0,0,1-1.295.77l-3.15.35a7.3,7.3,0,0,0-1.645.665q-.665.385-1.505.945-.35.28-1.225,1.155t-1.715,1.89a11.206,11.206,0,0,0-1.33,1.96q-.49.945,0,1.365a1.578,1.578,0,0,0,1.365.14,10.888,10.888,0,0,0,1.925-.63q.98-.42,1.82-.875a10.673,10.673,0,0,0,1.12-.665,15.113,15.113,0,0,0,3.29-2.66.924.924,0,0,1,1.365-.175,1.181,1.181,0,0,1,.455,1.435,1.908,1.908,0,0,1-.49.84l-.665.665a2.422,2.422,0,0,0-.525.875q-.28.49-.14.735a.68.68,0,0,0,.49.315,7.66,7.66,0,0,0,2.45-.14,27.739,27.739,0,0,0,3.045-.77,31.332,31.332,0,0,0,3.115-1.155q1.54-.665,2.66-1.225a2.888,2.888,0,0,0,.77-.385,5.986,5.986,0,0,1,1.015-.525,2.727,2.727,0,0,1,1.015-.21.724.724,0,0,1,.7.42.572.572,0,0,1-.035.77,2.51,2.51,0,0,1-.875.6q-.56.245-1.12.455t-.84.35q-1.19.56-2.38,1.085t-2.45,1.085q-.84.35-1.82.84a15.477,15.477,0,0,1-2.03.84,11.316,11.316,0,0,1-2.135.49,4.039,4.039,0,0,1-2-.21,2.09,2.09,0,0,1-1.4-1.365,3.6,3.6,0,0,1,.07-1.855l-1.89,1.12q-1.19.7-2.485,1.435a6.782,6.782,0,0,1-2.695.875,3.66,3.66,0,0,1-2.24-.56,2.321,2.321,0,0,1-1.05-1.96,4.145,4.145,0,0,1,.56-1.785,15.555,15.555,0,0,1,1.435-2.24,16.748,16.748,0,0,1,1.925-2.135,9.716,9.716,0,0,1,1.96-1.47,13.289,13.289,0,0,0-1.575.63q-1.085.49-2.45,1.19t-2.87,1.435q-1.5.735-2.765,1.365a.842.842,0,0,1-.7.1.956.956,0,0,1-.525-.35.782.782,0,0,1-.14-.56A.707.707,0,0,1,223.13,47.05Zm31.01-.07a46.745,46.745,0,0,0,6.72-3.64,65.528,65.528,0,0,0,6.16-4.55q.98-1.82,2.065-3.605t2.205-3.6a61.438,61.438,0,0,1,4.41-6.3q.98-1.26,2.24-2.66a5.81,5.81,0,0,1,2.87-1.82,2.87,2.87,0,0,1,1.26,0,1.459,1.459,0,0,1,.98.77,1.82,1.82,0,0,1,.21,1.3,5.12,5.12,0,0,1-.49,1.33,8.872,8.872,0,0,1-.8,1.26q-.455.6-.8,1.085-3.08,3.57-6.2,6.895A70.959,70.959,0,0,1,268.28,39.7l-1.4,3.15q-.21.49-.735,1.785T265.2,47.33a11.446,11.446,0,0,0-.49,2.625q-.07,1.225.63,1.5a5.093,5.093,0,0,0,2.8-.805,10.4,10.4,0,0,0,2.24-1.925,1.5,1.5,0,0,1,.28-.35,2.909,2.909,0,0,0,.42-.56,4.874,4.874,0,0,1-.315-2.8,5.08,5.08,0,0,1,1.155-2.59,1.959,1.959,0,0,1,1.925-.945q1.085.175,1.085,1.785a5.777,5.777,0,0,1-.56,2.415,12.91,12.91,0,0,1-1.33,2.275,2.626,2.626,0,0,0,.28.245,1.226,1.226,0,0,0,.35.175,3.575,3.575,0,0,0,1.645.315,5.418,5.418,0,0,0,1.645-.315,7.119,7.119,0,0,0,1.925-.875,3.805,3.805,0,0,1,1.925-.665.723.723,0,0,1,.8.665.813.813,0,0,1-.455.945,28.5,28.5,0,0,1-3.22,1.26,10.4,10.4,0,0,1-3.08.525,4.12,4.12,0,0,1-2.8-.945,23.058,23.058,0,0,1-2.45,2.625,8.579,8.579,0,0,1-3.01,1.855,4.1,4.1,0,0,1-2.31.035,2.408,2.408,0,0,1-1.61-1.575,5.139,5.139,0,0,1,.035-3.4q.6-1.785,1.225-3.255.35-.84.735-1.75t.805-1.82q-1.4.98-2.87,1.96t-2.87,1.89l-4.34,2.38a5.815,5.815,0,0,0-.665.315.563.563,0,0,1-.665-.1.8.8,0,0,1-.385-.77A.792.792,0,0,1,254.14,46.98Zm22.47-17.5q1.12-1.33,2.2-2.765A10.8,10.8,0,0,0,280.46,23.6a7.331,7.331,0,0,0-1.12.875q-.56.525-.98.875-1.19,1.19-2.275,2.45t-2.065,2.59q-1.05,1.4-1.925,2.8t-1.785,2.87q1.61-1.54,3.185-3.22T276.61,29.48Zm3.29,17.57q.84-.42,2.135-1.085t2.765-1.3q1.47-.63,2.835-1.19t2.275-.91q.49-.21,1.75-.63t2.66-.77a20.442,20.442,0,0,1,2.625-.49,2.856,2.856,0,0,1,1.785.21q.84.77.315,1.4a2.145,2.145,0,0,1-1.3.77l-3.15.35a7.3,7.3,0,0,0-1.645.665q-.665.385-1.5.945-.35.28-1.225,1.155t-1.715,1.89a11.208,11.208,0,0,0-1.33,1.96q-.49.945,0,1.365a1.578,1.578,0,0,0,1.365.14,10.889,10.889,0,0,0,1.925-.63q.98-.42,1.82-.875a10.675,10.675,0,0,0,1.12-.665,15.113,15.113,0,0,0,3.29-2.66.924.924,0,0,1,1.365-.175,1.181,1.181,0,0,1,.455,1.435,1.908,1.908,0,0,1-.49.84l-.665.665a2.422,2.422,0,0,0-.525.875q-.28.49-.14.735a.68.68,0,0,0,.49.315,7.66,7.66,0,0,0,2.45-.14,27.737,27.737,0,0,0,3.045-.77,31.328,31.328,0,0,0,3.115-1.155q1.54-.665,2.66-1.225a2.888,2.888,0,0,0,.77-.385,5.984,5.984,0,0,1,1.015-.525,2.727,2.727,0,0,1,1.015-.21.724.724,0,0,1,.7.42.572.572,0,0,1-.035.77,2.509,2.509,0,0,1-.875.6q-.56.245-1.12.455t-.84.35q-1.19.56-2.38,1.085t-2.45,1.085q-.84.35-1.82.84a15.479,15.479,0,0,1-2.03.84,11.316,11.316,0,0,1-2.135.49,4.039,4.039,0,0,1-1.995-.21,2.09,2.09,0,0,1-1.4-1.365,3.6,3.6,0,0,1,.07-1.855l-1.89,1.12q-1.19.7-2.485,1.435a6.783,6.783,0,0,1-2.7.875,3.66,3.66,0,0,1-2.24-.56,2.321,2.321,0,0,1-1.05-1.96,4.145,4.145,0,0,1,.56-1.785,15.553,15.553,0,0,1,1.435-2.24,16.748,16.748,0,0,1,1.925-2.135,9.716,9.716,0,0,1,1.96-1.47,13.293,13.293,0,0,0-1.575.63q-1.085.49-2.45,1.19t-2.87,1.435q-1.5.735-2.765,1.365a.842.842,0,0,1-.7.1.956.956,0,0,1-.525-.35.782.782,0,0,1-.14-.56A.707.707,0,0,1,279.9,47.05Zm30.87-.07a44.578,44.578,0,0,0,4.2-2.17q2.03-1.19,4.06-2.59a37.748,37.748,0,0,1,2.17-3.78q1.19-1.82,2.31-3.57,1.19-1.61,2.38-3.255t2.45-3.255q1.05-1.4,2.275-2.835a10.5,10.5,0,0,1,2.835-2.345,5.812,5.812,0,0,1,1.89-.6,1.3,1.3,0,0,1,1.54,1.015,2.227,2.227,0,0,1,.035,1.5,6.184,6.184,0,0,1-.735,1.47,15.633,15.633,0,0,1-1.05,1.4q-.56.665-.91,1.155a56.094,56.094,0,0,1-6.265,7.455,65.332,65.332,0,0,1-7.455,6.4q-.35.84-.805,1.785a16.95,16.95,0,0,0-.8,1.995,11.5,11.5,0,0,0-.49,2.065,5.287,5.287,0,0,0,.07,1.925q.77-.14,1.4-.21.56-.07,1.05-.1a2.072,2.072,0,0,0,.63-.1,31.766,31.766,0,0,0,4.13-1.12q2.03-.7,3.99-1.54a5.855,5.855,0,0,0,1.33-.56,1.256,1.256,0,0,1,1.33-.07q.77.56.21,1.015a4.551,4.551,0,0,1-1.05.665l-8.12,3.01q-1.19.42-2.31.875a7.226,7.226,0,0,1-2.31.525,2.273,2.273,0,0,1-1.68-.315,2.351,2.351,0,0,1-.875-1.19,4.032,4.032,0,0,1-.175-1.61,8.961,8.961,0,0,1,.28-1.645,24.586,24.586,0,0,1,1.26-3.36,54.271,54.271,0,0,1-6.02,3.43,1.092,1.092,0,0,1-1.155-.455Q309.93,47.4,310.77,46.98Zm14.21-9.59A54.168,54.168,0,0,0,331,30.74a23.766,23.766,0,0,0,2.38-3.36,9.221,9.221,0,0,1,.42-.875,9.068,9.068,0,0,0,.49-1.085,7.575,7.575,0,0,0-1.855,1.33q-.875.84-1.435,1.4a37.7,37.7,0,0,0-3.01,3.395q-1.4,1.785-2.8,3.675-.77,1.12-1.47,2.2t-1.33,2.205q.63-.49,1.3-1.085T324.98,37.39Zm6.37,9.59a44.578,44.578,0,0,0,4.2-2.17q2.03-1.19,4.06-2.59a37.748,37.748,0,0,1,2.17-3.78q1.19-1.82,2.31-3.57,1.19-1.61,2.38-3.255t2.45-3.255q1.05-1.4,2.275-2.835a10.5,10.5,0,0,1,2.835-2.345,5.812,5.812,0,0,1,1.89-.6,1.3,1.3,0,0,1,1.54,1.015,2.227,2.227,0,0,1,.035,1.5,6.184,6.184,0,0,1-.735,1.47,15.633,15.633,0,0,1-1.05,1.4q-.56.665-.91,1.155a56.094,56.094,0,0,1-6.265,7.455,65.332,65.332,0,0,1-7.455,6.4q-.35.84-.805,1.785a16.95,16.95,0,0,0-.8,1.995,11.5,11.5,0,0,0-.49,2.065,5.287,5.287,0,0,0,.07,1.925q.77-.14,1.4-.21.56-.07,1.05-.1a2.072,2.072,0,0,0,.63-.1,31.766,31.766,0,0,0,4.13-1.12q2.03-.7,3.99-1.54a5.855,5.855,0,0,0,1.33-.56,1.256,1.256,0,0,1,1.33-.07q.77.56.21,1.015a4.551,4.551,0,0,1-1.05.665l-8.12,3.01q-1.19.42-2.31.875a7.226,7.226,0,0,1-2.31.525,2.273,2.273,0,0,1-1.68-.315,2.351,2.351,0,0,1-.875-1.19,4.032,4.032,0,0,1-.175-1.61,8.961,8.961,0,0,1,.28-1.645,24.586,24.586,0,0,1,1.26-3.36,54.271,54.271,0,0,1-6.02,3.43,1.092,1.092,0,0,1-1.155-.455Q330.51,47.4,331.35,46.98Zm14.21-9.59a54.168,54.168,0,0,0,6.02-6.65,23.766,23.766,0,0,0,2.38-3.36,9.221,9.221,0,0,1,.42-.875,9.068,9.068,0,0,0,.49-1.085,7.575,7.575,0,0,0-1.855,1.33q-.875.84-1.435,1.4a37.7,37.7,0,0,0-3.01,3.395q-1.4,1.785-2.8,3.675-.77,1.12-1.47,2.2t-1.33,2.205q.63-.49,1.3-1.085T345.56,37.39Zm6.3,9.66q.84-.42,2.135-1.085t2.765-1.3q1.47-.63,2.835-1.19t2.275-.91q.49-.21,1.75-.63t2.66-.77a20.442,20.442,0,0,1,2.625-.49,2.856,2.856,0,0,1,1.785.21q.84.77.315,1.4a2.145,2.145,0,0,1-1.3.77l-3.15.35a7.3,7.3,0,0,0-1.645.665q-.665.385-1.5.945-.35.28-1.225,1.155t-1.715,1.89a11.208,11.208,0,0,0-1.33,1.96q-.49.945,0,1.365a1.578,1.578,0,0,0,1.365.14,10.889,10.889,0,0,0,1.925-.63q.98-.42,1.82-.875a10.675,10.675,0,0,0,1.12-.665,15.113,15.113,0,0,0,3.29-2.66.924.924,0,0,1,1.365-.175,1.181,1.181,0,0,1,.455,1.435,1.908,1.908,0,0,1-.49.84l-.665.665a2.422,2.422,0,0,0-.525.875q-.28.49-.14.735a.68.68,0,0,0,.49.315,7.66,7.66,0,0,0,2.45-.14,27.741,27.741,0,0,0,3.045-.77,31.328,31.328,0,0,0,3.115-1.155q1.54-.665,2.66-1.225a2.888,2.888,0,0,0,.77-.385,5.984,5.984,0,0,1,1.015-.525,2.727,2.727,0,0,1,1.015-.21.724.724,0,0,1,.7.42.572.572,0,0,1-.035.77,2.51,2.51,0,0,1-.875.6q-.56.245-1.12.455t-.84.35q-1.19.56-2.38,1.085t-2.45,1.085q-.84.35-1.82.84a15.479,15.479,0,0,1-2.03.84,11.316,11.316,0,0,1-2.135.49,4.039,4.039,0,0,1-1.995-.21,2.09,2.09,0,0,1-1.4-1.365,3.6,3.6,0,0,1,.07-1.855l-1.89,1.12q-1.19.7-2.485,1.435a6.783,6.783,0,0,1-2.7.875,3.66,3.66,0,0,1-2.24-.56,2.321,2.321,0,0,1-1.05-1.96,4.145,4.145,0,0,1,.56-1.785,15.553,15.553,0,0,1,1.435-2.24,16.748,16.748,0,0,1,1.925-2.135,9.716,9.716,0,0,1,1.96-1.47,13.293,13.293,0,0,0-1.575.63q-1.085.49-2.45,1.19t-2.87,1.435q-1.5.735-2.765,1.365a.842.842,0,0,1-.7.1.956.956,0,0,1-.525-.35.782.782,0,0,1-.14-.56A.707.707,0,0,1,351.86,47.05Zm31.01-.07q4.41-2.1,8.54-4.55a37.635,37.635,0,0,0,7.14-5.39l2.52-4.55q1.19-2.03,2.59-4.165a12.218,12.218,0,0,1,3.36-3.465,8.626,8.626,0,0,1,1.4-.595,5.252,5.252,0,0,1,1.715-.315,1.7,1.7,0,0,1,1.26.455q.455.455.035,1.715a6.882,6.882,0,0,1-1.015,1.855,19.778,19.778,0,0,1-1.47,1.715q-.8.84-1.645,1.575a17.332,17.332,0,0,0-1.47,1.435q-1.47,1.4-3.01,2.8t-3.15,2.66q-.42.77-.8,1.505t-.735,1.5l-1.26,2.38q-.63,1.19-1.4,2.38,2.17-1.26,4.445-2.345t4.515-2.065a8.373,8.373,0,0,1,1.785-.7,3.623,3.623,0,0,1,1.995,0,1.91,1.91,0,0,1,1.33,1.33,2.459,2.459,0,0,1-.28,1.96,9.732,9.732,0,0,1-1.085,1.68q-.665.84-1.365,1.715a11.072,11.072,0,0,0-1.19,1.82,4.011,4.011,0,0,0-.49,1.855,13.34,13.34,0,0,0,3.815-1.085q1.995-.875,3.605-1.715.56-.28,1.295-.735a7.632,7.632,0,0,1,1.3-.665.691.691,0,0,1,.665-.07,1.168,1.168,0,0,1,.49.385.845.845,0,0,1,.14.6.716.716,0,0,1-.455.56,33.7,33.7,0,0,1-3.15,1.645,33.692,33.692,0,0,0-3.15,1.645q-.63.35-1.47.84a8.607,8.607,0,0,1-1.715.77,4.513,4.513,0,0,1-1.75.21,2.122,2.122,0,0,1-1.5-.84,1.964,1.964,0,0,1-.455-1.33,3.582,3.582,0,0,1,.35-1.365,8.228,8.228,0,0,1,.77-1.3q.455-.63.805-1.12.77-.98,1.505-2.1a5.317,5.317,0,0,0,.875-2.31,3.713,3.713,0,0,0-1.225.07,10.992,10.992,0,0,0-1.365.385q-.7.245-1.365.525a10.455,10.455,0,0,1-1.155.42q-1.54.7-2.975,1.505T396.17,47.82q-2.24,1.61-3.15,2.415t-1.33,1.155a1.927,1.927,0,0,1-.8.49,1.133,1.133,0,0,1-1.015-.28,1.09,1.09,0,0,1-.49-.945,1.79,1.79,0,0,1,.42-.875,40.522,40.522,0,0,0,3.745-4.48,49.48,49.48,0,0,0,3.115-4.9q-1.89,1.47-3.815,2.73t-3.885,2.45q-1.19.77-2.345,1.4t-2.345,1.26q-.35.14-.735.315a.662.662,0,0,1-.735-.1.932.932,0,0,1-.35-.77A.724.724,0,0,1,382.87,46.98Zm22.19-15.89q.91-.91,1.855-1.96a10.372,10.372,0,0,0,1.575-2.31,9.407,9.407,0,0,0-2.87,2.135,26.446,26.446,0,0,0-2.24,2.765l-1.47,2.45q.77-.77,1.575-1.54T405.06,31.09Z" transform="translate(6723 1369)"/></svg>