<svg xmlns="http://www.w3.org/2000/svg" viewBox="-16236.028 1636.474 60.525 60.526"><defs><style>.a{fill:#231f20;}</style></defs><g transform="translate(-16236.028 1636.474)"><path class="a" d="M30.263-.4A30.263,30.263,0,1,0,60.526,29.863,30.263,30.263,0,0,0,30.263-.4Zm0,56.624A26.355,26.355,0,1,1,56.617,29.869,26.353,26.353,0,0,1,30.263,56.224Z" transform="translate(0 0.4)"/><path class="a" d="M290.5,352.719a18.128,18.128,0,0,0,9.826,2.88c11.9,0,18.628-10.055,18.223-19.07a12.955,12.955,0,0,0,3.2-3.321,12.945,12.945,0,0,1-3.678,1.01,6.425,6.425,0,0,0,2.819-3.545,12.858,12.858,0,0,1-4.072,1.555,6.415,6.415,0,0,0-10.927,5.845,18.2,18.2,0,0,1-13.214-6.7,6.419,6.419,0,0,0,1.984,8.561,6.3,6.3,0,0,1-2.9-.8,6.414,6.414,0,0,0,5.143,6.365,6.356,6.356,0,0,1-2.892.109,6.421,6.421,0,0,0,5.99,4.453A12.858,12.858,0,0,1,290.5,352.719Z" transform="translate(-274.805 -310.198)"/></g></svg>