<svg xmlns="http://www.w3.org/2000/svg" viewBox="-17843.457 334.822 32.178 32.178"><defs><style>.a{fill:#fff;}</style></defs><g transform="translate(-17843.457 334.822)"><path class="a" d="M16.089-.4A16.089,16.089,0,1,0,32.178,15.689,16.089,16.089,0,0,0,16.089-.4Zm0,30.1A14.011,14.011,0,1,1,30.1,15.692,14.01,14.01,0,0,1,16.089,29.7Z" transform="translate(0 0.4)"/><path class="a" d="M290.5,342.172a9.694,9.694,0,0,0,14.912-8.607,6.888,6.888,0,0,0,1.7-1.766,6.882,6.882,0,0,1-1.956.537,3.416,3.416,0,0,0,1.5-1.885,6.836,6.836,0,0,1-2.165.827,3.41,3.41,0,0,0-5.809,3.107,9.674,9.674,0,0,1-7.025-3.561,3.413,3.413,0,0,0,1.055,4.551,3.35,3.35,0,0,1-1.544-.428,3.41,3.41,0,0,0,2.734,3.384,3.378,3.378,0,0,1-1.538.058,3.414,3.414,0,0,0,3.184,2.367A6.836,6.836,0,0,1,290.5,342.172Z" transform="translate(-282.156 -319.566)"/></g></svg>