<svg xmlns="http://www.w3.org/2000/svg" xmlns:xlink="http://www.w3.org/1999/xlink" viewBox="-6778.217 1927.004 70 70"><defs><style>.a{fill:#fff;stroke:#707070;}.b{clip-path:url(#a);}.c{fill:#231f20;}</style><clipPath id="a"><rect class="a" width="70" height="70" transform="translate(0 0)"/></clipPath></defs><g class="b" transform="translate(-6778.217 1927.004)"><g transform="translate(0 0.006)"><g transform="translate(0 0)"><path class="c" d="M69.309,28.783a44.1,44.1,0,0,0-3.9-11.1c-.5-.881-1-1.686-1.539-2.462a1.143,1.143,0,0,0-.084-.094A34.766,34.766,0,0,0,52.316,4.6l0,0-.008,0h0A35.074,35.074,0,0,0,25.856,1.214c-.023.006-.042.022-.065.03A34.983,34.983,0,0,0,4.374,18.036l0,0,0,.006,0,.005v0a32.558,32.558,0,0,0-2.3,5.069,1.213,1.213,0,0,0-.055.129A34.078,34.078,0,0,0,.014,34.041h0v.016a34.8,34.8,0,0,0,7.028,22c.021.034.042.068.066.1.3.41.616.806,1.015,1.255l0,0a28.957,28.957,0,0,0,2.115,2.336A34.568,34.568,0,0,0,34.894,70c.16,0,.32,0,.479,0h0a34.75,34.75,0,0,0,15.965-4.036l.009-.008a2.771,2.771,0,0,0,.368-.2l.015-.008a35.169,35.169,0,0,0,15.9-18.1c.009-.022.012-.047.019-.07A34.68,34.68,0,0,0,70,35,36.211,36.211,0,0,0,69.309,28.783ZM50.058,6.888c.466-.036.93-.079,1.4-.1A31.894,31.894,0,0,1,58.088,11.9a32.494,32.494,0,0,1,2.531,2.846c-.1,0-.186.021-.282.026-.743.044-1.484.109-2.236.208l-.222.034c-.495.076-1,.154-1.491.248-.029.005-.053.02-.081.028-.506.1-1.009.213-1.506.34-.8.2-1.587.45-2.364.719a29.784,29.784,0,0,0-7.865,4.112h0q-.879.645-1.7,1.348c-.18.153-.346.318-.522.475-.362.323-.726.644-1.071.983-.2.2-.388.408-.583.61-.3.314-.607.625-.895.952-.2.227-.385.465-.578.7-.264.319-.531.635-.782.964-.189.249-.365.508-.546.763-.233.328-.469.653-.689.99-.175.268-.336.545-.5.819-.206.339-.413.676-.606,1.023-.157.283-.3.574-.45.863-.18.351-.36.7-.527,1.061-.138.3-.264.6-.393.9-.1.242-.218.478-.314.724-.276.032-.551.062-.83.086-.181.015-.36.035-.542.047-.573.036-1.148.059-1.725.059-.851,0-1.694-.046-2.53-.121-.084-.008-.169-.011-.253-.02-.792-.078-1.574-.2-2.35-.343-.12-.023-.241-.043-.362-.068-.754-.153-1.5-.339-2.236-.556q-.195-.057-.389-.117-1.1-.341-2.171-.775l-.12-.051q.112-.472.237-.939c.115-.429.229-.858.36-1.279.144-.459.307-.908.469-1.358.148-.409.292-.819.455-1.219.181-.444.381-.875.58-1.308.178-.387.351-.777.543-1.155.216-.426.452-.838.686-1.252.206-.365.406-.734.625-1.089.251-.406.521-.8.789-1.19.232-.341.457-.688.7-1.02.283-.384.587-.751.886-1.121.257-.318.506-.643.774-.95.314-.361.649-.7.979-1.047.279-.293.549-.593.839-.875.347-.338.713-.653,1.075-.974.3-.264.584-.538.89-.791.38-.314.781-.6,1.175-.9.31-.233.61-.478.928-.7.42-.293.859-.558,1.292-.83.314-.2.618-.409.938-.6.482-.281.983-.53,1.479-.786.291-.15.572-.316.868-.457.728-.348,1.473-.662,2.229-.956.212-.082.428-.157.642-.235.7-.255,1.4-.5,2.125-.708.333-.1.676-.163,1.013-.249.54-.137,1.076-.283,1.625-.393.382-.076.773-.123,1.16-.186.517-.085,1.03-.179,1.555-.24C49.228,6.937,49.645,6.92,50.058,6.888ZM18.5,9.718c.216-.23.442-.451.665-.675.18-.181.355-.366.539-.543.242-.232.494-.453.743-.678.176-.159.347-.323.527-.478.292-.252.595-.492.9-.734.147-.118.288-.241.436-.356q.681-.528,1.393-1.022c.082-.057.168-.108.25-.164.4-.269.8-.535,1.205-.788.166-.1.34-.2.508-.3.32-.19.64-.381.968-.561A32.8,32.8,0,0,1,47.451,4.8c-.343.05-.678.128-1.018.188-.364.064-.728.126-1.088.2-.588.123-1.167.27-1.744.422-.322.085-.647.16-.966.254-.677.2-1.341.428-2,.666-.2.074-.416.135-.619.213Q38.733,7.24,37.5,7.828c-.215.1-.419.221-.632.327-.6.3-1.2.61-1.78.946-.295.17-.578.355-.868.534-.484.3-.965.6-1.433.921-.3.209-.6.428-.9.647-.435.319-.864.645-1.284.984-.295.238-.584.481-.87.729q-.607.524-1.188,1.077c-.273.259-.545.517-.809.785-.387.391-.759.8-1.127,1.206-.239.266-.483.527-.714.8-.392.464-.763.947-1.132,1.433-.182.24-.374.471-.549.716-.529.737-1.034,1.493-1.506,2.273-.053.088-.1.183-.151.271-.415.7-.809,1.414-1.176,2.146-.143.285-.267.58-.4.87-.258.551-.511,1.1-.741,1.673-.138.34-.26.687-.387,1.032-.2.538-.39,1.078-.563,1.629-.116.368-.221.74-.325,1.114-.079.283-.174.558-.246.844l-.04-.02c-.678-.35-1.336-.736-1.983-1.142-.132-.083-.264-.164-.394-.249q-.937-.61-1.823-1.294c-.112-.086-.22-.177-.33-.265-.575-.459-1.135-.936-1.671-1.44-.039-.037-.081-.071-.119-.108-.556-.528-1.083-1.086-1.592-1.659l-.169-.191q.07-.294.145-.586c.07-.272.14-.545.217-.814.082-.286.171-.569.261-.852.084-.267.167-.535.259-.8.1-.281.2-.558.306-.836.1-.26.193-.52.3-.777.112-.276.232-.548.351-.82.11-.253.219-.506.336-.756.126-.268.26-.532.393-.8.124-.246.245-.494.374-.737.139-.261.288-.516.434-.773.136-.239.269-.479.411-.715.154-.255.317-.5.478-.754.147-.228.29-.459.442-.683.169-.25.348-.492.524-.737.157-.218.31-.438.471-.652.183-.241.375-.475.565-.711.167-.208.33-.42.5-.624.2-.234.406-.46.61-.689C18.149,10.11,18.32,9.91,18.5,9.718ZM11.892,11.9a32.767,32.767,0,0,1,5.561-4.463c-.11.11-.21.229-.318.341q-.425.44-.833.894c-.182.2-.364.406-.541.613-.27.315-.532.637-.791.961-.161.2-.325.4-.481.607-.285.374-.557.756-.827,1.141-.115.164-.236.324-.348.49q-.557.826-1.068,1.684c-.082.138-.155.281-.235.42-.255.443-.5.889-.74,1.343-.113.218-.217.44-.325.66-.19.387-.377.776-.553,1.17-.107.241-.209.484-.311.728q-.243.58-.466,1.168c-.093.248-.185.5-.273.746-.144.409-.277.822-.406,1.237-.046.15-.1.3-.147.447-.317-.453-.635-.9-.925-1.376-.048-.078-.1-.152-.15-.231-.362-.6-.683-1.23-1-1.859A32.367,32.367,0,0,1,11.892,11.9ZM4.165,24.153a1.244,1.244,0,0,0,.059-.138A30.608,30.608,0,0,1,5.4,21.145c.045.079.1.155.143.234.2.339.4.672.614,1,.093.145.182.292.277.436.308.465.625.922.956,1.365s.685.888,1.035,1.3l0,0,.006.008,0,0q.534.639,1.1,1.249a29.866,29.866,0,0,0,8,6.066q.745.387,1.511.731h0a29.418,29.418,0,0,0,12.26,2.633c.617,0,1.233-.024,1.847-.062.222-.014.432-.037.65-.055.269-.023.541-.039.808-.069q.238.336.466.677c.132.2.269.395.4.6.22.349.425.706.628,1.064.1.174.205.345.3.521a27.4,27.4,0,0,1,1.523,3.338c.057.15.1.3.158.455.152.425.3.851.43,1.282.059.2.11.4.165.594.109.391.214.783.305,1.179.051.22.094.442.139.664.077.377.149.756.21,1.136.039.24.072.48.1.721.024.18.041.361.061.542-.277.079-.554.159-.833.231-.322.083-.644.169-.969.241-.467.1-.939.19-1.411.274-.31.055-.617.117-.929.163-.525.077-1.055.131-1.585.182-.265.026-.527.063-.793.082-.8.058-1.6.091-2.406.091q-1.095,0-2.179-.073c-.236-.016-.469-.049-.7-.07-.484-.043-.969-.082-1.448-.146-.288-.039-.57-.1-.856-.143-.422-.068-.846-.129-1.264-.213-.3-.061-.6-.142-.9-.212-.4-.092-.793-.175-1.183-.281-.305-.083-.6-.185-.907-.277-.377-.114-.758-.221-1.13-.348-.306-.1-.6-.228-.906-.342-.361-.136-.726-.264-1.081-.413-.3-.127-.6-.272-.9-.407-.345-.156-.693-.3-1.032-.473-.3-.149-.592-.316-.887-.474-.327-.175-.658-.342-.979-.528-.294-.17-.577-.357-.866-.536-.312-.194-.628-.38-.933-.584-.284-.19-.557-.4-.835-.6-.3-.212-.6-.418-.888-.64-.273-.209-.534-.434-.8-.652s-.567-.454-.841-.694-.507-.47-.76-.706-.537-.491-.8-.749-.475-.5-.712-.753c-.251-.267-.508-.53-.75-.806-.227-.258-.44-.53-.659-.8-.236-.287-.477-.569-.7-.864-.209-.273-.4-.559-.606-.839-.218-.3-.442-.6-.65-.918-.191-.286-.367-.584-.549-.877s-.352-.559-.518-.846A31.749,31.749,0,0,1,4.165,24.153ZM36.187,65.382c-.126.226-.257.448-.389.67-.123.206-.248.411-.377.613s-.278.426-.421.635c-.083.122-.168.242-.253.363a32.237,32.237,0,0,1-15.258-3.876c.073.024.148.042.221.066a35.032,35.032,0,0,0,3.821,1.015l.164.033a34.9,34.9,0,0,0,6.24.68H30c.191,0,.38.013.571.013.373,0,.743-.021,1.115-.033.2-.006.39-.008.585-.017.46-.023.916-.061,1.373-.1.256-.023.513-.04.769-.068.406-.045.809-.107,1.212-.167.233-.034.469-.057.7-.1C36.283,65.2,36.236,65.293,36.187,65.382Zm.681-2.754c-.257.052-.513.107-.772.152-.361.063-.726.113-1.09.164-.243.034-.486.073-.73.1-.406.047-.815.078-1.224.11-.206.016-.412.039-.619.051-.617.035-1.236.055-1.857.055q-1.426,0-2.839-.124c-.313-.027-.622-.086-.934-.123-.625-.073-1.252-.138-1.87-.246-.39-.069-.772-.173-1.158-.255-.532-.114-1.067-.212-1.592-.352-.413-.11-.814-.256-1.223-.382-.488-.151-.982-.285-1.462-.459-.4-.144-.784-.323-1.177-.482-.476-.193-.958-.371-1.424-.586-.379-.175-.741-.383-1.113-.573-.465-.237-.936-.459-1.389-.718-.347-.2-.677-.429-1.017-.64-.459-.285-.926-.558-1.371-.866-.317-.22-.614-.47-.924-.7-.44-.329-.888-.647-1.312-1-.25-.287-.482-.575-.7-.872a1.173,1.173,0,0,0-.091-.137A32.406,32.406,0,0,1,2.486,38.218c.044.06.093.115.138.175.162.215.333.422.5.634.288.365.577.727.878,1.078.189.221.384.435.578.651.3.328.594.652.9.968.206.213.416.421.628.628q.468.458.952.9c.217.2.435.393.656.584.337.291.682.572,1.029.849.219.175.436.352.659.521.38.289.77.565,1.162.838.2.14.4.286.6.421.52.347,1.051.677,1.589,1,.082.049.161.1.243.15q.937.544,1.907,1.029c.186.093.378.176.566.266.463.222.927.44,1.4.641.248.106.5.2.751.3.422.169.845.334,1.274.486.274.1.55.187.827.277.415.136.831.266,1.252.386q.43.123.864.235c.421.109.845.209,1.271.3.291.064.581.127.874.183.441.085.885.157,1.33.224.28.043.559.09.841.126.49.063.983.107,1.478.149.241.021.48.049.722.065.737.047,1.477.075,2.221.075.847,0,1.689-.036,2.527-.1.273-.02.543-.055.815-.081.565-.054,1.128-.113,1.688-.194.316-.046.629-.1.943-.157.515-.089,1.027-.186,1.536-.3q.481-.106.958-.226c.215-.054.434-.095.648-.153.007.254.016.5.016.775a27.4,27.4,0,0,1-1.638,9.361c-.145.4-.306.8-.468,1.188Q37.237,62.554,36.868,62.628ZM54,56.594c-.153.412-.295.828-.465,1.233-.144.342-.314.674-.471,1.011-.182.39-.353.784-.552,1.167-.176.34-.378.668-.568,1-.208.367-.407.738-.632,1.1-.21.336-.444.659-.668.987-.213.313-.419.63-.644.936a32.367,32.367,0,0,1-12.376,3.534c.058-.094.108-.195.165-.29q.309-.515.6-1.045c.1-.183.2-.364.3-.549.215-.416.417-.84.611-1.268.046-.1.1-.2.144-.3a1.174,1.174,0,0,0,.079-.146c.256-.569.5-1.189.754-1.891A29.639,29.639,0,0,0,41.93,54.52q.112-1.291.112-2.6c0-.87-.035-1.662-.107-2.4V49.5q-.08-1.012-.228-2.012c-.033-.223-.083-.443-.121-.666-.077-.449-.151-.9-.249-1.344-.058-.263-.133-.522-.2-.783-.1-.4-.193-.8-.308-1.191-.081-.277-.179-.548-.268-.823-.121-.372-.237-.745-.373-1.112-.1-.279-.221-.552-.333-.828-.143-.355-.283-.71-.44-1.059-.124-.277-.263-.548-.4-.821-.165-.339-.328-.68-.506-1.013-.145-.271-.3-.536-.456-.8-.187-.326-.373-.651-.573-.97-.165-.264-.342-.521-.515-.781-.145-.217-.279-.439-.431-.652q.162-.417.337-.826c.1-.24.2-.483.308-.72.18-.392.377-.774.574-1.156.1-.193.192-.391.3-.582q.457-.834.967-1.633l.019-.032c.349-.543.719-1.072,1.1-1.588.125-.168.262-.327.391-.492.268-.343.538-.684.822-1.014.165-.192.341-.374.511-.562.265-.29.53-.58.808-.859.191-.192.39-.377.586-.563.274-.26.55-.518.836-.767.21-.184.426-.362.642-.539.161-.132.326-.259.49-.388.1.085.2.169.3.256q.314.275.619.558t.624.594q.294.288.58.582.3.312.593.631c.182.2.363.4.539.6.19.219.375.442.558.666.169.206.336.413.5.624.178.23.351.464.522.7.156.213.31.426.46.643.166.24.325.484.484.728.142.219.285.439.422.662.153.25.3.5.445.759.129.224.258.448.381.676.14.26.272.524.4.788.115.229.232.458.341.69.127.269.244.543.363.816.1.233.205.465.3.7.113.279.216.561.32.843.088.236.178.471.26.71.1.288.186.579.276.87.074.238.151.475.219.715.084.3.157.6.232.9.059.237.123.473.177.712.07.314.128.632.188.949.044.231.094.46.132.692.056.333.1.67.142,1.007.029.22.065.439.09.66.041.375.067.753.095,1.131.014.185.035.368.045.554q.047.848.047,1.7,0,1.234-.1,2.451c-.022.281-.069.557-.1.836-.056.527-.106,1.056-.189,1.577-.051.32-.128.632-.189.949-.091.474-.173.95-.286,1.417-.081.336-.189.663-.282.995-.123.44-.235.883-.378,1.316C54.26,55.922,54.121,56.255,54,56.594Zm11.423-9.681A32.393,32.393,0,0,1,58.088,58.1h0a33,33,0,0,1-3.559,3.084l0-.008.012-.024c.36-.689.686-1.392.994-2.1.092-.211.176-.425.263-.638q.33-.808.616-1.632c.075-.216.152-.431.223-.649.241-.745.463-1.5.649-2.258l0-.01c.185-.757.334-1.525.464-2.3.039-.23.07-.461.1-.692q.127-.866.208-1.743c.022-.234.046-.467.063-.7.057-.793.094-1.59.094-2.393q0-.912-.051-1.816c-.011-.2-.033-.4-.048-.6-.029-.4-.057-.8-.1-1.2-.026-.239-.064-.476-.1-.714-.047-.355-.091-.71-.149-1.062-.042-.253-.094-.5-.142-.756-.063-.332-.124-.665-.2-.994-.058-.26-.125-.517-.188-.775-.078-.317-.156-.634-.243-.948-.073-.261-.154-.519-.233-.778-.094-.306-.187-.611-.29-.914-.088-.26-.183-.516-.277-.774-.109-.3-.219-.592-.336-.885-.1-.256-.211-.51-.32-.763-.124-.287-.25-.573-.381-.857-.117-.252-.239-.5-.362-.75q-.208-.419-.427-.832-.2-.367-.4-.729-.232-.409-.475-.81c-.143-.236-.288-.471-.437-.7-.17-.265-.345-.527-.523-.787-.155-.228-.311-.454-.473-.678-.186-.259-.379-.513-.573-.766-.166-.216-.331-.433-.5-.645-.2-.253-.416-.5-.628-.748-.175-.2-.348-.409-.528-.609-.224-.249-.457-.491-.689-.734-.18-.188-.358-.379-.543-.563-.25-.249-.51-.49-.769-.732-.18-.168-.356-.339-.541-.5-.042-.037-.081-.077-.122-.114l.008-.006c.625-.408,1.267-.779,1.917-1.132.126-.069.252-.139.379-.205q.953-.5,1.939-.919c.121-.052.243-.1.365-.148.669-.274,1.345-.527,2.035-.747l.073-.025c.7-.222,1.42-.407,2.144-.572l.228-.051c.4.364.8.728,1.181,1.114.047.047.09.1.136.145q.659.678,1.273,1.4c.084.1.167.2.249.3a29.859,29.859,0,0,1,2.522,3.515c.344.546.667,1.1.972,1.668.029.053.058.107.086.16.254.477.489.963.716,1.453.056.121.116.239.17.361q.362.813.672,1.647c.055.146.1.3.156.442.182.512.356,1.027.508,1.551l.046.158c.1.337.2.692.293,1.062.035.137.066.276.1.414.093.4.185.8.27,1.25.088.428.162.859.229,1.292.041.274.075.55.109.826.025.2.054.4.075.607.032.31.052.622.074.934.015.216.036.428.047.646,0,.026,0,.052,0,.077.021.471.033.948.033,1.434A29.936,29.936,0,0,1,65.419,46.913ZM67.4,31.652c-.057-.212-.122-.421-.183-.631-.019-.062-.036-.129-.055-.19-.009-.03-.021-.059-.029-.089q-.241-.8-.523-1.594c-.075-.212-.149-.423-.228-.633-.168-.443-.35-.881-.537-1.316-.074-.171-.14-.346-.217-.516-.284-.629-.592-1.247-.915-1.857l-.02-.035a32.7,32.7,0,0,0-3.046-4.7q-.116-.15-.233-.3-.384-.483-.786-.951c-.153-.179-.306-.356-.463-.531-.216-.241-.437-.478-.661-.713-.115-.121-.224-.249-.341-.368.209-.023.417-.046.628-.064.259-.021.517-.047.777-.061.226-.013.455-.015.683-.023.32-.01.637-.025.962-.025h.079c.37.558.719,1.128,1.041,1.693a41.965,41.965,0,0,1,3.676,10.441h0c.147.843.288,1.678.4,2.5Z" transform="translate(0 -0.008)"/></g></g></g></svg>