<svg xmlns="http://www.w3.org/2000/svg" viewBox="-17804.867 334.822 32.133 32.133"><defs><style>.a{fill:#fff;}</style></defs><g transform="translate(-17804.867 334.822)"><path class="a" d="M15.667,1A16.067,16.067,0,1,0,31.733,17.067,16.067,16.067,0,0,0,15.667,1Zm0,30.059A13.992,13.992,0,1,1,29.659,17.067,13.992,13.992,0,0,1,15.667,31.059Z" transform="translate(0.4 -1)"/><path class="a" d="M551.059,281.021a1.482,1.482,0,0,0,1.084-.63v.556h.936V275.9h-.936v3.831c-.116.145-.37.38-.553.38-.2,0-.251-.135-.251-.338V275.9H550.4v4.217C550.406,280.615,550.558,281.021,551.059,281.021Z" transform="translate(-532.683 -267.058)"/><path class="a" d="M441.1,278.431a1.213,1.213,0,0,0,1.373,1.351,1.284,1.284,0,0,0,1.348-1.351v-2.474a1.318,1.318,0,0,0-1.348-1.357,1.291,1.291,0,0,0-1.373,1.357Zm.968-2.39c0-.277.129-.482.392-.482.286,0,.412.2.412.482v2.348c0,.273-.138.476-.392.476a.426.426,0,0,1-.409-.476v-2.348Z" transform="translate(-426.899 -265.799)"/><path class="a" d="M333.758,226.942h1.055v-2.776l1.229-4.066H334.97l-.679,2.734-.727-2.734H332.5l1.258,4.066Z" transform="translate(-321.792 -213.053)"/><path class="a" d="M275.61,468.5H264.552a2.154,2.154,0,0,0-2.152,2.152v5.433a2.152,2.152,0,0,0,2.152,2.152H275.61a2.152,2.152,0,0,0,2.152-2.152v-5.433A2.154,2.154,0,0,0,275.61,468.5Zm-9.585,8.125h-1.007v-5.568h-1.042v-.946h3.088v.946h-1.042v5.568Zm3.58,0h-.894v-.531a1.974,1.974,0,0,1-.515.447c-.482.277-1.142.27-1.142-.7v-4.017h.894V475.5c0,.193.048.325.238.325.174,0,.418-.222.524-.36v-3.648h.894Zm3.439-.994c0,.6-.222,1.055-.817,1.055a1.021,1.021,0,0,1-.849-.431v.37h-.9v-6.514h.9v2.1a1.077,1.077,0,0,1,.794-.447c.653,0,.872.553.872,1.2Zm3.3-1.3h-1.708v.907c0,.36.029.672.389.672.376,0,.4-.254.4-.672v-.335h.92v.363c0,.926-.4,1.486-1.338,1.486-.852,0-1.29-.621-1.29-1.486v-2.158a1.319,1.319,0,0,1,1.357-1.412c.856,0,1.271.544,1.271,1.412Z" transform="translate(-253.947 -453.463)"/><path class="a" d="M643.3,594.1c-.331,0-.4.232-.4.563v.486h.788v-.486C643.688,594.338,643.617,594.1,643.3,594.1Z" transform="translate(-622.208 -575.023)"/><path class="a" d="M541.783,593.593a.63.63,0,0,0-.183.148v2.995a.864.864,0,0,0,.212.17.379.379,0,0,0,.457-.048.551.551,0,0,0,.077-.331v-2.483a.6.6,0,0,0-.1-.37A.372.372,0,0,0,541.783,593.593Z" transform="translate(-524.166 -574.487)"/></g></svg>