<svg xmlns="http://www.w3.org/2000/svg" viewBox="-16163.441 1636.474 60.441 60.441"><defs><style>.a{fill:#231f20;}</style></defs><g transform="translate(-16163.441 1636.474)"><path class="a" d="M29.821,1A30.221,30.221,0,1,0,60.041,31.221,30.222,30.222,0,0,0,29.821,1Zm0,56.539A26.318,26.318,0,1,1,56.139,31.221,26.318,26.318,0,0,1,29.821,57.539Z" transform="translate(0.4 -1)"/><path class="a" d="M551.64,285.532a2.788,2.788,0,0,0,2.039-1.186v1.047h1.761V275.9h-1.761v7.206c-.218.272-.7.714-1.041.714-.381,0-.472-.254-.472-.635V275.9H550.4v7.932C550.412,284.77,550.7,285.532,551.64,285.532Z" transform="translate(-517.076 -259.268)"/><path class="a" d="M441.1,281.806a2.281,2.281,0,0,0,2.583,2.541,2.414,2.414,0,0,0,2.535-2.541v-4.653a2.479,2.479,0,0,0-2.535-2.553,2.428,2.428,0,0,0-2.583,2.553Zm1.821-4.5c0-.52.242-.908.738-.908.538,0,.774.375.774.908v4.417c0,.514-.26.9-.738.9a.8.8,0,0,1-.768-.9V277.31Z" transform="translate(-414.389 -258.047)"/><path class="a" d="M334.866,232.969h1.984v-5.221l2.311-7.647h-2.015l-1.277,5.143L334.5,220.1h-2l2.366,7.647Z" transform="translate(-312.359 -206.844)"/><path class="a" d="M287.248,468.5h-20.8a4.051,4.051,0,0,0-4.048,4.047v10.219a4.047,4.047,0,0,0,4.048,4.048h20.8a4.047,4.047,0,0,0,4.048-4.048V472.548A4.051,4.051,0,0,0,287.248,468.5Zm-18.03,15.283h-1.894V473.31h-1.96v-1.779h5.808v1.779h-1.96v10.473Zm6.734,0H274.27v-1a3.711,3.711,0,0,1-.968.841c-.908.52-2.148.508-2.148-1.325v-7.557h1.682v6.927c0,.363.091.611.448.611.327,0,.787-.417.986-.678v-6.861h1.682Zm6.468-1.869c0,1.119-.417,1.984-1.537,1.984a1.921,1.921,0,0,1-1.6-.811v.7h-1.694V471.531h1.694v3.945a2.026,2.026,0,0,1,1.494-.841c1.228,0,1.64,1.041,1.64,2.263Zm6.214-2.438h-3.213v1.706c0,.678.054,1.264.732,1.264.708,0,.75-.478.75-1.264v-.629h1.73v.684c0,1.742-.75,2.8-2.517,2.8-1.6,0-2.426-1.168-2.426-2.8v-4.06a2.48,2.48,0,0,1,2.553-2.656c1.609,0,2.39,1.022,2.39,2.656Z" transform="translate(-246.5 -440.215)"/><path class="a" d="M643.65,594.1c-.623,0-.75.436-.75,1.059v.914h1.482v-.914C644.382,594.548,644.249,594.1,643.65,594.1Z" transform="translate(-603.979 -558.216)"/><path class="a" d="M541.945,593.635a1.188,1.188,0,0,0-.345.278v5.633a1.623,1.623,0,0,0,.4.321.713.713,0,0,0,.859-.091,1.037,1.037,0,0,0,.145-.623v-4.671a1.135,1.135,0,0,0-.182-.7A.7.7,0,0,0,541.945,593.635Z" transform="translate(-508.808 -557.696)"/></g></svg>